STARTFONT 2.1
FONT -HP-Mincho-Bold-R-Normal--16-116-100-100-C-160-JISX0208.1990-0
SIZE 11 100 100
FONTBOUNDINGBOX 16 16 0 -2

STARTPROPERTIES 23
FONTNAME_REGISTRY ""
FOUNDRY "HP"
FAMILY_NAME "Mincho"
WEIGHT_NAME "Bold"
SLANT "R"
SETWIDTH_NAME "Normal"
ADD_STYLE_NAME ""
PIXEL_SIZE 16
POINT_SIZE 116
RESOLUTION_X 100
RESOLUTION_Y 100
SPACING "C"
AVERAGE_WIDTH 160
CHARSET_REGISTRY "JISX0208.1990"
CHARSET_ENCODING "0"
COPYRIGHT "Copyright (c) 1994 Hewlett-Packard Company. Copyright 1994 by Bridge Inc."
_HP_ASXVERSION "@(#) ASX 3.00 $Revision: 13.9 $ minB16k"
WEIGHT 10
X_HEIGHT 14
QUAD_WIDTH 16
DEFAULT_CHAR 8751
FONT_DESCENT 2
FONT_ASCENT 14
ENDPROPERTIES

CHARS 6963

STARTCHAR jisx0208_2121
ENCODING 8481
SWIDTH 960 0
DWIDTH 16 0
BBX 16 16 0 -2
BITMAP
0000
0000
0000
0000
0000
0000
0000
0000
0000
0000
0000
0000
0000
0000
0000
0000
ENDCHAR

STARTCHAR jisx0208_2122
ENCODING 8482
SWIDTH 960 0
DWIDTH 16 0
BBX 16 16 0 -2
BITMAP
0000
0000
0000
0000
0000
0000
0000
0000
0000
0000
0000
0000
3000
1C00
0C00
0000
ENDCHAR

STARTCHAR jisx0208_2123
ENCODING 8483
SWIDTH 960 0
DWIDTH 16 0
BBX 16 16 0 -2
BITMAP
0000
0000
0000
0000
0000
0000
0000
0000
0000
0000
0000
1C00
3600
3600
1C00
0000
ENDCHAR

STARTCHAR jisx0208_2124
ENCODING 8484
SWIDTH 960 0
DWIDTH 16 0
BBX 16 16 0 -2
BITMAP
0000
0000
0000
0000
0000
0000
0000
0000
0000
0000
0000
3800
3800
1800
3000
0000
ENDCHAR

STARTCHAR jisx0208_2125
ENCODING 8485
SWIDTH 960 0
DWIDTH 16 0
BBX 16 16 0 -2
BITMAP
0000
0000
0000
0000
0000
0000
0000
0000
0000
0000
0000
0000
3800
3800
0000
0000
ENDCHAR

STARTCHAR jisx0208_2126
ENCODING 8486
SWIDTH 960 0
DWIDTH 16 0
BBX 16 16 0 -2
BITMAP
0000
0000
0000
0000
0000
0000
01C0
03E0
01C0
0000
0000
0000
0000
0000
0000
0000
ENDCHAR

STARTCHAR jisx0208_2127
ENCODING 8487
SWIDTH 960 0
DWIDTH 16 0
BBX 16 16 0 -2
BITMAP
0000
0000
0000
0000
01C0
01C0
0000
0000
0000
0000
01C0
01C0
0000
0000
0000
0000
ENDCHAR

STARTCHAR jisx0208_2128
ENCODING 8488
SWIDTH 960 0
DWIDTH 16 0
BBX 16 16 0 -2
BITMAP
0000
0000
0000
0000
01C0
01C0
0000
0000
0000
0000
01C0
01C0
00C0
0180
0000
0000
ENDCHAR

STARTCHAR jisx0208_2129
ENCODING 8489
SWIDTH 960 0
DWIDTH 16 0
BBX 16 16 0 -2
BITMAP
0000
0000
03C0
0660
0C30
0E30
0060
00C0
0180
0180
0180
0000
01C0
01C0
0000
0000
ENDCHAR

STARTCHAR jisx0208_212A
ENCODING 8490
SWIDTH 960 0
DWIDTH 16 0
BBX 16 16 0 -2
BITMAP
0000
0000
0180
0180
0180
0180
0180
0180
0180
0180
0000
0000
01C0
01C0
0000
0000
ENDCHAR

STARTCHAR jisx0208_212B
ENCODING 8491
SWIDTH 960 0
DWIDTH 16 0
BBX 16 16 0 -2
BITMAP
0000
1800
6C00
3000
0000
0000
0000
0000
0000
0000
0000
0000
0000
0000
0000
0000
ENDCHAR

STARTCHAR jisx0208_212C
ENCODING 8492
SWIDTH 960 0
DWIDTH 16 0
BBX 16 16 0 -2
BITMAP
0000
0000
3800
6C00
6C00
3800
0000
0000
0000
0000
0000
0000
0000
0000
0000
0000
ENDCHAR

STARTCHAR jisx0208_212D
ENCODING 8493
SWIDTH 960 0
DWIDTH 16 0
BBX 16 16 0 -2
BITMAP
0000
00E0
0380
0000
0000
0000
0000
0000
0000
0000
0000
0000
0000
0000
0000
0000
ENDCHAR

STARTCHAR jisx0208_212E
ENCODING 8494
SWIDTH 960 0
DWIDTH 16 0
BBX 16 16 0 -2
BITMAP
0000
0380
00E0
0000
0000
0000
0000
0000
0000
0000
0000
0000
0000
0000
0000
0000
ENDCHAR

STARTCHAR jisx0208_212F
ENCODING 8495
SWIDTH 960 0
DWIDTH 16 0
BBX 16 16 0 -2
BITMAP
0000
0770
0770
0000
0000
0000
0000
0000
0000
0000
0000
0000
0000
0000
0000
0000
ENDCHAR

STARTCHAR jisx0208_2130
ENCODING 8496
SWIDTH 960 0
DWIDTH 16 0
BBX 16 16 0 -2
BITMAP
0000
01C0
0360
0000
0000
0000
0000
0000
0000
0000
0000
0000
0000
0000
0000
0000
ENDCHAR

STARTCHAR jisx0208_2131
ENCODING 8497
SWIDTH 960 0
DWIDTH 16 0
BBX 16 16 0 -2
BITMAP
0000
7FFF
0000
0000
0000
0000
0000
0000
0000
0000
0000
0000
0000
0000
0000
0000
ENDCHAR

STARTCHAR jisx0208_2132
ENCODING 8498
SWIDTH 960 0
DWIDTH 16 0
BBX 16 16 0 -2
BITMAP
0000
0000
0000
0000
0000
0000
0000
0000
0000
0000
0000
0000
0000
0000
7FFF
0000
ENDCHAR

STARTCHAR jisx0208_2133
ENCODING 8499
SWIDTH 960 0
DWIDTH 16 0
BBX 16 16 0 -2
BITMAP
0000
0000
0000
0000
0600
0300
0180
00C0
0060
0030
0030
0000
0000
0000
0000
0000
ENDCHAR

STARTCHAR jisx0208_2134
ENCODING 8500
SWIDTH 960 0
DWIDTH 16 0
BBX 16 16 0 -2
BITMAP
0000
0000
0030
00D8
0660
0300
0180
00C0
0060
0030
0030
0000
0000
0000
0000
0000
ENDCHAR

STARTCHAR jisx0208_2135
ENCODING 8501
SWIDTH 960 0
DWIDTH 16 0
BBX 16 16 0 -2
BITMAP
0000
0000
0000
0000
0600
0300
0180
00C0
0060
0030
01F0
0030
0000
0000
0000
0000
ENDCHAR

STARTCHAR jisx0208_2136
ENCODING 8502
SWIDTH 960 0
DWIDTH 16 0
BBX 16 16 0 -2
BITMAP
0000
0000
0000
0018
066C
0330
0180
00C0
0060
0030
01F0
0030
0000
0000
0000
0000
ENDCHAR

STARTCHAR jisx0208_2137
ENCODING 8503
SWIDTH 960 0
DWIDTH 16 0
BBX 16 16 0 -2
BITMAP
0000
0000
0000
0000
0370
0360
0360
06C0
06C0
06C0
0D80
0D80
0000
0000
0000
0000
ENDCHAR

STARTCHAR jisx0208_2138
ENCODING 8504
SWIDTH 960 0
DWIDTH 16 0
BBX 16 16 0 -2
BITMAP
0000
01C0
01C0
0360
0630
0C18
180C
7007
0018
1FFC
0180
0180
0180
0186
7FFF
0000
ENDCHAR

STARTCHAR jisx0208_2139
ENCODING 8505
SWIDTH 960 0
DWIDTH 16 0
BBX 16 16 0 -2
BITMAP
0000
0000
0380
0300
030C
07FE
060C
0C18
1818
3330
0160
00C0
0070
0030
0000
0000
ENDCHAR

STARTCHAR jisx0208_213A
ENCODING 8506
SWIDTH 960 0
DWIDTH 16 0
BBX 16 16 0 -2
BITMAP
0000
0000
000C
0006
000C
0018
07B0
0CE0
18B0
1998
3300
3600
2C00
3800
0000
0000
ENDCHAR

STARTCHAR jisx0208_213B
ENCODING 8507
SWIDTH 960 0
DWIDTH 16 0
BBX 16 16 0 -2
BITMAP
0000
0000
07E0
1C38
300C
300C
6006
6006
6006
6006
6006
300C
300C
1C38
07E0
0000
ENDCHAR

STARTCHAR jisx0208_213C
ENCODING 8508
SWIDTH 960 0
DWIDTH 16 0
BBX 16 16 0 -2
BITMAP
0000
0000
0000
0000
0000
0000
0000
300C
1FFE
0000
0000
0000
0000
0000
0000
0000
ENDCHAR

STARTCHAR jisx0208_213D
ENCODING 8509
SWIDTH 960 0
DWIDTH 16 0
BBX 16 16 0 -2
BITMAP
0000
0000
0000
0000
0000
0000
0000
7FFF
0000
0000
0000
0000
0000
0000
0000
0000
ENDCHAR

STARTCHAR jisx0208_213E
ENCODING 8510
SWIDTH 960 0
DWIDTH 16 0
BBX 16 16 0 -2
BITMAP
0000
0000
0000
0000
0000
0000
0000
03E0
0000
0000
0000
0000
0000
0000
0000
0000
ENDCHAR

STARTCHAR jisx0208_213F
ENCODING 8511
SWIDTH 960 0
DWIDTH 16 0
BBX 16 16 0 -2
BITMAP
0000
0003
0006
000C
0018
0030
0060
00C0
0180
0300
0600
0C00
1800
3000
6000
0000
ENDCHAR

STARTCHAR jisx0208_2140
ENCODING 8512
SWIDTH 960 0
DWIDTH 16 0
BBX 16 16 0 -2
BITMAP
0000
6000
3000
1800
0C00
0600
0300
0180
00C0
0060
0030
0018
000C
0006
0003
0000
ENDCHAR

STARTCHAR jisx0208_2141
ENCODING 8513
SWIDTH 960 0
DWIDTH 16 0
BBX 16 16 0 -2
BITMAP
0000
0000
0000
0000
0000
0000
0F03
39CE
6078
0000
0000
0000
0000
0000
0000
0000
ENDCHAR

STARTCHAR jisx0208_2142
ENCODING 8514
SWIDTH 960 0
DWIDTH 16 0
BBX 16 16 0 -2
BITMAP
0000
0660
0660
0660
0660
0660
0660
0660
0660
0660
0660
0660
0660
0660
0660
0000
ENDCHAR

STARTCHAR jisx0208_2143
ENCODING 8515
SWIDTH 960 0
DWIDTH 16 0
BBX 16 16 0 -2
BITMAP
0000
0180
0180
0180
0180
0180
0180
0180
0180
0180
0180
0180
0180
0180
0180
0000
ENDCHAR

STARTCHAR jisx0208_2144
ENCODING 8516
SWIDTH 960 0
DWIDTH 16 0
BBX 16 16 0 -2
BITMAP
0000
0000
0000
0000
0000
0000
0000
39CE
39CE
0000
0000
0000
0000
0000
0000
0000
ENDCHAR

STARTCHAR jisx0208_2145
ENCODING 8517
SWIDTH 960 0
DWIDTH 16 0
BBX 16 16 0 -2
BITMAP
0000
0000
0000
0000
0000
0000
0000
1C38
1C38
0000
0000
0000
0000
0000
0000
0000
ENDCHAR

STARTCHAR jisx0208_2146
ENCODING 8518
SWIDTH 960 0
DWIDTH 16 0
BBX 16 16 0 -2
BITMAP
0000
0006
000C
000E
000E
0000
0000
0000
0000
0000
0000
0000
0000
0000
0000
0000
ENDCHAR

STARTCHAR jisx0208_2147
ENCODING 8519
SWIDTH 960 0
DWIDTH 16 0
BBX 16 16 0 -2
BITMAP
0000
3800
3800
1800
3000
0000
0000
0000
0000
0000
0000
0000
0000
0000
0000
0000
ENDCHAR

STARTCHAR jisx0208_2148
ENCODING 8520
SWIDTH 960 0
DWIDTH 16 0
BBX 16 16 0 -2
BITMAP
0000
0036
006C
006E
006E
0000
0000
0000
0000
0000
0000
0000
0000
0000
0000
0000
ENDCHAR

STARTCHAR jisx0208_2149
ENCODING 8521
SWIDTH 960 0
DWIDTH 16 0
BBX 16 16 0 -2
BITMAP
0000
3700
3700
1B00
3600
0000
0000
0000
0000
0000
0000
0000
0000
0000
0000
0000
ENDCHAR

STARTCHAR jisx0208_214A
ENCODING 8522
SWIDTH 960 0
DWIDTH 16 0
BBX 16 16 0 -2
BITMAP
0000
0006
000C
0018
0018
0030
0030
0030
0030
0030
0030
0018
0018
000C
0006
0000
ENDCHAR

STARTCHAR jisx0208_214B
ENCODING 8523
SWIDTH 960 0
DWIDTH 16 0
BBX 16 16 0 -2
BITMAP
0000
3000
1800
0C00
0C00
0600
0600
0600
0600
0600
0600
0C00
0C00
1800
3000
0000
ENDCHAR

STARTCHAR jisx0208_214C
ENCODING 8524
SWIDTH 960 0
DWIDTH 16 0
BBX 16 16 0 -2
BITMAP
0000
000E
0038
0030
0030
0030
0030
0030
0030
0030
0030
0030
0030
0038
000E
0000
ENDCHAR

STARTCHAR jisx0208_214D
ENCODING 8525
SWIDTH 960 0
DWIDTH 16 0
BBX 16 16 0 -2
BITMAP
0000
3800
0E00
0600
0600
0600
0600
0600
0600
0600
0600
0600
0600
0E00
3800
0000
ENDCHAR

STARTCHAR jisx0208_214E
ENCODING 8526
SWIDTH 960 0
DWIDTH 16 0
BBX 16 16 0 -2
BITMAP
0000
003E
0030
0030
0030
0030
0030
0030
0030
0030
0030
0030
0030
0030
003E
0000
ENDCHAR

STARTCHAR jisx0208_214F
ENCODING 8527
SWIDTH 960 0
DWIDTH 16 0
BBX 16 16 0 -2
BITMAP
0000
3E00
0600
0600
0600
0600
0600
0600
0600
0600
0600
0600
0600
0600
3E00
0000
ENDCHAR

STARTCHAR jisx0208_2150
ENCODING 8528
SWIDTH 960 0
DWIDTH 16 0
BBX 16 16 0 -2
BITMAP
0000
000E
0018
0018
0018
0018
0018
0070
0018
0018
0018
0018
0018
0018
000E
0000
ENDCHAR

STARTCHAR jisx0208_2151
ENCODING 8529
SWIDTH 960 0
DWIDTH 16 0
BBX 16 16 0 -2
BITMAP
0000
3800
0C00
0C00
0C00
0C00
0C00
0700
0C00
0C00
0C00
0C00
0C00
0C00
3800
0000
ENDCHAR

STARTCHAR jisx0208_2152
ENCODING 8530
SWIDTH 960 0
DWIDTH 16 0
BBX 16 16 0 -2
BITMAP
0000
0006
0006
000C
000C
0018
0018
0030
0030
0018
0018
000C
000C
0006
0006
0000
ENDCHAR

STARTCHAR jisx0208_2153
ENCODING 8531
SWIDTH 960 0
DWIDTH 16 0
BBX 16 16 0 -2
BITMAP
0000
3000
3000
1800
1800
0C00
0C00
0600
0600
0C00
0C00
1800
1800
3000
3000
0000
ENDCHAR

STARTCHAR jisx0208_2154
ENCODING 8532
SWIDTH 960 0
DWIDTH 16 0
BBX 16 16 0 -2
BITMAP
0000
0016
0016
002C
002C
0058
0058
00B0
00B0
0058
0058
002C
002C
0016
0016
0000
ENDCHAR

STARTCHAR jisx0208_2155
ENCODING 8533
SWIDTH 960 0
DWIDTH 16 0
BBX 16 16 0 -2
BITMAP
0000
2C00
2C00
1600
1600
0B00
0B00
0580
0580
0B00
0B00
1600
1600
2C00
2C00
0000
ENDCHAR

STARTCHAR jisx0208_2156
ENCODING 8534
SWIDTH 960 0
DWIDTH 16 0
BBX 16 16 0 -2
BITMAP
0000
007E
0060
0060
0060
0060
0060
0060
0060
0060
0060
0060
0060
0060
0060
0000
ENDCHAR

STARTCHAR jisx0208_2157
ENCODING 8535
SWIDTH 960 0
DWIDTH 16 0
BBX 16 16 0 -2
BITMAP
0000
0300
0300
0300
0300
0300
0300
0300
0300
0300
0300
0300
0300
0300
3F00
0000
ENDCHAR

STARTCHAR jisx0208_2158
ENCODING 8536
SWIDTH 960 0
DWIDTH 16 0
BBX 16 16 0 -2
BITMAP
0000
007E
0066
005E
0058
0058
0058
0058
0058
0058
0058
0058
0058
0058
0078
0000
ENDCHAR

STARTCHAR jisx0208_2159
ENCODING 8537
SWIDTH 960 0
DWIDTH 16 0
BBX 16 16 0 -2
BITMAP
0000
0F00
0B00
0B00
0B00
0B00
0B00
0B00
0B00
0B00
0B00
0B00
3B00
3300
3F00
0000
ENDCHAR

STARTCHAR jisx0208_215A
ENCODING 8538
SWIDTH 960 0
DWIDTH 16 0
BBX 16 16 0 -2
BITMAP
0000
003E
003C
0038
0038
0030
0030
0030
0030
0030
0030
0038
0038
003C
003E
0000
ENDCHAR

STARTCHAR jisx0208_215B
ENCODING 8539
SWIDTH 960 0
DWIDTH 16 0
BBX 16 16 0 -2
BITMAP
0000
3E00
1E00
0E00
0E00
0600
0600
0600
0600
0600
0600
0E00
0E00
1E00
3E00
0000
ENDCHAR

STARTCHAR jisx0208_215C
ENCODING 8540
SWIDTH 960 0
DWIDTH 16 0
BBX 16 16 0 -2
BITMAP
0000
0000
0000
0180
0180
0180
0180
1FF8
0180
0180
0180
0180
0000
0000
0000
0000
ENDCHAR

STARTCHAR jisx0208_215D
ENCODING 8541
SWIDTH 960 0
DWIDTH 16 0
BBX 16 16 0 -2
BITMAP
0000
0000
0000
0000
0000
0000
0000
1FFC
0000
0000
0000
0000
0000
0000
0000
0000
ENDCHAR

STARTCHAR jisx0208_215E
ENCODING 8542
SWIDTH 960 0
DWIDTH 16 0
BBX 16 16 0 -2
BITMAP
0000
0000
0000
0180
0180
0180
1FF8
0180
0180
0180
0000
1FF8
0000
0000
0000
0000
ENDCHAR

STARTCHAR jisx0208_215F
ENCODING 8543
SWIDTH 960 0
DWIDTH 16 0
BBX 16 16 0 -2
BITMAP
0000
0000
0000
0000
0C18
0630
0360
01C0
01C0
0360
0630
0C18
0000
0000
0000
0000
ENDCHAR

STARTCHAR jisx0208_2160
ENCODING 8544
SWIDTH 960 0
DWIDTH 16 0
BBX 16 16 0 -2
BITMAP
0000
0000
0000
01C0
01C0
0000
0000
1FFC
0000
0000
01C0
01C0
0000
0000
0000
0000
ENDCHAR

STARTCHAR jisx0208_2161
ENCODING 8545
SWIDTH 960 0
DWIDTH 16 0
BBX 16 16 0 -2
BITMAP
0000
0000
0000
0000
0000
1FFC
0000
0000
0000
1FFC
0000
0000
0000
0000
0000
0000
ENDCHAR

STARTCHAR jisx0208_2162
ENCODING 8546
SWIDTH 960 0
DWIDTH 16 0
BBX 16 16 0 -2
BITMAP
0000
0000
0000
0030
0030
1FFC
00C0
00C0
0180
1FFC
0600
0600
0000
0000
0000
0000
ENDCHAR

STARTCHAR jisx0208_2163
ENCODING 8547
SWIDTH 960 0
DWIDTH 16 0
BBX 16 16 0 -2
BITMAP
0000
0000
0000
001C
0070
01C0
0700
1C00
1C00
0700
01C0
0070
001C
0000
0000
0000
ENDCHAR

STARTCHAR jisx0208_2164
ENCODING 8548
SWIDTH 960 0
DWIDTH 16 0
BBX 16 16 0 -2
BITMAP
0000
0000
0000
1C00
0700
01C0
0070
001C
001C
0070
01C0
0700
1C00
0000
0000
0000
ENDCHAR

STARTCHAR jisx0208_2165
ENCODING 8549
SWIDTH 960 0
DWIDTH 16 0
BBX 16 16 0 -2
BITMAP
0000
0000
001C
00F0
0780
1C00
0780
00F0
001C
0000
1FFC
0000
1FFC
0000
0000
0000
ENDCHAR

STARTCHAR jisx0208_2166
ENCODING 8550
SWIDTH 960 0
DWIDTH 16 0
BBX 16 16 0 -2
BITMAP
0000
0000
1C00
0780
00F0
001C
00F0
0780
1C00
0000
1FFC
0000
1FFC
0000
0000
0000
ENDCHAR

STARTCHAR jisx0208_2167
ENCODING 8551
SWIDTH 960 0
DWIDTH 16 0
BBX 16 16 0 -2
BITMAP
0000
0000
0000
0000
1E3C
3366
61C3
61C3
61C3
3366
1E3C
0000
0000
0000
0000
0000
ENDCHAR

STARTCHAR jisx0208_2168
ENCODING 8552
SWIDTH 960 0
DWIDTH 16 0
BBX 16 16 0 -2
BITMAP
0000
0000
0000
01C0
01C0
0000
0000
0000
0000
0000
1C1C
1C1C
0000
0000
0000
0000
ENDCHAR

STARTCHAR jisx0208_2169
ENCODING 8553
SWIDTH 960 0
DWIDTH 16 0
BBX 16 16 0 -2
BITMAP
0000
0000
00FE
000E
0016
0036
0066
0EC6
1980
30C0
30C0
30C0
1980
0F00
0000
0000
ENDCHAR

STARTCHAR jisx0208_216A
ENCODING 8554
SWIDTH 960 0
DWIDTH 16 0
BBX 16 16 0 -2
BITMAP
0000
0000
03C0
0660
0C30
0C30
0C30
0660
03C0
0180
1FF8
0180
0180
0180
0000
0000
ENDCHAR

STARTCHAR jisx0208_216B
ENCODING 8555
SWIDTH 960 0
DWIDTH 16 0
BBX 16 16 0 -2
BITMAP
0000
3800
6C00
6C00
3800
0000
0000
0000
0000
0000
0000
0000
0000
0000
0000
0000
ENDCHAR

STARTCHAR jisx0208_216C
ENCODING 8556
SWIDTH 960 0
DWIDTH 16 0
BBX 16 16 0 -2
BITMAP
0000
3000
3000
6000
6000
0000
0000
0000
0000
0000
0000
0000
0000
0000
0000
0000
ENDCHAR

STARTCHAR jisx0208_216D
ENCODING 8557
SWIDTH 960 0
DWIDTH 16 0
BBX 16 16 0 -2
BITMAP
0000
2C00
2C00
5800
5800
0000
0000
0000
0000
0000
0000
0000
0000
0000
0000
0000
ENDCHAR

STARTCHAR jisx0208_216E
ENCODING 8558
SWIDTH 960 0
DWIDTH 16 0
BBX 16 16 0 -2
BITMAP
0000
3800
6CF6
6B8E
3B06
0603
0603
0600
0600
0600
0603
0306
038E
00F8
0000
0000
ENDCHAR

STARTCHAR jisx0208_216F
ENCODING 8559
SWIDTH 960 0
DWIDTH 16 0
BBX 16 16 0 -2
BITMAP
0000
0000
1E78
0C30
0C30
0660
0660
02C0
1EF8
0180
1FF8
0180
0180
03C0
0000
0000
ENDCHAR

STARTCHAR jisx0208_2170
ENCODING 8560
SWIDTH 960 0
DWIDTH 16 0
BBX 16 16 0 -2
BITMAP
0000
0180
07B0
0D70
19B0
19B0
0D80
0780
01E0
01B0
1998
1998
1DB0
17E0
0180
0000
ENDCHAR

STARTCHAR jisx0208_2171
ENCODING 8561
SWIDTH 960 0
DWIDTH 16 0
BBX 16 16 0 -2
BITMAP
0000
0000
0000
0000
0060
0060
03E0
06B0
0CB8
0D80
0D80
0D98
0730
03E0
0300
0000
ENDCHAR

STARTCHAR jisx0208_2172
ENCODING 8562
SWIDTH 960 0
DWIDTH 16 0
BBX 16 16 0 -2
BITMAP
0000
0000
01F0
0318
0338
0300
0300
1FF8
0180
0180
1D80
338C
338C
1EF8
0000
0000
ENDCHAR

STARTCHAR jisx0208_2173
ENCODING 8563
SWIDTH 960 0
DWIDTH 16 0
BBX 16 16 0 -2
BITMAP
0000
0000
1E0C
3318
3330
3360
3360
1EC0
01BC
0366
0366
0666
0C66
183C
0000
0000
ENDCHAR

STARTCHAR jisx0208_2174
ENCODING 8564
SWIDTH 960 0
DWIDTH 16 0
BBX 16 16 0 -2
BITMAP
0000
0000
0318
0318
0318
1FFE
0630
0630
0630
0630
3FFC
0C60
0C60
0C60
0000
0000
ENDCHAR

STARTCHAR jisx0208_2175
ENCODING 8565
SWIDTH 960 0
DWIDTH 16 0
BBX 16 16 0 -2
BITMAP
0000
0000
0380
06C0
06C0
0580
0300
0580
0DBC
18D8
1858
1830
0C36
07DC
0000
0000
ENDCHAR

STARTCHAR jisx0208_2176
ENCODING 8566
SWIDTH 960 0
DWIDTH 16 0
BBX 16 16 0 -2
BITMAP
0000
0000
0000
0000
0180
0DB0
0560
03C0
03C0
0560
0DB0
0180
0000
0000
0000
0000
ENDCHAR

STARTCHAR jisx0208_2177
ENCODING 8567
SWIDTH 960 0
DWIDTH 16 0
BBX 16 16 0 -2
BITMAP
0000
0000
03E0
0E38
180C
1BAC
3676
3666
3666
366C
1BB8
1800
0E38
03E0
0000
0000
ENDCHAR

STARTCHAR jisx0208_2178
ENCODING 8568
SWIDTH 960 0
DWIDTH 16 0
BBX 16 16 0 -2
BITMAP
0000
03E0
0630
0670
0600
0380
06E0
0630
0630
03B0
00E0
0030
0730
0630
03E0
0000
ENDCHAR

STARTCHAR jisx0208_2179
ENCODING 8569
SWIDTH 960 0
DWIDTH 16 0
BBX 16 16 0 -2
BITMAP
0000
01C0
01C0
01C0
0360
0360
7F7F
3006
180C
0C18
0C18
0DD8
176C
1C1C
180C
0000
ENDCHAR

STARTCHAR jisx0208_217A
ENCODING 8570
SWIDTH 960 0
DWIDTH 16 0
BBX 16 16 0 -2
BITMAP
0000
01C0
01C0
01C0
03E0
03E0
7FFF
3FFE
1FFC
0FF8
0FF8
0FF8
1F7C
1C1C
180C
0000
ENDCHAR

STARTCHAR jisx0208_217B
ENCODING 8571
SWIDTH 960 0
DWIDTH 16 0
BBX 16 16 0 -2
BITMAP
0000
0000
03E0
0E38
180C
180C
3006
3006
3006
3006
180C
180C
0E38
03E0
0000
0000
ENDCHAR

STARTCHAR jisx0208_217C
ENCODING 8572
SWIDTH 960 0
DWIDTH 16 0
BBX 16 16 0 -2
BITMAP
0000
0000
03E0
0FF8
1FFC
1FFC
3FFE
3FFE
3FFE
3FFE
1FFC
1FFC
0FF8
03E0
0000
0000
ENDCHAR

STARTCHAR jisx0208_217D
ENCODING 8573
SWIDTH 960 0
DWIDTH 16 0
BBX 16 16 0 -2
BITMAP
0000
0000
03E0
0E38
180C
1BEC
3636
3636
3636
3636
1BEC
180C
0E38
03E0
0000
0000
ENDCHAR

STARTCHAR jisx0208_217E
ENCODING 8574
SWIDTH 960 0
DWIDTH 16 0
BBX 16 16 0 -2
BITMAP
0000
01C0
0360
0630
0C18
180C
3006
6003
6003
3006
180C
0C18
0630
0360
01C0
0000
ENDCHAR

STARTCHAR jisx0208_2221
ENCODING 8737
SWIDTH 960 0
DWIDTH 16 0
BBX 16 16 0 -2
BITMAP
0000
01C0
03E0
07F0
0FF8
1FFC
3FFE
7FFF
7FFF
3FFE
1FFC
0FF8
07F0
03E0
01C0
0000
ENDCHAR

STARTCHAR jisx0208_2222
ENCODING 8738
SWIDTH 960 0
DWIDTH 16 0
BBX 16 16 0 -2
BITMAP
0000
0000
3FFE
3006
3006
3006
3006
3006
3006
3006
3006
3006
3006
3FFE
0000
0000
ENDCHAR

STARTCHAR jisx0208_2223
ENCODING 8739
SWIDTH 960 0
DWIDTH 16 0
BBX 16 16 0 -2
BITMAP
0000
0000
3FFE
3FFE
3FFE
3FFE
3FFE
3FFE
3FFE
3FFE
3FFE
3FFE
3FFE
3FFE
0000
0000
ENDCHAR

STARTCHAR jisx0208_2224
ENCODING 8740
SWIDTH 960 0
DWIDTH 16 0
BBX 16 16 0 -2
BITMAP
0000
0000
01C0
01C0
0360
0360
0630
0C18
0C18
180C
180C
3006
7FFF
0000
0000
0000
ENDCHAR

STARTCHAR jisx0208_2225
ENCODING 8741
SWIDTH 960 0
DWIDTH 16 0
BBX 16 16 0 -2
BITMAP
0000
0000
01C0
01C0
03E0
03E0
07F0
0FF8
0FF8
1FFC
1FFC
3FFE
7FFF
0000
0000
0000
ENDCHAR

STARTCHAR jisx0208_2226
ENCODING 8742
SWIDTH 960 0
DWIDTH 16 0
BBX 16 16 0 -2
BITMAP
0000
0000
0000
7FFF
3006
180C
180C
0C18
0C18
0630
0360
0360
01C0
01C0
0000
0000
ENDCHAR

STARTCHAR jisx0208_2227
ENCODING 8743
SWIDTH 960 0
DWIDTH 16 0
BBX 16 16 0 -2
BITMAP
0000
0000
0000
7FFF
3FFE
1FFC
1FFC
0FF8
0FF8
07F0
03E0
03E0
01C0
01C0
0000
0000
ENDCHAR

STARTCHAR jisx0208_2228
ENCODING 8744
SWIDTH 960 0
DWIDTH 16 0
BBX 16 16 0 -2
BITMAP
0000
0000
31C6
19CC
0C18
0630
0360
39CE
39CE
0360
0630
0C18
19CC
31C6
0000
0000
ENDCHAR

STARTCHAR jisx0208_2229
ENCODING 8745
SWIDTH 960 0
DWIDTH 16 0
BBX 16 16 0 -2
BITMAP
0000
0000
3FFE
3FFE
0000
0000
3FFE
3FFE
01C0
01C0
01C0
01C0
01C0
01C0
0000
0000
ENDCHAR

STARTCHAR jisx0208_222A
ENCODING 8746
SWIDTH 960 0
DWIDTH 16 0
BBX 16 16 0 -2
BITMAP
0000
0000
0000
0000
0000
0018
000E
7FFF
000E
0018
0000
0000
0000
0000
0000
0000
ENDCHAR

STARTCHAR jisx0208_222B
ENCODING 8747
SWIDTH 960 0
DWIDTH 16 0
BBX 16 16 0 -2
BITMAP
0000
0000
0000
0000
0000
0C00
3800
7FFF
3800
0C00
0000
0000
0000
0000
0000
0000
ENDCHAR

STARTCHAR jisx0208_222C
ENCODING 8748
SWIDTH 960 0
DWIDTH 16 0
BBX 16 16 0 -2
BITMAP
0000
0180
03C0
03C0
0560
0180
0180
0180
0180
0180
0180
0180
0180
0180
0180
0000
ENDCHAR

STARTCHAR jisx0208_222D
ENCODING 8749
SWIDTH 960 0
DWIDTH 16 0
BBX 16 16 0 -2
BITMAP
0000
0180
0180
0180
0180
0180
0180
0180
0180
0180
0180
0560
03C0
03C0
0180
0000
ENDCHAR

STARTCHAR jisx0208_222E
ENCODING 8750
SWIDTH 960 0
DWIDTH 16 0
BBX 16 16 0 -2
BITMAP
0000
0000
0000
0000
0000
1FFC
1FFC
0000
0000
1FFC
1FFC
0000
0000
0000
0000
0000
ENDCHAR

STARTCHAR jisx0208_222F
ENCODING 8751
SWIDTH 960 0
DWIDTH 16 0
BBX 16 16 0 -2
BITMAP
0000
0000
3006
0000
0000
0000
0000
0000
0000
0000
0000
0000
0000
3006
0000
0000
ENDCHAR

STARTCHAR jisx0208_223A
ENCODING 8762
SWIDTH 960 0
DWIDTH 16 0
BBX 16 16 0 -2
BITMAP
0000
0000
0000
07FC
0C00
1800
1800
1FFC
1800
1800
0C00
07FC
0000
0000
0000
0000
ENDCHAR

STARTCHAR jisx0208_223B
ENCODING 8763
SWIDTH 960 0
DWIDTH 16 0
BBX 16 16 0 -2
BITMAP
0000
0000
0000
1FF0
0018
000C
000C
1FFC
000C
000C
0018
1FF0
0000
0000
0000
0000
ENDCHAR

STARTCHAR jisx0208_223C
ENCODING 8764
SWIDTH 960 0
DWIDTH 16 0
BBX 16 16 0 -2
BITMAP
0000
0000
0000
07FC
0C00
1800
1800
1800
1800
0C00
07FC
0000
1FFC
0000
0000
0000
ENDCHAR

STARTCHAR jisx0208_223D
ENCODING 8765
SWIDTH 960 0
DWIDTH 16 0
BBX 16 16 0 -2
BITMAP
0000
0000
0000
1FF0
0018
000C
000C
000C
000C
0018
1FF0
0000
1FFC
0000
0000
0000
ENDCHAR

STARTCHAR jisx0208_223E
ENCODING 8766
SWIDTH 960 0
DWIDTH 16 0
BBX 16 16 0 -2
BITMAP
0000
0000
0000
0000
07FC
0C00
1800
1800
1800
1800
0C00
07FC
0000
0000
0000
0000
ENDCHAR

STARTCHAR jisx0208_223F
ENCODING 8767
SWIDTH 960 0
DWIDTH 16 0
BBX 16 16 0 -2
BITMAP
0000
0000
0000
0000
1FF0
0018
000C
000C
000C
000C
0018
1FF0
0000
0000
0000
0000
ENDCHAR

STARTCHAR jisx0208_2240
ENCODING 8768
SWIDTH 960 0
DWIDTH 16 0
BBX 16 16 0 -2
BITMAP
0000
0000
0000
0C18
0C18
0C18
0C18
0C18
0C18
0C18
0C18
0630
03E0
0000
0000
0000
ENDCHAR

STARTCHAR jisx0208_2241
ENCODING 8769
SWIDTH 960 0
DWIDTH 16 0
BBX 16 16 0 -2
BITMAP
0000
0000
0000
03E0
0630
0C18
0C18
0C18
0C18
0C18
0C18
0C18
0C18
0000
0000
0000
ENDCHAR

STARTCHAR jisx0208_224A
ENCODING 8778
SWIDTH 960 0
DWIDTH 16 0
BBX 16 16 0 -2
BITMAP
0000
0000
0000
01C0
01C0
0360
0360
0630
0630
0C18
0C18
180C
180C
0000
0000
0000
ENDCHAR

STARTCHAR jisx0208_224B
ENCODING 8779
SWIDTH 960 0
DWIDTH 16 0
BBX 16 16 0 -2
BITMAP
0000
0000
0000
180C
180C
0C18
0C18
0630
0630
0360
0360
01C0
01C0
0000
0000
0000
ENDCHAR

STARTCHAR jisx0208_224C
ENCODING 8780
SWIDTH 960 0
DWIDTH 16 0
BBX 16 16 0 -2
BITMAP
0000
0000
0000
0000
0000
0000
3FFE
0006
0006
0006
0000
0000
0000
0000
0000
0000
ENDCHAR

STARTCHAR jisx0208_224D
ENCODING 8781
SWIDTH 960 0
DWIDTH 16 0
BBX 16 16 0 -2
BITMAP
0000
0000
0000
0030
0018
000C
7FFE
0003
0003
7FFE
000C
0018
0030
0000
0000
0000
ENDCHAR

STARTCHAR jisx0208_224E
ENCODING 8782
SWIDTH 960 0
DWIDTH 16 0
BBX 16 16 0 -2
BITMAP
0000
0000
0000
0630
0C18
180C
3FFE
6003
6003
3FFE
180C
0C18
0630
0000
0000
0000
ENDCHAR

STARTCHAR jisx0208_224F
ENCODING 8783
SWIDTH 960 0
DWIDTH 16 0
BBX 16 16 0 -2
BITMAP
0000
0000
0000
180C
180C
0FF8
0C18
0630
0630
0360
0360
01C0
01C0
0000
0000
0000
ENDCHAR

STARTCHAR jisx0208_2250
ENCODING 8784
SWIDTH 960 0
DWIDTH 16 0
BBX 16 16 0 -2
BITMAP
0000
0000
0000
0FF8
0018
0018
0018
0FF8
0018
0018
0018
0018
0FF8
0000
0000
0000
ENDCHAR

STARTCHAR jisx0208_225C
ENCODING 8796
SWIDTH 960 0
DWIDTH 16 0
BBX 16 16 0 -2
BITMAP
0000
0000
0000
000C
0018
0030
0060
00C0
0180
0300
0600
0C00
1FFC
0000
0000
0000
ENDCHAR

STARTCHAR jisx0208_225D
ENCODING 8797
SWIDTH 960 0
DWIDTH 16 0
BBX 16 16 0 -2
BITMAP
0000
0000
0000
0180
0180
0180
0180
0180
0180
0180
0180
0180
3FFC
0000
0000
0000
ENDCHAR

STARTCHAR jisx0208_225E
ENCODING 8798
SWIDTH 960 0
DWIDTH 16 0
BBX 16 16 0 -2
BITMAP
0000
07F0
1C1C
3006
6003
0000
0000
0000
0000
0000
0000
0000
0000
0000
0000
0000
ENDCHAR

STARTCHAR jisx0208_225F
ENCODING 8799
SWIDTH 960 0
DWIDTH 16 0
BBX 16 16 0 -2
BITMAP
0000
0000
03C0
0660
0C30
0030
03B0
0670
0C30
0C30
0C30
0C30
0660
03C0
0000
0000
ENDCHAR

STARTCHAR jisx0208_2260
ENCODING 8800
SWIDTH 960 0
DWIDTH 16 0
BBX 16 16 0 -2
BITMAP
0000
0000
0000
3FFE
3FFE
180C
1C0C
0E18
0630
0730
0360
01C0
01C0
0000
0000
0000
ENDCHAR

STARTCHAR jisx0208_2261
ENCODING 8801
SWIDTH 960 0
DWIDTH 16 0
BBX 16 16 0 -2
BITMAP
0000
0000
0000
0000
1FFC
0000
0000
1FFC
0000
0000
1FFC
0000
0000
0000
0000
0000
ENDCHAR

STARTCHAR jisx0208_2262
ENCODING 8802
SWIDTH 960 0
DWIDTH 16 0
BBX 16 16 0 -2
BITMAP
0000
0000
0000
0700
0700
0000
1FFC
0000
0000
1FFC
0000
0070
0070
0000
0000
0000
ENDCHAR

STARTCHAR jisx0208_2263
ENCODING 8803
SWIDTH 960 0
DWIDTH 16 0
BBX 16 16 0 -2
BITMAP
0000
0000
0000
0198
0330
0660
0CC0
1980
1980
0CC0
0660
0330
0198
0000
0000
0000
ENDCHAR

STARTCHAR jisx0208_2264
ENCODING 8804
SWIDTH 960 0
DWIDTH 16 0
BBX 16 16 0 -2
BITMAP
0000
0000
0000
0CC0
0660
0330
0198
00CC
00CC
0198
0330
0660
0CC0
0000
0000
0000
ENDCHAR

STARTCHAR jisx0208_2265
ENCODING 8805
SWIDTH 960 0
DWIDTH 16 0
BBX 16 16 0 -2
BITMAP
0000
007F
00C0
00C0
00C0
0180
0180
0180
1B00
3B00
6B00
0E00
0600
0600
0000
0000
ENDCHAR

STARTCHAR jisx0208_2266
ENCODING 8806
SWIDTH 960 0
DWIDTH 16 0
BBX 16 16 0 -2
BITMAP
0000
0000
0000
0000
1E3C
3366
60C3
60C3
6183
3366
1E3C
0000
0000
0000
0000
0000
ENDCHAR

STARTCHAR jisx0208_2267
ENCODING 8807
SWIDTH 960 0
DWIDTH 16 0
BBX 16 16 0 -2
BITMAP
0000
0000
0000
0000
1E3C
3366
61C0
61C0
61C0
3366
1E3C
0000
0000
0000
0000
0000
ENDCHAR

STARTCHAR jisx0208_2268
ENCODING 8808
SWIDTH 960 0
DWIDTH 16 0
BBX 16 16 0 -2
BITMAP
0000
0000
0000
0000
1C1C
1C1C
0000
0000
0000
0000
0000
01C0
01C0
0000
0000
0000
ENDCHAR

STARTCHAR jisx0208_2269
ENCODING 8809
SWIDTH 960 0
DWIDTH 16 0
BBX 16 16 0 -2
BITMAP
0000
00E0
01B0
0170
0180
0180
0180
0180
00C0
00C0
00C0
00C0
06C0
06C0
0380
0000
ENDCHAR

STARTCHAR jisx0208_226A
ENCODING 8810
SWIDTH 960 0
DWIDTH 16 0
BBX 16 16 0 -2
BITMAP
0000
0738
0D6C
0B5C
0C60
0C60
0C60
0C60
0630
0630
0630
0630
35B0
35B0
1CE0
0000
ENDCHAR

STARTCHAR jisx0208_2272
ENCODING 8818
SWIDTH 960 0
DWIDTH 16 0
BBX 16 16 0 -2
BITMAP
0000
01C0
0360
0360
01C0
01C0
0360
0360
0630
0630
0FF8
0C18
180C
3C1E
0000
0000
ENDCHAR

STARTCHAR jisx0208_2273
ENCODING 8819
SWIDTH 960 0
DWIDTH 16 0
BBX 16 16 0 -2
BITMAP
0000
0000
38C0
6CC0
6D80
6B00
6B00
3600
05CE
0B5B
0B5B
1B5B
335B
31CE
0000
0000
ENDCHAR

STARTCHAR jisx0208_2274
ENCODING 8820
SWIDTH 960 0
DWIDTH 16 0
BBX 16 16 0 -2
BITMAP
0000
0000
0030
0630
063C
07F0
1E30
0630
0630
063C
07F0
1E30
0630
0600
0000
0000
ENDCHAR

STARTCHAR jisx0208_2275
ENCODING 8821
SWIDTH 960 0
DWIDTH 16 0
BBX 16 16 0 -2
BITMAP
0000
0000
0600
0600
0600
0600
05E0
0730
0630
0630
0660
06C0
0580
0700
0000
0000
ENDCHAR

STARTCHAR jisx0208_2276
ENCODING 8822
SWIDTH 960 0
DWIDTH 16 0
BBX 16 16 0 -2
BITMAP
0000
0000
0180
01C0
0160
01B0
0198
0198
0198
01B0
0160
0780
0F80
0F00
0000
0000
ENDCHAR

STARTCHAR jisx0208_2277
ENCODING 8823
SWIDTH 960 0
DWIDTH 16 0
BBX 16 16 0 -2
BITMAP
0000
0180
03C0
0180
0FF0
0180
0180
03C0
0180
0180
0180
0180
0180
0180
03C0
0000
ENDCHAR

STARTCHAR jisx0208_2278
ENCODING 8824
SWIDTH 960 0
DWIDTH 16 0
BBX 16 16 0 -2
BITMAP
0000
0180
03C0
0180
0FF0
0180
03C0
0180
0180
03C0
0180
0FF0
0180
03C0
0180
0000
ENDCHAR

STARTCHAR jisx0208_2279
ENCODING 8825
SWIDTH 960 0
DWIDTH 16 0
BBX 16 16 0 -2
BITMAP
0000
07F8
0FB0
0FB0
0FB0
0FB0
07B0
01B0
01B0
01B0
01B0
01B0
01B0
01B0
01B0
0000
ENDCHAR

STARTCHAR jisx0208_227E
ENCODING 8830
SWIDTH 960 0
DWIDTH 16 0
BBX 16 16 0 -2
BITMAP
0000
07F0
1C1C
3006
3006
6003
6003
6003
6003
6003
6003
3006
3006
1C1C
07F0
0000
ENDCHAR

STARTCHAR jisx0208_2330
ENCODING 9008
SWIDTH 960 0
DWIDTH 16 0
BBX 16 16 0 -2
BITMAP
0000
0000
07E0
0C30
1818
1818
1818
1818
1818
1818
1818
1818
0C30
07E0
0000
0000
ENDCHAR

STARTCHAR jisx0208_2331
ENCODING 9009
SWIDTH 960 0
DWIDTH 16 0
BBX 16 16 0 -2
BITMAP
0000
0000
0180
0380
0580
0D80
0180
0180
0180
0180
0180
0180
0180
0FF0
0000
0000
ENDCHAR

STARTCHAR jisx0208_2332
ENCODING 9010
SWIDTH 960 0
DWIDTH 16 0
BBX 16 16 0 -2
BITMAP
0000
0000
07E0
0C30
1818
1C18
0018
0070
01C0
0700
0C00
1818
1818
1FF8
0000
0000
ENDCHAR

STARTCHAR jisx0208_2333
ENCODING 9011
SWIDTH 960 0
DWIDTH 16 0
BBX 16 16 0 -2
BITMAP
0000
0000
07F0
0C18
0E18
0018
0018
03F0
0018
000C
1C0C
180C
0C18
07F0
0000
0000
ENDCHAR

STARTCHAR jisx0208_2334
ENCODING 9012
SWIDTH 960 0
DWIDTH 16 0
BBX 16 16 0 -2
BITMAP
0000
0000
0030
0070
00B0
00B0
01B0
0330
0630
0630
0C2C
1FFC
0030
0078
0000
0000
ENDCHAR

STARTCHAR jisx0208_2335
ENCODING 9013
SWIDTH 960 0
DWIDTH 16 0
BBX 16 16 0 -2
BITMAP
0000
0000
1FF0
1800
1800
1800
17E0
1C30
1818
0018
1C18
1818
0C30
07E0
0000
0000
ENDCHAR

STARTCHAR jisx0208_2336
ENCODING 9014
SWIDTH 960 0
DWIDTH 16 0
BBX 16 16 0 -2
BITMAP
0000
0000
07E0
0C30
1838
1800
17E0
1C30
1818
1818
1818
1818
0C30
07E0
0000
0000
ENDCHAR

STARTCHAR jisx0208_2337
ENCODING 9015
SWIDTH 960 0
DWIDTH 16 0
BBX 16 16 0 -2
BITMAP
0000
0000
1FF8
1818
1830
0060
0060
00C0
00C0
00C0
0180
0180
0180
0180
0000
0000
ENDCHAR

STARTCHAR jisx0208_2338
ENCODING 9016
SWIDTH 960 0
DWIDTH 16 0
BBX 16 16 0 -2
BITMAP
0000
0000
07F0
0C18
0C18
0C18
0C18
07F0
0C18
180C
180C
180C
0C18
07F0
0000
0000
ENDCHAR

STARTCHAR jisx0208_2339
ENCODING 9017
SWIDTH 960 0
DWIDTH 16 0
BBX 16 16 0 -2
BITMAP
0000
0000
07E0
0C30
1818
1818
1818
1818
0C38
07D8
0018
1C18
0C30
07E0
0000
0000
ENDCHAR

STARTCHAR jisx0208_2341
ENCODING 9025
SWIDTH 960 0
DWIDTH 16 0
BBX 16 16 0 -2
BITMAP
0000
0000
01C0
01C0
0360
0360
0630
0630
0630
0C18
0FF8
180C
180C
3C1E
0000
0000
ENDCHAR

STARTCHAR jisx0208_2342
ENCODING 9026
SWIDTH 960 0
DWIDTH 16 0
BBX 16 16 0 -2
BITMAP
0000
0000
1FE0
0C30
0C18
0C18
0C30
0FF0
0C18
0C0C
0C0C
0C0C
0C18
1FF0
0000
0000
ENDCHAR

STARTCHAR jisx0208_2343
ENCODING 9027
SWIDTH 960 0
DWIDTH 16 0
BBX 16 16 0 -2
BITMAP
0000
0000
03D8
0E38
0C0C
180C
1800
1800
1800
1800
180C
0C18
0E38
03E0
0000
0000
ENDCHAR

STARTCHAR jisx0208_2344
ENCODING 9028
SWIDTH 960 0
DWIDTH 16 0
BBX 16 16 0 -2
BITMAP
0000
0000
1FE0
0C38
0C18
0C0C
0C0C
0C0C
0C0C
0C0C
0C0C
0C18
0C38
1FE0
0000
0000
ENDCHAR

STARTCHAR jisx0208_2345
ENCODING 9029
SWIDTH 960 0
DWIDTH 16 0
BBX 16 16 0 -2
BITMAP
0000
0000
1FF0
0C30
0C18
0C00
0C60
0FE0
0C60
0C00
0C00
0C0C
0C18
1FF8
0000
0000
ENDCHAR

STARTCHAR jisx0208_2346
ENCODING 9030
SWIDTH 960 0
DWIDTH 16 0
BBX 16 16 0 -2
BITMAP
0000
0000
1FF8
0C18
0C0C
0C00
0C60
0FE0
0C60
0C00
0C00
0C00
0C00
1E00
0000
0000
ENDCHAR

STARTCHAR jisx0208_2347
ENCODING 9031
SWIDTH 960 0
DWIDTH 16 0
BBX 16 16 0 -2
BITMAP
0000
0000
03D8
0E38
0C0C
180C
1800
1800
18FE
180C
180C
0C1C
0E3C
03EC
0000
0000
ENDCHAR

STARTCHAR jisx0208_2348
ENCODING 9032
SWIDTH 960 0
DWIDTH 16 0
BBX 16 16 0 -2
BITMAP
0000
0000
3C3C
1818
1818
1818
1818
1FF8
1818
1818
1818
1818
1818
3C3C
0000
0000
ENDCHAR

STARTCHAR jisx0208_2349
ENCODING 9033
SWIDTH 960 0
DWIDTH 16 0
BBX 16 16 0 -2
BITMAP
0000
0000
03C0
0180
0180
0180
0180
0180
0180
0180
0180
0180
0180
03C0
0000
0000
ENDCHAR

STARTCHAR jisx0208_234A
ENCODING 9034
SWIDTH 960 0
DWIDTH 16 0
BBX 16 16 0 -2
BITMAP
0000
0000
00F0
0060
0060
0060
0060
0060
0060
0060
0060
0E60
0C60
07C0
0000
0000
ENDCHAR

STARTCHAR jisx0208_234B
ENCODING 9035
SWIDTH 960 0
DWIDTH 16 0
BBX 16 16 0 -2
BITMAP
0000
0000
1E7C
0C30
0C60
0CC0
0D80
0AC0
0E60
0C60
0C30
0C18
0C18
1E3E
0000
0000
ENDCHAR

STARTCHAR jisx0208_234C
ENCODING 9036
SWIDTH 960 0
DWIDTH 16 0
BBX 16 16 0 -2
BITMAP
0000
0000
1E00
0C00
0C00
0C00
0C00
0C00
0C00
0C00
0C00
0C0C
0C18
1FF8
0000
0000
ENDCHAR

STARTCHAR jisx0208_234D
ENCODING 9037
SWIDTH 960 0
DWIDTH 16 0
BBX 16 16 0 -2
BITMAP
0000
0000
3C1E
1C1C
1C1C
162C
162C
162C
1B6C
1B6C
1B6C
19CC
19CC
3DDE
0000
0000
ENDCHAR

STARTCHAR jisx0208_234E
ENCODING 9038
SWIDTH 960 0
DWIDTH 16 0
BBX 16 16 0 -2
BITMAP
0000
0000
383C
1C18
1C18
1618
1B18
1998
1998
18D8
1858
1838
1838
3C18
0000
0000
ENDCHAR

STARTCHAR jisx0208_234F
ENCODING 9039
SWIDTH 960 0
DWIDTH 16 0
BBX 16 16 0 -2
BITMAP
0000
0000
03E0
0E38
0C18
180C
180C
180C
180C
180C
180C
0C18
0E38
03E0
0000
0000
ENDCHAR

STARTCHAR jisx0208_2350
ENCODING 9040
SWIDTH 960 0
DWIDTH 16 0
BBX 16 16 0 -2
BITMAP
0000
0000
1FE0
0C30
0C18
0C18
0C18
0C30
0FE0
0C00
0C00
0C00
0C00
1E00
0000
0000
ENDCHAR

STARTCHAR jisx0208_2351
ENCODING 9041
SWIDTH 960 0
DWIDTH 16 0
BBX 16 16 0 -2
BITMAP
0000
0000
03E0
0E38
0C18
180C
180C
180C
180C
180C
19CC
0B58
0E36
03DC
0000
0000
ENDCHAR

STARTCHAR jisx0208_2352
ENCODING 9042
SWIDTH 960 0
DWIDTH 16 0
BBX 16 16 0 -2
BITMAP
0000
0000
1FE0
0C30
0C18
0C18
0C18
0C30
0FE0
0C30
0C30
0C30
0C36
1E1C
0000
0000
ENDCHAR

STARTCHAR jisx0208_2353
ENCODING 9043
SWIDTH 960 0
DWIDTH 16 0
BBX 16 16 0 -2
BITMAP
0000
0000
07D8
0C38
1818
1818
0C00
0780
00F0
0018
180C
180C
1C18
17F0
0000
0000
ENDCHAR

STARTCHAR jisx0208_2354
ENCODING 9044
SWIDTH 960 0
DWIDTH 16 0
BBX 16 16 0 -2
BITMAP
0000
0000
1FF8
1998
318C
0180
0180
0180
0180
0180
0180
0180
0180
03C0
0000
0000
ENDCHAR

STARTCHAR jisx0208_2355
ENCODING 9045
SWIDTH 960 0
DWIDTH 16 0
BBX 16 16 0 -2
BITMAP
0000
0000
3C3C
1818
1818
1818
1818
1818
1818
1818
1818
1818
0C30
07E0
0000
0000
ENDCHAR

STARTCHAR jisx0208_2356
ENCODING 9046
SWIDTH 960 0
DWIDTH 16 0
BBX 16 16 0 -2
BITMAP
0000
0000
3C1E
180C
180C
0C18
0C18
0630
0630
0630
0360
0360
01C0
01C0
0000
0000
ENDCHAR

STARTCHAR jisx0208_2357
ENCODING 9047
SWIDTH 960 0
DWIDTH 16 0
BBX 16 16 0 -2
BITMAP
0000
0000
799E
318C
318C
32CC
32CC
1AD8
1658
1658
1658
0C30
0C30
0C30
0000
0000
ENDCHAR

STARTCHAR jisx0208_2358
ENCODING 9048
SWIDTH 960 0
DWIDTH 16 0
BBX 16 16 0 -2
BITMAP
0000
0000
1E3C
0C18
0630
0360
0360
01C0
01C0
0360
0360
0630
0C18
1E3C
0000
0000
ENDCHAR

STARTCHAR jisx0208_2359
ENCODING 9049
SWIDTH 960 0
DWIDTH 16 0
BBX 16 16 0 -2
BITMAP
0000
0000
3C3C
1818
0C30
0C30
0660
02C0
02C0
0180
0180
0180
0180
03C0
0000
0000
ENDCHAR

STARTCHAR jisx0208_235A
ENCODING 9050
SWIDTH 960 0
DWIDTH 16 0
BBX 16 16 0 -2
BITMAP
0000
0000
07FC
0618
0C30
0060
0060
00C0
0180
0300
0300
060C
0C18
1FF8
0000
0000
ENDCHAR

STARTCHAR jisx0208_2361
ENCODING 9057
SWIDTH 960 0
DWIDTH 16 0
BBX 16 16 0 -2
BITMAP
0000
0000
0000
0000
0000
0000
07E0
0E30
0030
03F0
0630
0C30
0C70
07B8
0000
0000
ENDCHAR

STARTCHAR jisx0208_2362
ENCODING 9058
SWIDTH 960 0
DWIDTH 16 0
BBX 16 16 0 -2
BITMAP
0000
0000
0E00
0600
0600
0600
05F0
0718
0618
0618
0618
0618
0718
0DF0
0000
0000
ENDCHAR

STARTCHAR jisx0208_2363
ENCODING 9059
SWIDTH 960 0
DWIDTH 16 0
BBX 16 16 0 -2
BITMAP
0000
0000
0000
0000
0000
0000
07E0
0C30
0C70
0C00
0C00
0C30
0C30
07E0
0000
0000
ENDCHAR

STARTCHAR jisx0208_2364
ENCODING 9060
SWIDTH 960 0
DWIDTH 16 0
BBX 16 16 0 -2
BITMAP
0000
0000
0070
0030
0030
0030
07B0
0C70
0C30
0C30
0C30
0C30
0C70
07B8
0000
0000
ENDCHAR

STARTCHAR jisx0208_2365
ENCODING 9061
SWIDTH 960 0
DWIDTH 16 0
BBX 16 16 0 -2
BITMAP
0000
0000
0000
0000
0000
0000
07E0
0C30
0C30
0FF0
0C00
0C30
0C30
07E0
0000
0000
ENDCHAR

STARTCHAR jisx0208_2366
ENCODING 9062
SWIDTH 960 0
DWIDTH 16 0
BBX 16 16 0 -2
BITMAP
0000
0000
00E0
0170
0180
0180
07E0
0180
0180
0180
0180
0180
0180
03C0
0000
0000
ENDCHAR

STARTCHAR jisx0208_2367
ENCODING 9063
SWIDTH 960 0
DWIDTH 16 0
BBX 16 16 0 -2
BITMAP
0000
0000
0000
0000
0000
0000
03B8
0658
0660
0660
03C0
0600
07E0
0C30
07E0
0000
ENDCHAR

STARTCHAR jisx0208_2368
ENCODING 9064
SWIDTH 960 0
DWIDTH 16 0
BBX 16 16 0 -2
BITMAP
0000
0000
1C00
0C00
0C00
0C00
0BE0
0E30
0C30
0C30
0C30
0C30
0C30
1E78
0000
0000
ENDCHAR

STARTCHAR jisx0208_2369
ENCODING 9065
SWIDTH 960 0
DWIDTH 16 0
BBX 16 16 0 -2
BITMAP
0000
0000
00C0
00C0
0000
0000
01C0
00C0
00C0
00C0
00C0
00C0
00C0
01E0
0000
0000
ENDCHAR

STARTCHAR jisx0208_236A
ENCODING 9066
SWIDTH 960 0
DWIDTH 16 0
BBX 16 16 0 -2
BITMAP
0000
0000
00C0
00C0
0000
0000
01C0
00C0
00C0
00C0
00C0
00C0
06C0
06C0
0380
0000
ENDCHAR

STARTCHAR jisx0208_236B
ENCODING 9067
SWIDTH 960 0
DWIDTH 16 0
BBX 16 16 0 -2
BITMAP
0000
0000
0E00
0600
0600
0600
06F0
0660
06C0
05C0
0760
0660
0630
0F78
0000
0000
ENDCHAR

STARTCHAR jisx0208_236C
ENCODING 9068
SWIDTH 960 0
DWIDTH 16 0
BBX 16 16 0 -2
BITMAP
0000
0000
0380
0180
0180
0180
0180
0180
0180
0180
0180
0180
0180
03C0
0000
0000
ENDCHAR

STARTCHAR jisx0208_236D
ENCODING 9069
SWIDTH 960 0
DWIDTH 16 0
BBX 16 16 0 -2
BITMAP
0000
0000
0000
0000
0000
0000
3770
1DD8
1998
1998
1998
1998
1998
3BBC
0000
0000
ENDCHAR

STARTCHAR jisx0208_236E
ENCODING 9070
SWIDTH 960 0
DWIDTH 16 0
BBX 16 16 0 -2
BITMAP
0000
0000
0000
0000
0000
0000
1BE0
0E30
0C30
0C30
0C30
0C30
0C30
1E78
0000
0000
ENDCHAR

STARTCHAR jisx0208_236F
ENCODING 9071
SWIDTH 960 0
DWIDTH 16 0
BBX 16 16 0 -2
BITMAP
0000
0000
0000
0000
0000
0000
07E0
0C30
0C30
0C30
0C30
0C30
0C30
07E0
0000
0000
ENDCHAR

STARTCHAR jisx0208_2370
ENCODING 9072
SWIDTH 960 0
DWIDTH 16 0
BBX 16 16 0 -2
BITMAP
0000
0000
0000
0000
0000
0000
0DF0
0718
0618
0618
0618
0718
05F0
0600
0F00
0000
ENDCHAR

STARTCHAR jisx0208_2371
ENCODING 9073
SWIDTH 960 0
DWIDTH 16 0
BBX 16 16 0 -2
BITMAP
0000
0000
0000
0000
0000
0000
07B0
0C70
0C30
0C30
0C30
0C70
07B0
0030
0078
0000
ENDCHAR

STARTCHAR jisx0208_2372
ENCODING 9074
SWIDTH 960 0
DWIDTH 16 0
BBX 16 16 0 -2
BITMAP
0000
0000
0000
0000
0000
0000
06F0
03B0
0300
0300
0300
0300
0300
0780
0000
0000
ENDCHAR

STARTCHAR jisx0208_2373
ENCODING 9075
SWIDTH 960 0
DWIDTH 16 0
BBX 16 16 0 -2
BITMAP
0000
0000
0000
0000
0000
0000
07B0
0C70
0C30
0780
00E0
0C30
0E30
0BE0
0000
0000
ENDCHAR

STARTCHAR jisx0208_2374
ENCODING 9076
SWIDTH 960 0
DWIDTH 16 0
BBX 16 16 0 -2
BITMAP
0000
0000
0180
0180
0180
0180
07E0
0180
0180
0180
0180
0180
01B0
00E0
0000
0000
ENDCHAR

STARTCHAR jisx0208_2375
ENCODING 9077
SWIDTH 960 0
DWIDTH 16 0
BBX 16 16 0 -2
BITMAP
0000
0000
0000
0000
0000
0000
1C70
0C30
0C30
0C30
0C30
0C30
0C70
07B8
0000
0000
ENDCHAR

STARTCHAR jisx0208_2376
ENCODING 9078
SWIDTH 960 0
DWIDTH 16 0
BBX 16 16 0 -2
BITMAP
0000
0000
0000
0000
0000
0000
1E78
0C30
0660
0660
02C0
02C0
0180
0180
0000
0000
ENDCHAR

STARTCHAR jisx0208_2377
ENCODING 9079
SWIDTH 960 0
DWIDTH 16 0
BBX 16 16 0 -2
BITMAP
0000
0000
0000
0000
0000
0000
3DDE
19CC
19CC
0B58
0B58
0B58
0630
0630
0000
0000
ENDCHAR

STARTCHAR jisx0208_2378
ENCODING 9080
SWIDTH 960 0
DWIDTH 16 0
BBX 16 16 0 -2
BITMAP
0000
0000
0000
0000
0000
0000
0F78
0630
0360
01C0
01C0
0360
0630
0F78
0000
0000
ENDCHAR

STARTCHAR jisx0208_2379
ENCODING 9081
SWIDTH 960 0
DWIDTH 16 0
BBX 16 16 0 -2
BITMAP
0000
0000
0000
0000
0000
0000
0F78
0630
0660
0360
02C0
01C0
0180
0D80
0700
0000
ENDCHAR

STARTCHAR jisx0208_237A
ENCODING 9082
SWIDTH 960 0
DWIDTH 16 0
BBX 16 16 0 -2
BITMAP
0000
0000
0000
0000
0000
0000
07F0
0630
0060
00C0
0180
0300
0630
07F0
0000
0000
ENDCHAR

STARTCHAR jisx0208_2421
ENCODING 9249
SWIDTH 960 0
DWIDTH 16 0
BBX 16 16 0 -2
BITMAP
0000
0000
0000
0000
0380
0180
0FF0
0300
03F0
0758
0ACC
1ACC
198C
0F18
0070
0000
ENDCHAR

STARTCHAR jisx0208_2422
ENCODING 9250
SWIDTH 960 0
DWIDTH 16 0
BBX 16 16 0 -2
BITMAP
0000
0700
0300
0370
1FC0
0600
07F0
0E5C
16CC
36C6
6586
6306
670C
3C18
00F0
0000
ENDCHAR

STARTCHAR jisx0208_2423
ENCODING 9251
SWIDTH 960 0
DWIDTH 16 0
BBX 16 16 0 -2
BITMAP
0000
0000
0000
0000
0000
1800
0C30
0C18
180C
180C
1B3C
160C
0E00
0600
0000
0000
ENDCHAR

STARTCHAR jisx0208_2424
ENCODING 9252
SWIDTH 960 0
DWIDTH 16 0
BBX 16 16 0 -2
BITMAP
0000
0000
0000
3000
1818
180C
3006
3006
3003
3003
331F
3603
1600
1C00
0C00
0000
ENDCHAR

STARTCHAR jisx0208_2425
ENCODING 9253
SWIDTH 960 0
DWIDTH 16 0
BBX 16 16 0 -2
BITMAP
0000
0000
0000
0000
0300
01E0
0000
0DF0
0718
0018
0018
0018
0030
0060
01C0
0000
ENDCHAR

STARTCHAR jisx0208_2426
ENCODING 9254
SWIDTH 960 0
DWIDTH 16 0
BBX 16 16 0 -2
BITMAP
0000
0000
0700
01F0
0300
01F0
3718
1C0C
000C
000C
000C
0018
0030
00E0
0780
0000
ENDCHAR

STARTCHAR jisx0208_2427
ENCODING 9255
SWIDTH 960 0
DWIDTH 16 0
BBX 16 16 0 -2
BITMAP
0000
0000
0000
0000
0300
01E0
0000
0DF0
0760
00C0
0180
03C0
06C0
0CC0
187C
0000
ENDCHAR

STARTCHAR jisx0208_2428
ENCODING 9256
SWIDTH 960 0
DWIDTH 16 0
BBX 16 16 0 -2
BITMAP
0000
0000
0700
01E0
0300
0000
1BF0
1E60
00C0
0180
03C0
06C0
0CC0
18C0
307E
0000
ENDCHAR

STARTCHAR jisx0208_2429
ENCODING 9257
SWIDTH 960 0
DWIDTH 16 0
BBX 16 16 0 -2
BITMAP
0000
0000
0000
0000
0000
0E00
0670
1F98
0600
05F0
0718
1E18
1618
0D98
06F0
0000
ENDCHAR

STARTCHAR jisx0208_242A
ENCODING 9258
SWIDTH 960 0
DWIDTH 16 0
BBX 16 16 0 -2
BITMAP
0000
0000
0E00
0600
0638
07CC
3E16
0600
06F8
078C
0606
2E06
3606
0ECC
0678
0000
ENDCHAR

STARTCHAR jisx0208_242B
ENCODING 9259
SWIDTH 960 0
DWIDTH 16 0
BBX 16 16 0 -2
BITMAP
0000
0000
0C00
0600
0618
67CC
7C66
0C63
1863
1863
186F
30C3
36C0
6380
6300
0000
ENDCHAR

STARTCHAR jisx0208_242C
ENCODING 9260
SWIDTH 960 0
DWIDTH 16 0
BBX 16 16 0 -2
BITMAP
0000
0016
0C0B
0600
0618
67CC
7C66
0C63
1863
1863
186F
30C3
36C0
6380
6300
0000
ENDCHAR

STARTCHAR jisx0208_242D
ENCODING 9261
SWIDTH 960 0
DWIDTH 16 0
BBX 16 16 0 -2
BITMAP
0000
0000
01E0
185C
0FF0
0060
182E
0FF8
0030
07D8
0C3C
180C
1800
0C00
07F8
0000
ENDCHAR

STARTCHAR jisx0208_242E
ENCODING 9262
SWIDTH 960 0
DWIDTH 16 0
BBX 16 16 0 -2
BITMAP
0000
0016
01EB
185C
0FF0
0060
182E
0FF8
0030
07D8
0C3C
180C
1800
0C00
07F8
0000
ENDCHAR

STARTCHAR jisx0208_242F
ENCODING 9263
SWIDTH 960 0
DWIDTH 16 0
BBX 16 16 0 -2
BITMAP
0000
0000
00E0
0060
00C0
0180
0300
0600
0600
0300
0180
00C0
0060
0030
0030
0000
ENDCHAR

STARTCHAR jisx0208_2430
ENCODING 9264
SWIDTH 960 0
DWIDTH 16 0
BBX 16 16 0 -2
BITMAP
0000
0000
00E0
0060
00CC
01B6
0318
0600
0600
0300
0180
00C0
0060
0030
0030
0000
ENDCHAR

STARTCHAR jisx0208_2431
ENCODING 9265
SWIDTH 960 0
DWIDTH 16 0
BBX 16 16 0 -2
BITMAP
0000
0000
3038
1818
1818
3317
31FC
3018
3018
2C18
2C18
3818
1830
1860
01C0
0000
ENDCHAR

STARTCHAR jisx0208_2432
ENCODING 9266
SWIDTH 960 0
DWIDTH 16 0
BBX 16 16 0 -2
BITMAP
0000
0006
303B
1816
181B
3317
31FC
3018
3018
2C18
2C18
3818
1830
1860
01C0
0000
ENDCHAR

STARTCHAR jisx0208_2433
ENCODING 9267
SWIDTH 960 0
DWIDTH 16 0
BBX 16 16 0 -2
BITMAP
0000
0000
0C00
07F0
0300
0600
0000
0000
0000
0000
1800
1800
0C18
07FC
0000
0000
ENDCHAR

STARTCHAR jisx0208_2434
ENCODING 9268
SWIDTH 960 0
DWIDTH 16 0
BBX 16 16 0 -2
BITMAP
0000
0016
0C0B
07F0
0300
0600
0000
0000
0000
0000
1800
1800
0C18
07FC
0000
0000
ENDCHAR

STARTCHAR jisx0208_2435
ENCODING 9269
SWIDTH 960 0
DWIDTH 16 0
BBX 16 16 0 -2
BITMAP
0000
0000
01E0
0060
305E
1FF0
0030
0030
0018
07D8
0C3C
180C
1800
0C00
07F8
0000
ENDCHAR

STARTCHAR jisx0208_2436
ENCODING 9270
SWIDTH 960 0
DWIDTH 16 0
BBX 16 16 0 -2
BITMAP
0000
0016
01EB
0060
305E
1FF0
0030
0030
0018
07D8
0C3C
180C
1800
0C00
07F8
0000
ENDCHAR

STARTCHAR jisx0208_2437
ENCODING 9271
SWIDTH 960 0
DWIDTH 16 0
BBX 16 16 0 -2
BITMAP
0000
0000
1800
0C00
0C00
0C00
0C00
1800
1800
1800
180C
180C
1818
0C70
07C0
0000
ENDCHAR

STARTCHAR jisx0208_2438
ENCODING 9272
SWIDTH 960 0
DWIDTH 16 0
BBX 16 16 0 -2
BITMAP
0000
0000
1800
0C58
0C2C
0C00
0C00
1800
1800
1800
180C
180C
1818
0C70
07C0
0000
ENDCHAR

STARTCHAR jisx0208_2439
ENCODING 9273
SWIDTH 960 0
DWIDTH 16 0
BBX 16 16 0 -2
BITMAP
0000
00E0
0060
0060
67FF
3C60
0060
03E0
0660
0660
0660
03E0
0060
00C0
0780
0000
ENDCHAR

STARTCHAR jisx0208_243A
ENCODING 9274
SWIDTH 960 0
DWIDTH 16 0
BBX 16 16 0 -2
BITMAP
0000
00D6
006B
0060
67FF
3C60
0060
03E0
0660
0660
0660
03E0
0060
00C0
0780
0000
ENDCHAR

STARTCHAR jisx0208_243B
ENCODING 9275
SWIDTH 960 0
DWIDTH 16 0
BBX 16 16 0 -2
BITMAP
0000
0000
0038
1C18
0C18
0C18
6BFF
3E18
0C18
0CD8
0C78
0C30
0C00
0C18
07FC
0000
ENDCHAR

STARTCHAR jisx0208_243C
ENCODING 9276
SWIDTH 960 0
DWIDTH 16 0
BBX 16 16 0 -2
BITMAP
0000
0006
003B
1C16
0C1B
0C18
6BFF
3E18
0C18
0CD8
0C78
0C30
0C00
0C18
07FC
0000
ENDCHAR

STARTCHAR jisx0208_243D
ENCODING 9277
SWIDTH 960 0
DWIDTH 16 0
BBX 16 16 0 -2
BITMAP
0000
0000
0DF0
0F60
00C0
0380
0600
1BFE
7EC0
0180
0300
0300
0300
0180
00F0
0000
ENDCHAR

STARTCHAR jisx0208_243E
ENCODING 9278
SWIDTH 960 0
DWIDTH 16 0
BBX 16 16 0 -2
BITMAP
0000
0006
0DF3
0F6C
00C6
0380
0600
1BFE
7EC0
0180
0300
0300
0300
0180
00F0
0000
ENDCHAR

STARTCHAR jisx0208_243F
ENCODING 9279
SWIDTH 960 0
DWIDTH 16 0
BBX 16 16 0 -2
BITMAP
0000
0000
1C00
0C00
0F80
7C00
1800
19FC
1860
30C0
3000
3000
6300
6300
61FE
0000
ENDCHAR

STARTCHAR jisx0208_2440
ENCODING 9280
SWIDTH 960 0
DWIDTH 16 0
BBX 16 16 0 -2
BITMAP
0000
0000
1C06
0C1B
0F8C
7C00
1800
19FC
1860
30C0
3000
3000
6300
6300
61FE
0000
ENDCHAR

STARTCHAR jisx0208_2441
ENCODING 9281
SWIDTH 960 0
DWIDTH 16 0
BBX 16 16 0 -2
BITMAP
0000
0E00
0600
3670
1FC0
0C00
0C00
0DF0
1718
1C0C
180C
000C
0018
0070
03C0
0000
ENDCHAR

STARTCHAR jisx0208_2442
ENCODING 9282
SWIDTH 960 0
DWIDTH 16 0
BBX 16 16 0 -2
BITMAP
0000
0E16
060B
3670
1FC0
0C00
0C00
0DF0
1718
1C0C
180C
000C
0018
0070
03C0
0000
ENDCHAR

STARTCHAR jisx0208_2443
ENCODING 9283
SWIDTH 960 0
DWIDTH 16 0
BBX 16 16 0 -2
BITMAP
0000
0000
0000
0000
0000
0000
01F0
3718
3C0C
000C
000C
0018
0070
03C0
0000
0000
ENDCHAR

STARTCHAR jisx0208_2444
ENCODING 9284
SWIDTH 960 0
DWIDTH 16 0
BBX 16 16 0 -2
BITMAP
0000
0000
0000
0000
00F8
678C
3C06
0006
0006
0006
0006
000C
0038
03E0
0000
0000
ENDCHAR

STARTCHAR jisx0208_2445
ENCODING 9285
SWIDTH 960 0
DWIDTH 16 0
BBX 16 16 0 -2
BITMAP
0000
0006
001B
000C
00F8
678C
3C06
0006
0006
0006
0006
000C
0038
03E0
0000
0000
ENDCHAR

STARTCHAR jisx0208_2446
ENCODING 9286
SWIDTH 960 0
DWIDTH 16 0
BBX 16 16 0 -2
BITMAP
0000
0000
0000
00FE
6FC0
3980
0300
0300
0600
0600
0600
0600
0600
0300
01F0
0000
ENDCHAR

STARTCHAR jisx0208_2447
ENCODING 9287
SWIDTH 960 0
DWIDTH 16 0
BBX 16 16 0 -2
BITMAP
0000
0000
0000
00FE
6FC0
398C
0306
0318
060C
0600
0600
0600
0600
0300
01F0
0000
ENDCHAR

STARTCHAR jisx0208_2448
ENCODING 9288
SWIDTH 960 0
DWIDTH 16 0
BBX 16 16 0 -2
BITMAP
0000
0600
0300
0300
0300
030C
033C
01E0
0700
0C00
1800
1800
1800
0C00
07FC
0000
ENDCHAR

STARTCHAR jisx0208_2449
ENCODING 9289
SWIDTH 960 0
DWIDTH 16 0
BBX 16 16 0 -2
BITMAP
0000
0600
0316
030B
0300
030C
033C
01E0
0700
0C00
1800
1800
1800
0C00
07FC
0000
ENDCHAR

STARTCHAR jisx0208_244A
ENCODING 9290
SWIDTH 960 0
DWIDTH 16 0
BBX 16 16 0 -2
BITMAP
0000
0000
1C00
0C00
0B80
7E3C
1806
181E
3030
3030
3030
63F0
6638
032C
01E6
0000
ENDCHAR

STARTCHAR jisx0208_244B
ENCODING 9291
SWIDTH 960 0
DWIDTH 16 0
BBX 16 16 0 -2
BITMAP
0000
0000
3000
1980
18FE
1860
30C0
3000
3000
3000
2D80
2D80
3980
18FE
1800
0000
ENDCHAR

STARTCHAR jisx0208_244C
ENCODING 9292
SWIDTH 960 0
DWIDTH 16 0
BBX 16 16 0 -2
BITMAP
0000
0000
01C0
00C0
38C0
17F8
1D8C
1986
3986
2B06
6B06
6676
66CC
6CCE
387B
0000
ENDCHAR

STARTCHAR jisx0208_244D
ENCODING 9293
SWIDTH 960 0
DWIDTH 16 0
BBX 16 16 0 -2
BITMAP
0000
0000
1C00
0C00
6CF8
7D8C
0B06
0E06
1C06
1C06
2C76
6CCE
5CCE
0C7B
0C00
0000
ENDCHAR

STARTCHAR jisx0208_244E
ENCODING 9294
SWIDTH 960 0
DWIDTH 16 0
BBX 16 16 0 -2
BITMAP
0000
0000
0000
07E0
1DB8
318C
318C
6186
6306
6306
6306
660C
360C
1C38
00E0
0000
ENDCHAR

STARTCHAR jisx0208_244F
ENCODING 9295
SWIDTH 960 0
DWIDTH 16 0
BBX 16 16 0 -2
BITMAP
0000
0000
3038
1818
1B17
19FC
3018
3018
3018
3018
2C18
2DF8
3B1C
1B16
19F3
0000
ENDCHAR

STARTCHAR jisx0208_2450
ENCODING 9296
SWIDTH 960 0
DWIDTH 16 0
BBX 16 16 0 -2
BITMAP
0000
0016
300B
1818
1B17
19FC
3018
3018
3018
3018
2C18
2DF8
3B1C
1B16
19F3
0000
ENDCHAR

STARTCHAR jisx0208_2451
ENCODING 9297
SWIDTH 960 0
DWIDTH 16 0
BBX 16 16 0 -2
BITMAP
0000
000E
303B
181B
1B1F
19FC
3018
3018
3018
3018
2C18
2DF8
3B1C
1B16
19F3
0000
ENDCHAR

STARTCHAR jisx0208_2452
ENCODING 9298
SWIDTH 960 0
DWIDTH 16 0
BBX 16 16 0 -2
BITMAP
0000
0000
0000
3398
1F18
0618
0C1C
1816
181B
3018
3018
3030
3030
18E0
0F80
0000
ENDCHAR

STARTCHAR jisx0208_2453
ENCODING 9299
SWIDTH 960 0
DWIDTH 16 0
BBX 16 16 0 -2
BITMAP
0000
0006
0003
3396
1F1B
0618
0C1C
1816
181B
3018
3018
3030
3030
18E0
0F80
0000
ENDCHAR

STARTCHAR jisx0208_2454
ENCODING 9300
SWIDTH 960 0
DWIDTH 16 0
BBX 16 16 0 -2
BITMAP
0000
000E
001B
339B
1F1E
0618
0C1C
1816
181B
3018
3018
3030
3030
18E0
0F80
0000
ENDCHAR

STARTCHAR jisx0208_2455
ENCODING 9301
SWIDTH 960 0
DWIDTH 16 0
BBX 16 16 0 -2
BITMAP
0000
0000
0300
0180
00E0
0180
0300
0300
0180
00DC
0666
6C63
5C6F
765B
03C0
0000
ENDCHAR

STARTCHAR jisx0208_2456
ENCODING 9302
SWIDTH 960 0
DWIDTH 16 0
BBX 16 16 0 -2
BITMAP
0000
0000
0306
0183
00EC
0186
0300
0300
0180
00DC
0666
6C63
5C6F
765B
03C0
0000
ENDCHAR

STARTCHAR jisx0208_2457
ENCODING 9303
SWIDTH 960 0
DWIDTH 16 0
BBX 16 16 0 -2
BITMAP
0000
0000
030E
019B
00DB
018E
0300
0300
0180
00DC
0666
6C63
5C6F
765B
03C0
0000
ENDCHAR

STARTCHAR jisx0208_2458
ENCODING 9304
SWIDTH 960 0
DWIDTH 16 0
BBX 16 16 0 -2
BITMAP
0000
0000
0000
0000
0000
0780
0CC0
5860
7030
001C
0006
0003
0000
0000
0000
0000
ENDCHAR

STARTCHAR jisx0208_2459
ENCODING 9305
SWIDTH 960 0
DWIDTH 16 0
BBX 16 16 0 -2
BITMAP
0000
0000
0000
000C
0036
0798
0CC0
5860
7030
001C
0006
0003
0000
0000
0000
0000
ENDCHAR

STARTCHAR jisx0208_245A
ENCODING 9306
SWIDTH 960 0
DWIDTH 16 0
BBX 16 16 0 -2
BITMAP
0000
0000
001C
0036
0036
079C
0CC0
5860
7030
001C
0006
0003
0000
0000
0000
0000
ENDCHAR

STARTCHAR jisx0208_245B
ENCODING 9307
SWIDTH 960 0
DWIDTH 16 0
BBX 16 16 0 -2
BITMAP
0000
0000
330E
19F8
1818
181C
3317
31FC
3018
3018
2C18
2DF8
3B1C
1B16
19F3
0000
ENDCHAR

STARTCHAR jisx0208_245C
ENCODING 9308
SWIDTH 960 0
DWIDTH 16 0
BBX 16 16 0 -2
BITMAP
0000
0016
330B
19F8
1818
181C
3317
31FC
3018
3018
2C18
2DF8
3B1C
1B16
19F3
0000
ENDCHAR

STARTCHAR jisx0208_245D
ENCODING 9309
SWIDTH 960 0
DWIDTH 16 0
BBX 16 16 0 -2
BITMAP
0000
000E
331B
19FB
181E
181C
3317
31FC
3018
3018
2C18
2DF8
3B1C
1B16
19F3
0000
ENDCHAR

STARTCHAR jisx0208_245E
ENCODING 9310
SWIDTH 960 0
DWIDTH 16 0
BBX 16 16 0 -2
BITMAP
0000
0000
01C0
00C0
30CE
1FF8
00C0
18CE
0FF8
00C0
00C0
0FC0
18F0
18DC
0F86
0000
ENDCHAR

STARTCHAR jisx0208_245F
ENCODING 9311
SWIDTH 960 0
DWIDTH 16 0
BBX 16 16 0 -2
BITMAP
0000
0000
0DE0
0F60
00C0
00C0
0198
018C
0FEC
1B1C
360E
360B
2C18
1830
00E0
0000
ENDCHAR

STARTCHAR jisx0208_2460
ENCODING 9312
SWIDTH 960 0
DWIDTH 16 0
BBX 16 16 0 -2
BITMAP
0000
0000
0E00
0600
65C0
3F1C
0C06
1C07
360B
3600
2C18
1818
1818
181C
0FF8
0000
ENDCHAR

STARTCHAR jisx0208_2461
ENCODING 9313
SWIDTH 960 0
DWIDTH 16 0
BBX 16 16 0 -2
BITMAP
0000
01C0
00C0
38C0
1BF0
1EDC
198C
3986
2D86
6B06
6706
660C
6B0C
3838
00E0
0000
ENDCHAR

STARTCHAR jisx0208_2462
ENCODING 9314
SWIDTH 960 0
DWIDTH 16 0
BBX 16 16 0 -2
BITMAP
0000
0600
0300
0300
1B00
0FC0
1600
0630
3618
1FCC
0C0C
0C0C
0C0C
0618
03F0
0000
ENDCHAR

STARTCHAR jisx0208_2463
ENCODING 9315
SWIDTH 960 0
DWIDTH 16 0
BBX 16 16 0 -2
BITMAP
0000
0000
0000
0000
01C0
0660
0678
05CC
170C
1B0C
0378
0300
0180
0180
0180
0000
ENDCHAR

STARTCHAR jisx0208_2464
ENCODING 9316
SWIDTH 960 0
DWIDTH 16 0
BBX 16 16 0 -2
BITMAP
0000
01C0
0060
0E30
0CFC
0B86
6E03
3603
0666
033C
0300
0300
0180
0180
0180
0000
ENDCHAR

STARTCHAR jisx0208_2465
ENCODING 9317
SWIDTH 960 0
DWIDTH 16 0
BBX 16 16 0 -2
BITMAP
0000
0000
0000
0000
01C0
1860
0DF0
0B58
166C
1C6C
1C6C
1B58
19F0
00C0
0380
0000
ENDCHAR

STARTCHAR jisx0208_2466
ENCODING 9318
SWIDTH 960 0
DWIDTH 16 0
BBX 16 16 0 -2
BITMAP
0000
01C0
0360
3060
19F8
1B6C
3666
2C66
2C66
3866
3666
336C
31F8
00C0
0780
0000
ENDCHAR

STARTCHAR jisx0208_2467
ENCODING 9319
SWIDTH 960 0
DWIDTH 16 0
BBX 16 16 0 -2
BITMAP
0000
0000
0000
0000
0380
0180
0180
01F8
0180
0180
0180
0F80
19E0
19B0
0F18
0000
ENDCHAR

STARTCHAR jisx0208_2468
ENCODING 9320
SWIDTH 960 0
DWIDTH 16 0
BBX 16 16 0 -2
BITMAP
0000
0000
01C0
00C0
00C0
00C0
00FE
00C0
00C0
00C0
00C0
0FC0
18F0
18DC
0F86
0000
ENDCHAR

STARTCHAR jisx0208_2469
ENCODING 9321
SWIDTH 960 0
DWIDTH 16 0
BBX 16 16 0 -2
BITMAP
0000
0000
0700
01F0
0700
0C00
0C00
0DF8
170C
1C06
1806
0006
000C
0038
03E0
0000
ENDCHAR

STARTCHAR jisx0208_246A
ENCODING 9322
SWIDTH 960 0
DWIDTH 16 0
BBX 16 16 0 -2
BITMAP
0000
1800
0DE0
0B30
0B18
1618
1618
1618
1C18
0C18
0C18
0030
0030
00E0
0380
0000
ENDCHAR

STARTCHAR jisx0208_246B
ENCODING 9323
SWIDTH 960 0
DWIDTH 16 0
BBX 16 16 0 -2
BITMAP
0000
0000
0DF0
0760
00C0
0180
0300
07F8
0C0C
1806
3006
0386
06CC
0658
03F0
0000
ENDCHAR

STARTCHAR jisx0208_246C
ENCODING 9324
SWIDTH 960 0
DWIDTH 16 0
BBX 16 16 0 -2
BITMAP
0000
0000
1C00
0C00
6CF8
7D8C
0B0C
0E0C
1C0C
1C0C
2C0C
6C0C
5C0B
0C0E
0C00
0000
ENDCHAR

STARTCHAR jisx0208_246D
ENCODING 9325
SWIDTH 960 0
DWIDTH 16 0
BBX 16 16 0 -2
BITMAP
0000
0000
0DF0
0760
00C0
0180
0300
07F8
0C0C
1806
3006
0006
000C
0038
03E0
0000
ENDCHAR

STARTCHAR jisx0208_246E
ENCODING 9326
SWIDTH 960 0
DWIDTH 16 0
BBX 16 16 0 -2
BITMAP
0000
0000
0000
0000
0000
0E00
0600
1EF8
058C
070C
0E0C
0E0C
160C
0E18
0670
0000
ENDCHAR

STARTCHAR jisx0208_246F
ENCODING 9327
SWIDTH 960 0
DWIDTH 16 0
BBX 16 16 0 -2
BITMAP
0000
0000
1C00
0C00
6C00
7DF8
0B0C
0E06
1C06
1C06
2C06
6C06
5C0C
0C38
0CE0
0000
ENDCHAR

STARTCHAR jisx0208_2470
ENCODING 9328
SWIDTH 960 0
DWIDTH 16 0
BBX 16 16 0 -2
BITMAP
0000
0000
0DE0
0760
00C0
00C0
03F8
0D8C
1986
1986
3306
3376
36D6
1CCC
0078
0000
ENDCHAR

STARTCHAR jisx0208_2471
ENCODING 9329
SWIDTH 960 0
DWIDTH 16 0
BBX 16 16 0 -2
BITMAP
0000
0000
0DE0
06C0
0180
07E0
0C30
1BB0
06B0
03E0
0600
0E78
1ACC
318E
6196
0000
ENDCHAR

STARTCHAR jisx0208_2472
ENCODING 9330
SWIDTH 960 0
DWIDTH 16 0
BBX 16 16 0 -2
BITMAP
0000
0380
0180
31B8
1FE0
0300
0606
0FCE
1878
30E0
0360
0660
0600
0600
03FC
0000
ENDCHAR

STARTCHAR jisx0208_2473
ENCODING 9331
SWIDTH 960 0
DWIDTH 16 0
BBX 16 16 0 -2
BITMAP
0000
0300
0180
0180
0300
0300
0600
0600
0F80
0CC6
18C6
18C6
30CC
30CC
3078
0000
ENDCHAR

STARTCHAR jisx0208_2521
ENCODING 9505
SWIDTH 960 0
DWIDTH 16 0
BBX 16 16 0 -2
BITMAP
0000
0000
0000
0000
0000
1818
0FFC
0018
03B0
01E0
0180
0180
0180
0300
0600
0000
ENDCHAR

STARTCHAR jisx0208_2522
ENCODING 9506
SWIDTH 960 0
DWIDTH 16 0
BBX 16 16 0 -2
BITMAP
0000
0000
600C
3FFE
000C
0018
0370
01C0
0180
0180
0300
0300
0600
0C00
1800
0000
ENDCHAR

STARTCHAR jisx0208_2523
ENCODING 9507
SWIDTH 960 0
DWIDTH 16 0
BBX 16 16 0 -2
BITMAP
0000
0000
0000
0000
0060
0030
0060
00C0
01C0
06C0
1CC0
00C0
00C0
01C0
00C0
0000
ENDCHAR

STARTCHAR jisx0208_2524
ENCODING 9508
SWIDTH 960 0
DWIDTH 16 0
BBX 16 16 0 -2
BITMAP
0000
0030
0018
0030
0060
00C0
01E0
02C0
0EC0
38C0
00C0
00C0
00C0
01C0
00C0
0000
ENDCHAR

STARTCHAR jisx0208_2525
ENCODING 9509
SWIDTH 960 0
DWIDTH 16 0
BBX 16 16 0 -2
BITMAP
0000
0000
0000
0000
0380
0180
1D98
0FFC
0C18
0C18
0C18
0030
0030
0060
01C0
0000
ENDCHAR

STARTCHAR jisx0208_2526
ENCODING 9510
SWIDTH 960 0
DWIDTH 16 0
BBX 16 16 0 -2
BITMAP
0000
0000
0380
0180
398C
1FFE
180C
180C
180C
1818
0018
0030
0060
00C0
0380
0000
ENDCHAR

STARTCHAR jisx0208_2527
ENCODING 9511
SWIDTH 960 0
DWIDTH 16 0
BBX 16 16 0 -2
BITMAP
0000
0000
0000
0000
0000
0000
0C30
07F8
0180
0180
0180
1998
0FFC
0000
0000
0000
ENDCHAR

STARTCHAR jisx0208_2528
ENCODING 9512
SWIDTH 960 0
DWIDTH 16 0
BBX 16 16 0 -2
BITMAP
0000
0000
0000
0000
1818
0FFC
0180
0180
0180
0180
0180
318C
1FFE
0000
0000
0000
ENDCHAR

STARTCHAR jisx0208_2529
ENCODING 9513
SWIDTH 960 0
DWIDTH 16 0
BBX 16 16 0 -2
BITMAP
0000
0000
0000
0000
00E0
0060
1860
0FFC
00E0
0160
0360
0660
1D60
00E0
00C0
0000
ENDCHAR

STARTCHAR jisx0208_252A
ENCODING 9514
SWIDTH 960 0
DWIDTH 16 0
BBX 16 16 0 -2
BITMAP
0000
0070
0030
0030
3036
1FFF
0070
00B0
01B0
0330
0E30
3830
0030
01F0
0060
0000
ENDCHAR

STARTCHAR jisx0208_252B
ENCODING 9515
SWIDTH 960 0
DWIDTH 16 0
BBX 16 16 0 -2
BITMAP
0000
0300
0180
0180
318C
1FFE
030C
030C
030C
060C
0618
0C18
1998
30F0
0060
0000
ENDCHAR

STARTCHAR jisx0208_252C
ENCODING 9516
SWIDTH 960 0
DWIDTH 16 0
BBX 16 16 0 -2
BITMAP
0000
0306
019B
018C
318C
1FFE
030C
030C
030C
060C
0618
0C18
1998
30F0
0060
0000
ENDCHAR

STARTCHAR jisx0208_252D
ENCODING 9517
SWIDTH 960 0
DWIDTH 16 0
BBX 16 16 0 -2
BITMAP
0000
0380
0180
0180
31FC
1F80
0180
0180
31FE
1FC0
00C0
00C0
00C0
00C0
00C0
0000
ENDCHAR

STARTCHAR jisx0208_252E
ENCODING 9518
SWIDTH 960 0
DWIDTH 16 0
BBX 16 16 0 -2
BITMAP
0000
0396
018B
0180
31FC
1F80
0180
0180
31FE
1FC0
00C0
00C0
00C0
00C0
00C0
0000
ENDCHAR

STARTCHAR jisx0208_252F
ENCODING 9519
SWIDTH 960 0
DWIDTH 16 0
BBX 16 16 0 -2
BITMAP
0000
0300
0180
018C
03FE
060C
0C0C
1818
0018
0030
0060
00C0
0180
0300
0E00
0000
ENDCHAR

STARTCHAR jisx0208_2530
ENCODING 9520
SWIDTH 960 0
DWIDTH 16 0
BBX 16 16 0 -2
BITMAP
0000
0316
018B
018C
03FE
060C
0C0C
1818
0018
0030
0060
00C0
0180
0300
0E00
0000
ENDCHAR

STARTCHAR jisx0208_2531
ENCODING 9521
SWIDTH 960 0
DWIDTH 16 0
BBX 16 16 0 -2
BITMAP
0000
0C00
0600
0600
0C0C
0FFE
1860
3060
6060
0060
00C0
00C0
0180
0300
0E00
0000
ENDCHAR

STARTCHAR jisx0208_2532
ENCODING 9522
SWIDTH 960 0
DWIDTH 16 0
BBX 16 16 0 -2
BITMAP
0000
0C16
060B
0600
0C0C
0FFE
1860
3060
6060
0060
00C0
00C0
0180
0300
0E00
0000
ENDCHAR

STARTCHAR jisx0208_2533
ENCODING 9523
SWIDTH 960 0
DWIDTH 16 0
BBX 16 16 0 -2
BITMAP
0000
0000
0000
300C
1FFE
000C
000C
000C
0018
0018
0018
3018
1FFC
0000
0000
0000
ENDCHAR

STARTCHAR jisx0208_2534
ENCODING 9524
SWIDTH 960 0
DWIDTH 16 0
BBX 16 16 0 -2
BITMAP
0000
0016
000B
300C
1FFE
000C
000C
000C
0018
0018
0018
3018
1FFC
0000
0000
0000
ENDCHAR

STARTCHAR jisx0208_2535
ENCODING 9525
SWIDTH 960 0
DWIDTH 16 0
BBX 16 16 0 -2
BITMAP
0000
0070
0E30
0630
6636
3FFF
0630
0630
0630
0630
0030
0030
0060
00C0
0380
0000
ENDCHAR

STARTCHAR jisx0208_2536
ENCODING 9526
SWIDTH 960 0
DWIDTH 16 0
BBX 16 16 0 -2
BITMAP
0000
0076
0E33
062C
6636
3FFF
0630
0630
0630
0630
0030
0030
0060
00C0
0380
0000
ENDCHAR

STARTCHAR jisx0208_2537
ENCODING 9527
SWIDTH 960 0
DWIDTH 16 0
BBX 16 16 0 -2
BITMAP
0000
0000
0000
1C00
0600
0006
3806
0C0C
0018
0030
0060
00C0
1B80
0E00
0000
0000
ENDCHAR

STARTCHAR jisx0208_2538
ENCODING 9528
SWIDTH 960 0
DWIDTH 16 0
BBX 16 16 0 -2
BITMAP
0000
000C
0036
1C18
0600
0006
3806
0C0C
0018
0030
0060
00C0
1B80
0E00
0000
0000
ENDCHAR

STARTCHAR jisx0208_2539
ENCODING 9529
SWIDTH 960 0
DWIDTH 16 0
BBX 16 16 0 -2
BITMAP
0000
0000
0000
0C18
07FC
0018
0030
0030
0060
00B0
0198
030C
0E06
3806
0000
0000
ENDCHAR

STARTCHAR jisx0208_253A
ENCODING 9530
SWIDTH 960 0
DWIDTH 16 0
BBX 16 16 0 -2
BITMAP
0000
0016
000B
0C18
07FC
0018
0030
0030
0060
00B0
0198
030C
0E06
3806
0000
0000
ENDCHAR

STARTCHAR jisx0208_253B
ENCODING 9531
SWIDTH 960 0
DWIDTH 16 0
BBX 16 16 0 -2
BITMAP
0000
0000
0E00
0600
0606
67FF
3E06
060C
0618
0630
0600
0600
060C
03FE
0000
0000
ENDCHAR

STARTCHAR jisx0208_253C
ENCODING 9532
SWIDTH 960 0
DWIDTH 16 0
BBX 16 16 0 -2
BITMAP
0000
0016
0E0B
0600
0606
67FF
3E06
060C
0618
0630
0600
0600
060C
03FE
0000
0000
ENDCHAR

STARTCHAR jisx0208_253D
ENCODING 9533
SWIDTH 960 0
DWIDTH 16 0
BBX 16 16 0 -2
BITMAP
0000
0000
0000
300C
1806
0C0C
0C0C
0018
0018
0030
0060
00C0
0380
0E00
0000
0000
ENDCHAR

STARTCHAR jisx0208_253E
ENCODING 9534
SWIDTH 960 0
DWIDTH 16 0
BBX 16 16 0 -2
BITMAP
0000
0016
000B
300C
1806
0C0C
0C0C
0018
0018
0030
0060
00C0
0380
0E00
0000
0000
ENDCHAR

STARTCHAR jisx0208_253F
ENCODING 9535
SWIDTH 960 0
DWIDTH 16 0
BBX 16 16 0 -2
BITMAP
0000
0300
0180
018C
03FE
060C
0C0C
1818
0398
00B0
0060
00B0
0198
0300
0E00
0000
ENDCHAR

STARTCHAR jisx0208_2540
ENCODING 9536
SWIDTH 960 0
DWIDTH 16 0
BBX 16 16 0 -2
BITMAP
0000
0316
018B
018C
03FE
060C
0C0C
1818
0398
00B0
0060
00B0
0198
0300
0E00
0000
ENDCHAR

STARTCHAR jisx0208_2541
ENCODING 9537
SWIDTH 960 0
DWIDTH 16 0
BBX 16 16 0 -2
BITMAP
0000
0018
00F8
0FC0
00C0
00C0
30C6
1FFF
00C0
00C0
00C0
00C0
0180
0300
0E00
0000
ENDCHAR

STARTCHAR jisx0208_2542
ENCODING 9538
SWIDTH 960 0
DWIDTH 16 0
BBX 16 16 0 -2
BITMAP
0000
0016
00FB
0FCC
00C6
00C0
30C6
1FFF
00C0
00C0
00C0
00C0
0180
0300
0E00
0000
ENDCHAR

STARTCHAR jisx0208_2543
ENCODING 9539
SWIDTH 960 0
DWIDTH 16 0
BBX 16 16 0 -2
BITMAP
0000
0000
0000
0000
0000
0300
199C
0D8C
0C0C
0018
0018
0030
0060
01C0
0700
0000
ENDCHAR

STARTCHAR jisx0208_2544
ENCODING 9540
SWIDTH 960 0
DWIDTH 16 0
BBX 16 16 0 -2
BITMAP
0000
0000
0300
318C
1986
180C
000C
0018
0018
0030
0060
00C0
0380
0E00
0000
0000
ENDCHAR

STARTCHAR jisx0208_2545
ENCODING 9541
SWIDTH 960 0
DWIDTH 16 0
BBX 16 16 0 -2
BITMAP
0000
0016
030B
318C
1986
180C
000C
0018
0018
0030
0060
00C0
0380
0E00
0000
0000
ENDCHAR

STARTCHAR jisx0208_2546
ENCODING 9542
SWIDTH 960 0
DWIDTH 16 0
BBX 16 16 0 -2
BITMAP
0000
0000
0018
0FFC
0000
0000
3006
1FFF
00C0
00C0
00C0
00C0
0180
0300
0E00
0000
ENDCHAR

STARTCHAR jisx0208_2547
ENCODING 9543
SWIDTH 960 0
DWIDTH 16 0
BBX 16 16 0 -2
BITMAP
0000
0016
000B
0FF8
0000
0000
3006
1FFF
00C0
00C0
00C0
00C0
0180
0300
0E00
0000
ENDCHAR

STARTCHAR jisx0208_2548
ENCODING 9544
SWIDTH 960 0
DWIDTH 16 0
BBX 16 16 0 -2
BITMAP
0000
0700
0300
0300
0300
0300
03C0
0370
0318
0300
0300
0300
0300
0700
0300
0000
ENDCHAR

STARTCHAR jisx0208_2549
ENCODING 9545
SWIDTH 960 0
DWIDTH 16 0
BBX 16 16 0 -2
BITMAP
0000
0700
030C
0336
0318
0300
03C0
0370
0318
0300
0300
0300
0300
0700
0300
0000
ENDCHAR

STARTCHAR jisx0208_254A
ENCODING 9546
SWIDTH 960 0
DWIDTH 16 0
BBX 16 16 0 -2
BITMAP
0000
0180
00C0
00C0
00C0
30C6
1FFF
00C0
00C0
00C0
00C0
0180
0180
0300
0E00
0000
ENDCHAR

STARTCHAR jisx0208_254B
ENCODING 9547
SWIDTH 960 0
DWIDTH 16 0
BBX 16 16 0 -2
BITMAP
0000
0000
0000
1830
0FF8
0000
0000
0000
0000
0000
0000
600C
3FFE
0000
0000
0000
ENDCHAR

STARTCHAR jisx0208_254C
ENCODING 9548
SWIDTH 960 0
DWIDTH 16 0
BBX 16 16 0 -2
BITMAP
0000
0000
1818
0FFC
0018
0018
0030
0730
01E0
00E0
01B0
0318
0E00
3800
0000
0000
ENDCHAR

STARTCHAR jisx0208_254D
ENCODING 9549
SWIDTH 960 0
DWIDTH 16 0
BBX 16 16 0 -2
BITMAP
0000
0380
00C0
1818
0FFC
0030
0060
00C0
01B8
02CC
0EC6
38C6
00C0
01C0
00C0
0000
ENDCHAR

STARTCHAR jisx0208_254E
ENCODING 9550
SWIDTH 960 0
DWIDTH 16 0
BBX 16 16 0 -2
BITMAP
0000
0000
0000
001C
000C
000C
0018
0018
0030
0060
00C0
0180
0700
1C00
0000
0000
ENDCHAR

STARTCHAR jisx0208_254F
ENCODING 9551
SWIDTH 960 0
DWIDTH 16 0
BBX 16 16 0 -2
BITMAP
0000
0000
0000
0000
0E60
0630
0618
0C18
0C0C
180C
1806
3006
6006
0000
0000
0000
ENDCHAR

STARTCHAR jisx0208_2550
ENCODING 9552
SWIDTH 960 0
DWIDTH 16 0
BBX 16 16 0 -2
BITMAP
0000
0006
001B
000C
0E60
0630
0618
0C18
0C0C
180C
1806
3006
6006
0000
0000
0000
ENDCHAR

STARTCHAR jisx0208_2551
ENCODING 9553
SWIDTH 960 0
DWIDTH 16 0
BBX 16 16 0 -2
BITMAP
0000
0000
000E
001B
0E5B
062E
0618
0C18
0C0C
180C
1806
3006
6006
0000
0000
0000
ENDCHAR

STARTCHAR jisx0208_2552
ENCODING 9554
SWIDTH 960 0
DWIDTH 16 0
BBX 16 16 0 -2
BITMAP
0000
0000
3800
1838
181C
18F0
1F80
1800
1800
1800
1800
1800
1818
0FFC
0000
0000
ENDCHAR

STARTCHAR jisx0208_2553
ENCODING 9555
SWIDTH 960 0
DWIDTH 16 0
BBX 16 16 0 -2
BITMAP
0000
0016
380B
1838
181C
18F0
1F80
1800
1800
1800
1800
1800
1818
0FFC
0000
0000
ENDCHAR

STARTCHAR jisx0208_2554
ENCODING 9556
SWIDTH 960 0
DWIDTH 16 0
BBX 16 16 0 -2
BITMAP
0000
001C
3836
1836
181C
18F0
1F80
1800
1800
1800
1800
1800
1818
0FFC
0000
0000
ENDCHAR

STARTCHAR jisx0208_2555
ENCODING 9557
SWIDTH 960 0
DWIDTH 16 0
BBX 16 16 0 -2
BITMAP
0000
0000
0000
300C
1FFE
000C
000C
0018
0018
0030
0060
00C0
0380
0E00
0000
0000
ENDCHAR

STARTCHAR jisx0208_2556
ENCODING 9558
SWIDTH 960 0
DWIDTH 16 0
BBX 16 16 0 -2
BITMAP
0000
0016
000B
300C
1FFE
000C
000C
0018
0018
0030
0060
00C0
0380
0E00
0000
0000
ENDCHAR

STARTCHAR jisx0208_2557
ENCODING 9559
SWIDTH 960 0
DWIDTH 16 0
BBX 16 16 0 -2
BITMAP
0000
000E
001B
301B
1FFE
000C
000C
0018
0018
0030
0060
00C0
0380
0E00
0000
0000
ENDCHAR

STARTCHAR jisx0208_2558
ENCODING 9560
SWIDTH 960 0
DWIDTH 16 0
BBX 16 16 0 -2
BITMAP
0000
0000
0000
0000
0000
0780
0CC0
5860
7030
0018
000C
0006
0003
0000
0000
0000
ENDCHAR

STARTCHAR jisx0208_2559
ENCODING 9561
SWIDTH 960 0
DWIDTH 16 0
BBX 16 16 0 -2
BITMAP
0000
0000
000C
0036
0018
0780
0CC0
5860
7030
0018
000C
0006
0003
0000
0000
0000
ENDCHAR

STARTCHAR jisx0208_255A
ENCODING 9562
SWIDTH 960 0
DWIDTH 16 0
BBX 16 16 0 -2
BITMAP
0000
0000
001C
0036
0036
079C
0CC0
5860
7030
0018
000C
0006
0003
0000
0000
0000
ENDCHAR

STARTCHAR jisx0208_255B
ENCODING 9563
SWIDTH 960 0
DWIDTH 16 0
BBX 16 16 0 -2
BITMAP
0000
01C0
00C0
30CC
1FFE
00C0
00C0
0CD8
0CCC
18C6
30C6
00C0
06C0
03C0
0180
0000
ENDCHAR

STARTCHAR jisx0208_255C
ENCODING 9564
SWIDTH 960 0
DWIDTH 16 0
BBX 16 16 0 -2
BITMAP
0000
01D6
00CB
30CC
1FFE
00C0
00C0
0CD8
0CCC
18C6
30C6
00C0
06C0
03C0
0180
0000
ENDCHAR

STARTCHAR jisx0208_255D
ENCODING 9565
SWIDTH 960 0
DWIDTH 16 0
BBX 16 16 0 -2
BITMAP
0000
01CE
00DB
30DB
1FFE
00C0
00C0
0CD8
0CCC
18C6
30C6
00C0
06C0
03C0
0180
0000
ENDCHAR

STARTCHAR jisx0208_255E
ENCODING 9566
SWIDTH 960 0
DWIDTH 16 0
BBX 16 16 0 -2
BITMAP
0000
0000
0000
3006
1FFF
0006
000C
0018
0630
0360
01C0
00C0
0060
0060
0000
0000
ENDCHAR

STARTCHAR jisx0208_255F
ENCODING 9567
SWIDTH 960 0
DWIDTH 16 0
BBX 16 16 0 -2
BITMAP
0000
0000
0780
00E0
0030
0000
0780
00E0
0030
0000
1E00
03C0
0070
0018
0000
0000
ENDCHAR

STARTCHAR jisx0208_2560
ENCODING 9568
SWIDTH 960 0
DWIDTH 16 0
BBX 16 16 0 -2
BITMAP
0000
0000
0180
00C0
00C0
0180
0180
0300
0300
0630
0618
0C0C
0CFE
3F86
0006
0000
ENDCHAR

STARTCHAR jisx0208_2561
ENCODING 9569
SWIDTH 960 0
DWIDTH 16 0
BBX 16 16 0 -2
BITMAP
0000
0000
0030
0018
0018
0030
0730
01E0
0060
00B0
0198
0300
0E00
3800
0000
0000
ENDCHAR

STARTCHAR jisx0208_2562
ENCODING 9570
SWIDTH 960 0
DWIDTH 16 0
BBX 16 16 0 -2
BITMAP
0000
0000
3018
1FFC
0300
0300
630C
3FFE
0300
0300
0300
0300
0318
01FC
0000
0000
ENDCHAR

STARTCHAR jisx0208_2563
ENCODING 9571
SWIDTH 960 0
DWIDTH 16 0
BBX 16 16 0 -2
BITMAP
0000
0000
0000
0000
0700
0300
0318
1BFC
0F18
0330
0180
0180
0180
0180
0180
0000
ENDCHAR

STARTCHAR jisx0208_2564
ENCODING 9572
SWIDTH 960 0
DWIDTH 16 0
BBX 16 16 0 -2
BITMAP
0000
0000
0700
0300
0306
63FF
3F06
030C
0318
0330
0180
0180
0180
0180
0180
0000
ENDCHAR

STARTCHAR jisx0208_2565
ENCODING 9573
SWIDTH 960 0
DWIDTH 16 0
BBX 16 16 0 -2
BITMAP
0000
0000
0000
0000
0000
0000
0000
0630
03F8
0030
0030
0030
1830
0FFE
0000
0000
ENDCHAR

STARTCHAR jisx0208_2566
ENCODING 9574
SWIDTH 960 0
DWIDTH 16 0
BBX 16 16 0 -2
BITMAP
0000
0000
0000
0000
1830
0FF8
0030
0030
0030
0060
0060
6066
3FFF
0000
0000
0000
ENDCHAR

STARTCHAR jisx0208_2567
ENCODING 9575
SWIDTH 960 0
DWIDTH 16 0
BBX 16 16 0 -2
BITMAP
0000
0000
0000
0000
0000
0C18
07FC
0018
0C18
07F8
0018
0018
0C18
07FC
0000
0000
ENDCHAR

STARTCHAR jisx0208_2568
ENCODING 9576
SWIDTH 960 0
DWIDTH 16 0
BBX 16 16 0 -2
BITMAP
0000
0000
0000
180C
0FFE
000C
000C
180C
0FF8
0018
0018
0018
1818
0FFC
0000
0000
ENDCHAR

STARTCHAR jisx0208_2569
ENCODING 9577
SWIDTH 960 0
DWIDTH 16 0
BBX 16 16 0 -2
BITMAP
0000
0000
0C30
07F8
0000
300C
1FFE
000C
000C
0018
0018
0030
0060
01C0
0700
0000
ENDCHAR

STARTCHAR jisx0208_256A
ENCODING 9578
SWIDTH 960 0
DWIDTH 16 0
BBX 16 16 0 -2
BITMAP
0000
0070
1C30
0C30
0C30
0C30
0C30
0C30
0C30
0C30
0030
0060
0060
00C0
0380
0000
ENDCHAR

STARTCHAR jisx0208_256B
ENCODING 9579
SWIDTH 960 0
DWIDTH 16 0
BBX 16 16 0 -2
BITMAP
0000
0000
01C0
1CC0
0CC0
0CC0
0CC0
0CC0
0CC3
0CC6
0CCC
18D8
19F0
30C0
6000
0000
ENDCHAR

STARTCHAR jisx0208_256C
ENCODING 9580
SWIDTH 960 0
DWIDTH 16 0
BBX 16 16 0 -2
BITMAP
0000
0000
1C00
0C00
0C00
0C00
0C00
0C00
0C06
0C0C
0C18
0C70
0DC0
1F00
0C00
0000
ENDCHAR

STARTCHAR jisx0208_256D
ENCODING 9581
SWIDTH 960 0
DWIDTH 16 0
BBX 16 16 0 -2
BITMAP
0000
0000
0000
0000
380C
1FFE
180C
180C
180C
1818
1818
1818
1FFC
1800
0000
0000
ENDCHAR

STARTCHAR jisx0208_256E
ENCODING 9582
SWIDTH 960 0
DWIDTH 16 0
BBX 16 16 0 -2
BITMAP
0000
0000
0000
0000
0000
1C18
0FFC
0C18
0C18
0C18
0C30
0030
0060
00C0
0380
0000
ENDCHAR

STARTCHAR jisx0208_256F
ENCODING 9583
SWIDTH 960 0
DWIDTH 16 0
BBX 16 16 0 -2
BITMAP
0000
0000
380C
1FFE
180C
180C
180C
180C
1818
0018
0030
0060
00C0
0380
0000
0000
ENDCHAR

STARTCHAR jisx0208_2570
ENCODING 9584
SWIDTH 960 0
DWIDTH 16 0
BBX 16 16 0 -2
BITMAP
0000
01C0
00C0
30D8
1FFC
0CC0
0CC0
0CC0
6CCC
3FFE
00C0
00C0
00C0
00C0
00C0
0000
ENDCHAR

STARTCHAR jisx0208_2571
ENCODING 9585
SWIDTH 960 0
DWIDTH 16 0
BBX 16 16 0 -2
BITMAP
0000
0000
0000
1818
0FFC
0018
0030
0360
01C0
0180
0180
6186
3FFF
0000
0000
0000
ENDCHAR

STARTCHAR jisx0208_2572
ENCODING 9586
SWIDTH 960 0
DWIDTH 16 0
BBX 16 16 0 -2
BITMAP
0000
0000
180C
0FFE
000C
000C
180C
0FFC
000C
0018
0018
0030
0060
01C0
0700
0000
ENDCHAR

STARTCHAR jisx0208_2573
ENCODING 9587
SWIDTH 960 0
DWIDTH 16 0
BBX 16 16 0 -2
BITMAP
0000
0000
0000
1800
0C00
0606
0006
000C
0018
0030
0060
00C0
1B80
0E00
0000
0000
ENDCHAR

STARTCHAR jisx0208_2574
ENCODING 9588
SWIDTH 960 0
DWIDTH 16 0
BBX 16 16 0 -2
BITMAP
0000
0396
018B
398C
1FFE
180C
180C
180C
180C
180C
0018
0018
0030
00E0
0380
0000
ENDCHAR

STARTCHAR jisx0208_2575
ENCODING 9589
SWIDTH 960 0
DWIDTH 16 0
BBX 16 16 0 -2
BITMAP
0000
0000
0000
0000
0380
0180
1998
0FFC
0198
0318
0318
0618
0CB0
1870
0060
0000
ENDCHAR

STARTCHAR jisx0208_2576
ENCODING 9590
SWIDTH 960 0
DWIDTH 16 0
BBX 16 16 0 -2
BITMAP
0000
0000
0000
0000
0600
0300
0318
07FC
0C60
1860
0060
00C0
00C0
0180
0700
0000
ENDCHAR

STARTCHAR jisx0208_2621
ENCODING 9761
SWIDTH 960 0
DWIDTH 16 0
BBX 16 16 0 -2
BITMAP
0000
0000
01C0
01C0
0360
0360
0630
0630
0630
0C18
0FF8
180C
180C
3C1E
0000
0000
ENDCHAR

STARTCHAR jisx0208_2622
ENCODING 9762
SWIDTH 960 0
DWIDTH 16 0
BBX 16 16 0 -2
BITMAP
0000
0000
1FE0
0C30
0C18
0C18
0C30
0FF0
0C18
0C0C
0C0C
0C0C
0C18
1FF0
0000
0000
ENDCHAR

STARTCHAR jisx0208_2623
ENCODING 9763
SWIDTH 960 0
DWIDTH 16 0
BBX 16 16 0 -2
BITMAP
0000
0000
1FF8
0C18
0C0C
0C00
0C00
0C00
0C00
0C00
0C00
0C00
0C00
1E00
0000
0000
ENDCHAR

STARTCHAR jisx0208_2624
ENCODING 9764
SWIDTH 960 0
DWIDTH 16 0
BBX 16 16 0 -2
BITMAP
0000
0000
01C0
01C0
0360
0360
0630
0630
0630
0C18
0C18
180C
180C
3FFE
0000
0000
ENDCHAR

STARTCHAR jisx0208_2625
ENCODING 9765
SWIDTH 960 0
DWIDTH 16 0
BBX 16 16 0 -2
BITMAP
0000
0000
1FF0
0C30
0C18
0C00
0C60
0FE0
0C60
0C00
0C00
0C0C
0C18
1FF8
0000
0000
ENDCHAR

STARTCHAR jisx0208_2626
ENCODING 9766
SWIDTH 960 0
DWIDTH 16 0
BBX 16 16 0 -2
BITMAP
0000
0000
07FC
0618
0C30
0060
0060
00C0
0180
0300
0300
060C
0C18
1FF8
0000
0000
ENDCHAR

STARTCHAR jisx0208_2627
ENCODING 9767
SWIDTH 960 0
DWIDTH 16 0
BBX 16 16 0 -2
BITMAP
0000
0000
1E3C
0C18
0C18
0C18
0C18
0FF8
0C18
0C18
0C18
0C18
0C18
1E3C
0000
0000
ENDCHAR

STARTCHAR jisx0208_2628
ENCODING 9768
SWIDTH 960 0
DWIDTH 16 0
BBX 16 16 0 -2
BITMAP
0000
0000
03E0
0E38
0C18
180C
162C
17EC
162C
180C
180C
0C18
0E38
03E0
0000
0000
ENDCHAR

STARTCHAR jisx0208_2629
ENCODING 9769
SWIDTH 960 0
DWIDTH 16 0
BBX 16 16 0 -2
BITMAP
0000
0000
03C0
0180
0180
0180
0180
0180
0180
0180
0180
0180
0180
03C0
0000
0000
ENDCHAR

STARTCHAR jisx0208_262A
ENCODING 9770
SWIDTH 960 0
DWIDTH 16 0
BBX 16 16 0 -2
BITMAP
0000
0000
1E7C
0C30
0C60
0CC0
0D80
0AC0
0E60
0C60
0C30
0C18
0C18
1E3E
0000
0000
ENDCHAR

STARTCHAR jisx0208_262B
ENCODING 9771
SWIDTH 960 0
DWIDTH 16 0
BBX 16 16 0 -2
BITMAP
0000
0000
01C0
01C0
0360
0360
0630
0630
0630
0C18
0C18
180C
180C
3C1E
0000
0000
ENDCHAR

STARTCHAR jisx0208_262C
ENCODING 9772
SWIDTH 960 0
DWIDTH 16 0
BBX 16 16 0 -2
BITMAP
0000
0000
3C1E
1C1C
1C1C
162C
162C
162C
1B6C
1B6C
1B6C
19CC
19CC
3DDE
0000
0000
ENDCHAR

STARTCHAR jisx0208_262D
ENCODING 9773
SWIDTH 960 0
DWIDTH 16 0
BBX 16 16 0 -2
BITMAP
0000
0000
383C
1C18
1C18
1618
1B18
1998
1998
18D8
1858
1838
1838
3C18
0000
0000
ENDCHAR

STARTCHAR jisx0208_262E
ENCODING 9774
SWIDTH 960 0
DWIDTH 16 0
BBX 16 16 0 -2
BITMAP
0000
0000
1FF8
1818
300C
0000
0C30
0FF0
0C30
0000
0000
300C
1818
1FF8
0000
0000
ENDCHAR

STARTCHAR jisx0208_262F
ENCODING 9775
SWIDTH 960 0
DWIDTH 16 0
BBX 16 16 0 -2
BITMAP
0000
0000
03E0
0E38
0C18
180C
180C
180C
180C
180C
180C
0C18
0E38
03E0
0000
0000
ENDCHAR

STARTCHAR jisx0208_2630
ENCODING 9776
SWIDTH 960 0
DWIDTH 16 0
BBX 16 16 0 -2
BITMAP
0000
0000
3FFC
1818
1818
1818
1818
1818
1818
1818
1818
1818
1818
3C3C
0000
0000
ENDCHAR

STARTCHAR jisx0208_2631
ENCODING 9777
SWIDTH 960 0
DWIDTH 16 0
BBX 16 16 0 -2
BITMAP
0000
0000
1FE0
0C30
0C18
0C18
0C18
0C30
0FE0
0C00
0C00
0C00
0C00
1E00
0000
0000
ENDCHAR

STARTCHAR jisx0208_2632
ENCODING 9778
SWIDTH 960 0
DWIDTH 16 0
BBX 16 16 0 -2
BITMAP
0000
0000
1FF8
0C18
060C
0300
0180
00C0
0180
0300
0600
0C0C
1818
1FF8
0000
0000
ENDCHAR

STARTCHAR jisx0208_2633
ENCODING 9779
SWIDTH 960 0
DWIDTH 16 0
BBX 16 16 0 -2
BITMAP
0000
0000
1FF8
1998
318C
0180
0180
0180
0180
0180
0180
0180
0180
03C0
0000
0000
ENDCHAR

STARTCHAR jisx0208_2634
ENCODING 9780
SWIDTH 960 0
DWIDTH 16 0
BBX 16 16 0 -2
BITMAP
0000
0000
0E70
1AD8
318C
0180
0180
0180
0180
0180
0180
0180
0180
03C0
0000
0000
ENDCHAR

STARTCHAR jisx0208_2635
ENCODING 9781
SWIDTH 960 0
DWIDTH 16 0
BBX 16 16 0 -2
BITMAP
0000
0000
03C0
0180
0FF0
1998
318C
318C
318C
318C
1998
0FF0
0180
03C0
0000
0000
ENDCHAR

STARTCHAR jisx0208_2636
ENCODING 9782
SWIDTH 960 0
DWIDTH 16 0
BBX 16 16 0 -2
BITMAP
0000
0000
1E3C
0C18
0630
0360
0360
01C0
01C0
0360
0360
0630
0C18
1E3C
0000
0000
ENDCHAR

STARTCHAR jisx0208_2637
ENCODING 9783
SWIDTH 960 0
DWIDTH 16 0
BBX 16 16 0 -2
BITMAP
0000
0000
3BDC
1998
1998
1998
1998
1998
1998
1998
0DB0
07E0
0180
03C0
0000
0000
ENDCHAR

STARTCHAR jisx0208_2638
ENCODING 9784
SWIDTH 960 0
DWIDTH 16 0
BBX 16 16 0 -2
BITMAP
0000
0000
03E0
0E38
0C18
180C
180C
180C
180C
180C
0C18
0630
1B6C
1F7C
0000
0000
ENDCHAR

STARTCHAR jisx0208_2641
ENCODING 9793
SWIDTH 960 0
DWIDTH 16 0
BBX 16 16 0 -2
BITMAP
0000
0000
0000
0000
0000
0000
03D8
0658
0C58
1870
1870
1860
18EC
0FB8
0000
0000
ENDCHAR

STARTCHAR jisx0208_2642
ENCODING 9794
SWIDTH 960 0
DWIDTH 16 0
BBX 16 16 0 -2
BITMAP
0000
0000
00F8
018C
030C
030C
0618
06F0
0618
0C18
0C18
0E30
1BE0
1800
3C00
0000
ENDCHAR

STARTCHAR jisx0208_2643
ENCODING 9795
SWIDTH 960 0
DWIDTH 16 0
BBX 16 16 0 -2
BITMAP
0000
0000
0000
0000
0000
0000
073C
0D60
01C0
0180
0180
0180
0300
0300
0780
0000
ENDCHAR

STARTCHAR jisx0208_2644
ENCODING 9796
SWIDTH 960 0
DWIDTH 16 0
BBX 16 16 0 -2
BITMAP
0000
0000
01F0
0318
0338
0180
03F0
0618
0C18
0C18
0C18
0C18
0C30
07E0
0000
0000
ENDCHAR

STARTCHAR jisx0208_2645
ENCODING 9797
SWIDTH 960 0
DWIDTH 16 0
BBX 16 16 0 -2
BITMAP
0000
0000
0000
0000
0000
0000
01F0
0338
0300
03E0
0600
0C18
0C30
07E0
0000
0000
ENDCHAR

STARTCHAR jisx0208_2646
ENCODING 9798
SWIDTH 960 0
DWIDTH 16 0
BBX 16 16 0 -2
BITMAP
0000
0000
0738
03E0
00C0
0180
0300
0600
0600
0C00
0C00
0C00
07E0
0030
03E0
0000
ENDCHAR

STARTCHAR jisx0208_2647
ENCODING 9799
SWIDTH 960 0
DWIDTH 16 0
BBX 16 16 0 -2
BITMAP
0000
0000
0000
0000
0000
0000
0DF0
1B18
0318
0618
0630
0C30
0C30
1E60
00F0
0000
ENDCHAR

STARTCHAR jisx0208_2648
ENCODING 9800
SWIDTH 960 0
DWIDTH 16 0
BBX 16 16 0 -2
BITMAP
0000
0000
01F0
0318
0618
0618
0C18
0FF8
0C18
0C18
0C30
0C30
0C60
07C0
0000
0000
ENDCHAR

STARTCHAR jisx0208_2649
ENCODING 9801
SWIDTH 960 0
DWIDTH 16 0
BBX 16 16 0 -2
BITMAP
0000
0000
0000
0000
0000
0000
01C0
00C0
0180
0180
0180
0300
0360
03C0
0000
0000
ENDCHAR

STARTCHAR jisx0208_264A
ENCODING 9802
SWIDTH 960 0
DWIDTH 16 0
BBX 16 16 0 -2
BITMAP
0000
0000
0000
0000
0000
0000
0738
0358
06C0
07C0
06C0
0CC0
0CD8
1E70
0000
0000
ENDCHAR

STARTCHAR jisx0208_264B
ENCODING 9803
SWIDTH 960 0
DWIDTH 16 0
BBX 16 16 0 -2
BITMAP
0000
0000
0380
06C0
00C0
00C0
00C0
00E0
0160
0360
0360
0660
0C6C
1E38
0000
0000
ENDCHAR

STARTCHAR jisx0208_264C
ENCODING 9804
SWIDTH 960 0
DWIDTH 16 0
BBX 16 16 0 -2
BITMAP
0000
0000
0000
0000
0000
0000
0630
0630
0630
0C60
0C60
0C58
17B0
1800
3800
0000
ENDCHAR

STARTCHAR jisx0208_264D
ENCODING 9805
SWIDTH 960 0
DWIDTH 16 0
BBX 16 16 0 -2
BITMAP
0000
0000
0000
0000
0000
0000
0C38
0618
0630
0330
0360
02C0
0380
0300
0000
0000
ENDCHAR

STARTCHAR jisx0208_264E
ENCODING 9806
SWIDTH 960 0
DWIDTH 16 0
BBX 16 16 0 -2
BITMAP
0000
0000
0180
01F0
0180
0300
0300
03E0
0600
0C00
0C00
0C00
07E0
0030
01E0
0000
ENDCHAR

STARTCHAR jisx0208_264F
ENCODING 9807
SWIDTH 960 0
DWIDTH 16 0
BBX 16 16 0 -2
BITMAP
0000
0000
0000
0000
0000
0000
03F0
0618
0C18
0C18
0C18
0C18
0C30
07E0
0000
0000
ENDCHAR

STARTCHAR jisx0208_2650
ENCODING 9808
SWIDTH 960 0
DWIDTH 16 0
BBX 16 16 0 -2
BITMAP
0000
0000
0000
0000
0000
0000
0FFC
1B60
0360
0360
06C0
06C0
2CD8
38F0
0000
0000
ENDCHAR

STARTCHAR jisx0208_2651
ENCODING 9809
SWIDTH 960 0
DWIDTH 16 0
BBX 16 16 0 -2
BITMAP
0000
0000
0000
0000
0000
0000
01F0
0318
0618
0618
0618
0E30
0BE0
0C00
1E00
0000
ENDCHAR

STARTCHAR jisx0208_2652
ENCODING 9810
SWIDTH 960 0
DWIDTH 16 0
BBX 16 16 0 -2
BITMAP
0000
0000
0000
0000
0000
0000
03FE
0618
0C18
0C18
0C18
0C18
0C30
07E0
0000
0000
ENDCHAR

STARTCHAR jisx0208_2653
ENCODING 9811
SWIDTH 960 0
DWIDTH 16 0
BBX 16 16 0 -2
BITMAP
0000
0000
0000
0000
0000
0000
03F8
06C0
00C0
0180
0180
0300
0360
03C0
0000
0000
ENDCHAR

STARTCHAR jisx0208_2654
ENCODING 9812
SWIDTH 960 0
DWIDTH 16 0
BBX 16 16 0 -2
BITMAP
0000
0000
0000
0000
0000
0000
0C30
0618
0618
0618
0C18
0C30
0C60
07C0
0000
0000
ENDCHAR

STARTCHAR jisx0208_2655
ENCODING 9813
SWIDTH 960 0
DWIDTH 16 0
BBX 16 16 0 -2
BITMAP
0000
0000
0000
0000
00E0
0060
03F0
06D8
0CD8
0D98
0D98
0DB0
07E0
0300
0780
0000
ENDCHAR

STARTCHAR jisx0208_2656
ENCODING 9814
SWIDTH 960 0
DWIDTH 16 0
BBX 16 16 0 -2
BITMAP
0000
0000
0000
0000
0000
0000
0E7C
1B30
0360
01C0
0180
0380
06C0
0CD8
3E70
0000
ENDCHAR

STARTCHAR jisx0208_2657
ENCODING 9815
SWIDTH 960 0
DWIDTH 16 0
BBX 16 16 0 -2
BITMAP
0000
0000
0000
0000
0000
0000
1DD8
16D8
06D8
0D98
0D98
0DB0
07E0
0300
0780
0000
ENDCHAR

STARTCHAR jisx0208_2658
ENCODING 9816
SWIDTH 960 0
DWIDTH 16 0
BBX 16 16 0 -2
BITMAP
0000
0000
0000
0000
0000
0000
0330
0618
0CCC
18CC
18CC
198C
1998
0EF0
0000
0000
ENDCHAR

STARTCHAR jisx0208_2721
ENCODING 10017
SWIDTH 960 0
DWIDTH 16 0
BBX 16 16 0 -2
BITMAP
0000
0000
01C0
01C0
0360
0360
0630
0630
0630
0C18
0FF8
180C
180C
3C1E
0000
0000
ENDCHAR

STARTCHAR jisx0208_2722
ENCODING 10018
SWIDTH 960 0
DWIDTH 16 0
BBX 16 16 0 -2
BITMAP
0000
0000
1FF0
0C30
0C18
0C00
0C00
0FF0
0C18
0C0C
0C0C
0C0C
0C18
1FF0
0000
0000
ENDCHAR

STARTCHAR jisx0208_2723
ENCODING 10019
SWIDTH 960 0
DWIDTH 16 0
BBX 16 16 0 -2
BITMAP
0000
0000
1FE0
0C30
0C18
0C18
0C30
0FF0
0C18
0C0C
0C0C
0C0C
0C18
1FF0
0000
0000
ENDCHAR

STARTCHAR jisx0208_2724
ENCODING 10020
SWIDTH 960 0
DWIDTH 16 0
BBX 16 16 0 -2
BITMAP
0000
0000
1FF8
0C18
0C0C
0C00
0C00
0C00
0C00
0C00
0C00
0C00
0C00
1E00
0000
0000
ENDCHAR

STARTCHAR jisx0208_2725
ENCODING 10021
SWIDTH 960 0
DWIDTH 16 0
BBX 16 16 0 -2
BITMAP
0000
0000
1FFC
0630
0630
0630
0630
0630
0630
0630
0630
0C30
0C30
3FFC
300C
0000
ENDCHAR

STARTCHAR jisx0208_2726
ENCODING 10022
SWIDTH 960 0
DWIDTH 16 0
BBX 16 16 0 -2
BITMAP
0000
0000
1FF0
0C30
0C18
0C00
0C60
0FE0
0C60
0C00
0C00
0C0C
0C18
1FF8
0000
0000
ENDCHAR

STARTCHAR jisx0208_2727
ENCODING 10023
SWIDTH 960 0
DWIDTH 16 0
BBX 16 16 0 -2
BITMAP
0000
0770
0770
0000
1FF0
0C30
0C18
0C60
0FE0
0C60
0C00
0C0C
0C18
1FF8
0000
0000
ENDCHAR

STARTCHAR jisx0208_2728
ENCODING 10024
SWIDTH 960 0
DWIDTH 16 0
BBX 16 16 0 -2
BITMAP
0000
0000
7BBE
1998
1998
0DB0
0DB0
07E0
0DB0
0DB0
1998
1998
318C
7BDE
0000
0000
ENDCHAR

STARTCHAR jisx0208_2729
ENCODING 10025
SWIDTH 960 0
DWIDTH 16 0
BBX 16 16 0 -2
BITMAP
0000
0000
0BE0
0E30
0C18
1818
0018
03F0
0018
000C
000C
180C
0C18
07F0
0000
0000
ENDCHAR

STARTCHAR jisx0208_272A
ENCODING 10026
SWIDTH 960 0
DWIDTH 16 0
BBX 16 16 0 -2
BITMAP
0000
0000
3C1C
1838
1838
1858
18D8
1998
1998
1B18
1618
1C18
1C18
383C
0000
0000
ENDCHAR

STARTCHAR jisx0208_272B
ENCODING 10027
SWIDTH 960 0
DWIDTH 16 0
BBX 16 16 0 -2
BITMAP
0000
0770
07F0
3C1C
1838
1858
18D8
18D8
1998
1B18
1B18
1618
1C18
383C
0000
0000
ENDCHAR

STARTCHAR jisx0208_272C
ENCODING 10028
SWIDTH 960 0
DWIDTH 16 0
BBX 16 16 0 -2
BITMAP
0000
0000
1E7C
0C30
0C60
0C60
0CC0
0F80
0CC0
0C60
0C60
0C30
0C18
1E3C
0000
0000
ENDCHAR

STARTCHAR jisx0208_272D
ENCODING 10029
SWIDTH 960 0
DWIDTH 16 0
BBX 16 16 0 -2
BITMAP
0000
0000
07F8
0330
0330
0330
0330
0330
0330
0330
0330
1B30
1B30
0E78
0000
0000
ENDCHAR

STARTCHAR jisx0208_272E
ENCODING 10030
SWIDTH 960 0
DWIDTH 16 0
BBX 16 16 0 -2
BITMAP
0000
0000
3C1E
1C1C
1C1C
162C
162C
162C
1B6C
1B6C
1B6C
19CC
19CC
3DDE
0000
0000
ENDCHAR

STARTCHAR jisx0208_272F
ENCODING 10031
SWIDTH 960 0
DWIDTH 16 0
BBX 16 16 0 -2
BITMAP
0000
0000
3C3C
1818
1818
1818
1818
1FF8
1818
1818
1818
1818
1818
3C3C
0000
0000
ENDCHAR

STARTCHAR jisx0208_2730
ENCODING 10032
SWIDTH 960 0
DWIDTH 16 0
BBX 16 16 0 -2
BITMAP
0000
0000
03E0
0E38
0C18
180C
180C
180C
180C
180C
180C
0C18
0E38
03E0
0000
0000
ENDCHAR

STARTCHAR jisx0208_2731
ENCODING 10033
SWIDTH 960 0
DWIDTH 16 0
BBX 16 16 0 -2
BITMAP
0000
0000
3FFC
1818
1818
1818
1818
1818
1818
1818
1818
1818
1818
3C3C
0000
0000
ENDCHAR

STARTCHAR jisx0208_2732
ENCODING 10034
SWIDTH 960 0
DWIDTH 16 0
BBX 16 16 0 -2
BITMAP
0000
0000
1FE0
0C30
0C18
0C18
0C18
0C30
0FE0
0C00
0C00
0C00
0C00
1E00
0000
0000
ENDCHAR

STARTCHAR jisx0208_2733
ENCODING 10035
SWIDTH 960 0
DWIDTH 16 0
BBX 16 16 0 -2
BITMAP
0000
0000
03D8
0E38
0C0C
180C
1800
1800
1800
1800
180C
0C18
0E38
03E0
0000
0000
ENDCHAR

STARTCHAR jisx0208_2734
ENCODING 10036
SWIDTH 960 0
DWIDTH 16 0
BBX 16 16 0 -2
BITMAP
0000
0000
1FF8
1998
318C
0180
0180
0180
0180
0180
0180
0180
0180
03C0
0000
0000
ENDCHAR

STARTCHAR jisx0208_2735
ENCODING 10037
SWIDTH 960 0
DWIDTH 16 0
BBX 16 16 0 -2
BITMAP
0000
0000
0F3C
0618
0618
0330
0330
0160
0160
00C0
00C0
0D80
0D80
0700
0000
0000
ENDCHAR

STARTCHAR jisx0208_2736
ENCODING 10038
SWIDTH 960 0
DWIDTH 16 0
BBX 16 16 0 -2
BITMAP
0000
0000
03C0
0180
0FF0
1998
318C
318C
318C
318C
1998
0FF0
0180
03C0
0000
0000
ENDCHAR

STARTCHAR jisx0208_2737
ENCODING 10039
SWIDTH 960 0
DWIDTH 16 0
BBX 16 16 0 -2
BITMAP
0000
0000
1E3C
0C18
0630
0360
0360
01C0
01C0
0360
0360
0630
0C18
1E3C
0000
0000
ENDCHAR

STARTCHAR jisx0208_2738
ENCODING 10040
SWIDTH 960 0
DWIDTH 16 0
BBX 16 16 0 -2
BITMAP
0000
0000
1E3C
0C18
0C18
0C18
0C18
0C18
0C18
0C18
0C18
0C18
0C18
1FFC
000C
0000
ENDCHAR

STARTCHAR jisx0208_2739
ENCODING 10041
SWIDTH 960 0
DWIDTH 16 0
BBX 16 16 0 -2
BITMAP
0000
0000
1E3C
0C18
0C18
0C18
0C18
0C18
0C18
0638
03D8
0018
0018
003C
0000
0000
ENDCHAR

STARTCHAR jisx0208_273A
ENCODING 10042
SWIDTH 960 0
DWIDTH 16 0
BBX 16 16 0 -2
BITMAP
0000
0000
7BDE
318C
318C
318C
318C
318C
318C
318C
318C
318C
318C
7FFE
0000
0000
ENDCHAR

STARTCHAR jisx0208_273B
ENCODING 10043
SWIDTH 960 0
DWIDTH 16 0
BBX 16 16 0 -2
BITMAP
0000
0000
7BDE
318C
318C
318C
318C
318C
318C
318C
318C
318C
318C
7FFE
0006
0000
ENDCHAR

STARTCHAR jisx0208_273C
ENCODING 10044
SWIDTH 960 0
DWIDTH 16 0
BBX 16 16 0 -2
BITMAP
0000
0000
1F00
1600
3600
0600
07F0
0618
060C
060C
060C
060C
0618
0FF0
0000
0000
ENDCHAR

STARTCHAR jisx0208_273D
ENCODING 10045
SWIDTH 960 0
DWIDTH 16 0
BBX 16 16 0 -2
BITMAP
0000
0000
3C1E
180C
180C
180C
1F8C
18CC
186C
186C
186C
186C
18CC
3F9E
0000
0000
ENDCHAR

STARTCHAR jisx0208_273E
ENCODING 10046
SWIDTH 960 0
DWIDTH 16 0
BBX 16 16 0 -2
BITMAP
0000
0000
1E00
0C00
0C00
0C00
0FE0
0C30
0C18
0C18
0C18
0C18
0C30
1FE0
0000
0000
ENDCHAR

STARTCHAR jisx0208_273F
ENCODING 10047
SWIDTH 960 0
DWIDTH 16 0
BBX 16 16 0 -2
BITMAP
0000
0000
0BE0
0E38
1818
180C
000C
03FC
000C
000C
180C
0C18
0E38
03E0
0000
0000
ENDCHAR

STARTCHAR jisx0208_2740
ENCODING 10048
SWIDTH 960 0
DWIDTH 16 0
BBX 16 16 0 -2
BITMAP
0000
0000
3CF8
198C
1B06
1B06
1B06
1F06
1B06
1B06
1B06
1B06
198C
3CF8
0000
0000
ENDCHAR

STARTCHAR jisx0208_2741
ENCODING 10049
SWIDTH 960 0
DWIDTH 16 0
BBX 16 16 0 -2
BITMAP
0000
0000
03FC
0618
0C18
0C18
0C18
0618
03F8
0618
0618
0618
3618
1C3C
0000
0000
ENDCHAR

STARTCHAR jisx0208_2751
ENCODING 10065
SWIDTH 960 0
DWIDTH 16 0
BBX 16 16 0 -2
BITMAP
0000
0000
0000
0000
0000
0000
07E0
0E30
0030
03F0
0630
0C30
0C70
07B8
0000
0000
ENDCHAR

STARTCHAR jisx0208_2752
ENCODING 10066
SWIDTH 960 0
DWIDTH 16 0
BBX 16 16 0 -2
BITMAP
0000
0000
03D8
0670
0C00
0C00
0BE0
0E30
0C18
0C18
0C18
0C18
0630
03E0
0000
0000
ENDCHAR

STARTCHAR jisx0208_2753
ENCODING 10067
SWIDTH 960 0
DWIDTH 16 0
BBX 16 16 0 -2
BITMAP
0000
0000
0000
0000
0000
0000
0FE0
0630
0630
07F0
0618
0618
0618
0FF0
0000
0000
ENDCHAR

STARTCHAR jisx0208_2754
ENCODING 10068
SWIDTH 960 0
DWIDTH 16 0
BBX 16 16 0 -2
BITMAP
0000
0000
0000
0000
0000
0000
0FF0
0630
0618
0600
0600
0600
0600
0F00
0000
0000
ENDCHAR

STARTCHAR jisx0208_2755
ENCODING 10069
SWIDTH 960 0
DWIDTH 16 0
BBX 16 16 0 -2
BITMAP
0000
0000
0000
0000
0000
0000
07F8
0330
0330
0330
0330
0630
0630
0FF8
0C18
0000
ENDCHAR

STARTCHAR jisx0208_2756
ENCODING 10070
SWIDTH 960 0
DWIDTH 16 0
BBX 16 16 0 -2
BITMAP
0000
0000
0000
0000
0000
0000
07E0
0C30
0C30
0FF0
0C00
0C30
0C30
07E0
0000
0000
ENDCHAR

STARTCHAR jisx0208_2757
ENCODING 10071
SWIDTH 960 0
DWIDTH 16 0
BBX 16 16 0 -2
BITMAP
0000
0000
0000
06E0
06E0
0000
07E0
0C30
0C30
0FF0
0C00
0C30
0C30
07E0
0000
0000
ENDCHAR

STARTCHAR jisx0208_2758
ENCODING 10072
SWIDTH 960 0
DWIDTH 16 0
BBX 16 16 0 -2
BITMAP
0000
0000
0000
0000
0000
0000
1BB8
0DB0
0DB0
07E0
0560
0DB0
0DB0
1BB8
0000
0000
ENDCHAR

STARTCHAR jisx0208_2759
ENCODING 10073
SWIDTH 960 0
DWIDTH 16 0
BBX 16 16 0 -2
BITMAP
0000
0000
0000
0000
0000
0000
0BE0
0E30
0C30
01E0
0030
0C30
0630
03E0
0000
0000
ENDCHAR

STARTCHAR jisx0208_275A
ENCODING 10074
SWIDTH 960 0
DWIDTH 16 0
BBX 16 16 0 -2
BITMAP
0000
0000
0000
0000
0000
0000
1E38
0C70
0CB0
0DB0
0DB0
0B30
0E30
1C78
0000
0000
ENDCHAR

STARTCHAR jisx0208_275B
ENCODING 10075
SWIDTH 960 0
DWIDTH 16 0
BBX 16 16 0 -2
BITMAP
0000
0000
0000
0770
07F0
0000
1E38
0C70
0CB0
0DB0
0DB0
0B30
0E30
1C78
0000
0000
ENDCHAR

STARTCHAR jisx0208_275C
ENCODING 10076
SWIDTH 960 0
DWIDTH 16 0
BBX 16 16 0 -2
BITMAP
0000
0000
0000
0000
0000
0000
0F78
0660
0660
07C0
0660
0630
0630
0F78
0000
0000
ENDCHAR

STARTCHAR jisx0208_275D
ENCODING 10077
SWIDTH 960 0
DWIDTH 16 0
BBX 16 16 0 -2
BITMAP
0000
0000
0000
0000
0000
0000
07F0
0360
0360
0360
0360
0360
1B60
0EF0
0000
0000
ENDCHAR

STARTCHAR jisx0208_275E
ENCODING 10078
SWIDTH 960 0
DWIDTH 16 0
BBX 16 16 0 -2
BITMAP
0000
0000
0000
0000
0000
0000
1C38
0C30
0E70
0E70
0AB0
0AB0
0DB0
1D78
0000
0000
ENDCHAR

STARTCHAR jisx0208_275F
ENCODING 10079
SWIDTH 960 0
DWIDTH 16 0
BBX 16 16 0 -2
BITMAP
0000
0000
0000
0000
0000
0000
1E78
0C30
0C30
0FF0
0C30
0C30
0C30
1E78
0000
0000
ENDCHAR

STARTCHAR jisx0208_2760
ENCODING 10080
SWIDTH 960 0
DWIDTH 16 0
BBX 16 16 0 -2
BITMAP
0000
0000
0000
0000
0000
0000
07E0
0C30
0C30
0C30
0C30
0C30
0C30
07E0
0000
0000
ENDCHAR

STARTCHAR jisx0208_2761
ENCODING 10081
SWIDTH 960 0
DWIDTH 16 0
BBX 16 16 0 -2
BITMAP
0000
0000
0000
0000
0000
0000
0FF8
0630
0630
0630
0630
0630
0630
0F78
0000
0000
ENDCHAR

STARTCHAR jisx0208_2762
ENCODING 10082
SWIDTH 960 0
DWIDTH 16 0
BBX 16 16 0 -2
BITMAP
0000
0000
0000
0000
0000
0000
0DF0
0718
0618
0618
0618
0718
05F0
0600
0F00
0000
ENDCHAR

STARTCHAR jisx0208_2763
ENCODING 10083
SWIDTH 960 0
DWIDTH 16 0
BBX 16 16 0 -2
BITMAP
0000
0000
0000
0000
0000
0000
07E0
0C30
0C70
0C00
0C00
0C30
0C30
07E0
0000
0000
ENDCHAR

STARTCHAR jisx0208_2764
ENCODING 10084
SWIDTH 960 0
DWIDTH 16 0
BBX 16 16 0 -2
BITMAP
0000
0000
0000
0000
0000
0000
0FF0
0DB0
1998
0180
0180
0180
0180
03C0
0000
0000
ENDCHAR

STARTCHAR jisx0208_2765
ENCODING 10085
SWIDTH 960 0
DWIDTH 16 0
BBX 16 16 0 -2
BITMAP
0000
0000
0000
0000
0000
0000
0F78
0630
0660
0360
02C0
01C0
0180
0D80
0700
0000
ENDCHAR

STARTCHAR jisx0208_2766
ENCODING 10086
SWIDTH 960 0
DWIDTH 16 0
BBX 16 16 0 -2
BITMAP
0000
0000
0380
0180
0180
0180
0D70
1BD8
1998
1998
1998
1BD8
0D70
0180
03C0
0000
ENDCHAR

STARTCHAR jisx0208_2767
ENCODING 10087
SWIDTH 960 0
DWIDTH 16 0
BBX 16 16 0 -2
BITMAP
0000
0000
0000
0000
0000
0000
0F78
0630
0360
01C0
01C0
0360
0630
0F78
0000
0000
ENDCHAR

STARTCHAR jisx0208_2768
ENCODING 10088
SWIDTH 960 0
DWIDTH 16 0
BBX 16 16 0 -2
BITMAP
0000
0000
0000
0000
0000
0000
0F78
0630
0630
0630
0630
0630
0630
0FF8
0018
0000
ENDCHAR

STARTCHAR jisx0208_2769
ENCODING 10089
SWIDTH 960 0
DWIDTH 16 0
BBX 16 16 0 -2
BITMAP
0000
0000
0000
0000
0000
0000
0F78
0630
0630
0630
0670
03B0
0030
0078
0000
0000
ENDCHAR

STARTCHAR jisx0208_276A
ENCODING 10090
SWIDTH 960 0
DWIDTH 16 0
BBX 16 16 0 -2
BITMAP
0000
0000
0000
0000
0000
0000
3BBC
1998
1998
1998
1998
1998
1998
3FFC
0000
0000
ENDCHAR

STARTCHAR jisx0208_276B
ENCODING 10091
SWIDTH 960 0
DWIDTH 16 0
BBX 16 16 0 -2
BITMAP
0000
0000
0000
0000
0000
0000
3BBC
1998
1998
1998
1998
1998
1998
3FFC
000C
0000
ENDCHAR

STARTCHAR jisx0208_276C
ENCODING 10092
SWIDTH 960 0
DWIDTH 16 0
BBX 16 16 0 -2
BITMAP
0000
0000
0000
0000
0000
0000
0F80
0B00
1B00
03F0
0318
0318
0318
07F0
0000
0000
ENDCHAR

STARTCHAR jisx0208_276D
ENCODING 10093
SWIDTH 960 0
DWIDTH 16 0
BBX 16 16 0 -2
BITMAP
0000
0000
0000
0000
0000
0000
1E3C
0C18
0C18
0F98
0CD8
0CD8
0CD8
1FBC
0000
0000
ENDCHAR

STARTCHAR jisx0208_276E
ENCODING 10094
SWIDTH 960 0
DWIDTH 16 0
BBX 16 16 0 -2
BITMAP
0000
0000
0000
0000
0000
0000
0F00
0600
0600
07E0
0630
0630
0630
0FE0
0000
0000
ENDCHAR

STARTCHAR jisx0208_276F
ENCODING 10095
SWIDTH 960 0
DWIDTH 16 0
BBX 16 16 0 -2
BITMAP
0000
0000
0000
0000
0000
0000
07E0
0C30
0E30
01F0
0030
0C30
0C30
07E0
0000
0000
ENDCHAR

STARTCHAR jisx0208_2770
ENCODING 10096
SWIDTH 960 0
DWIDTH 16 0
BBX 16 16 0 -2
BITMAP
0000
0000
0000
0000
0000
0000
1EF0
0D98
0D98
0F98
0D98
0D98
0D98
1EF0
0000
0000
ENDCHAR

STARTCHAR jisx0208_2771
ENCODING 10097
SWIDTH 960 0
DWIDTH 16 0
BBX 16 16 0 -2
BITMAP
0000
0000
0000
0000
0000
0000
03F8
0630
0630
03F0
0630
0630
1630
0C78
0000
0000
ENDCHAR

STARTCHAR jisx0208_2821
ENCODING 10273
SWIDTH 960 0
DWIDTH 16 0
BBX 16 16 0 -2
BITMAP
0000
0000
0000
0000
0000
0000
0000
FFFF
0000
0000
0000
0000
0000
0000
0000
0000
ENDCHAR

STARTCHAR jisx0208_2822
ENCODING 10274
SWIDTH 960 0
DWIDTH 16 0
BBX 16 16 0 -2
BITMAP
0180
0180
0180
0180
0180
0180
0180
0180
0180
0180
0180
0180
0180
0180
0180
0180
ENDCHAR

STARTCHAR jisx0208_2823
ENCODING 10275
SWIDTH 960 0
DWIDTH 16 0
BBX 16 16 0 -2
BITMAP
0000
0000
0000
0000
0000
0000
0000
01FF
0180
0180
0180
0180
0180
0180
0180
0180
ENDCHAR

STARTCHAR jisx0208_2824
ENCODING 10276
SWIDTH 960 0
DWIDTH 16 0
BBX 16 16 0 -2
BITMAP
0000
0000
0000
0000
0000
0000
0000
FF80
0180
0180
0180
0180
0180
0180
0180
0180
ENDCHAR

STARTCHAR jisx0208_2825
ENCODING 10277
SWIDTH 960 0
DWIDTH 16 0
BBX 16 16 0 -2
BITMAP
0180
0180
0180
0180
0180
0180
0180
FF80
0000
0000
0000
0000
0000
0000
0000
0000
ENDCHAR

STARTCHAR jisx0208_2826
ENCODING 10278
SWIDTH 960 0
DWIDTH 16 0
BBX 16 16 0 -2
BITMAP
0180
0180
0180
0180
0180
0180
0180
01FF
0000
0000
0000
0000
0000
0000
0000
0000
ENDCHAR

STARTCHAR jisx0208_2827
ENCODING 10279
SWIDTH 960 0
DWIDTH 16 0
BBX 16 16 0 -2
BITMAP
0180
0180
0180
0180
0180
0180
0180
01FF
0180
0180
0180
0180
0180
0180
0180
0180
ENDCHAR

STARTCHAR jisx0208_2828
ENCODING 10280
SWIDTH 960 0
DWIDTH 16 0
BBX 16 16 0 -2
BITMAP
0000
0000
0000
0000
0000
0000
0000
FFFF
0180
0180
0180
0180
0180
0180
0180
0180
ENDCHAR

STARTCHAR jisx0208_2829
ENCODING 10281
SWIDTH 960 0
DWIDTH 16 0
BBX 16 16 0 -2
BITMAP
0180
0180
0180
0180
0180
0180
0180
FF80
0180
0180
0180
0180
0180
0180
0180
0180
ENDCHAR

STARTCHAR jisx0208_282A
ENCODING 10282
SWIDTH 960 0
DWIDTH 16 0
BBX 16 16 0 -2
BITMAP
0180
0180
0180
0180
0180
0180
0180
FFFF
0000
0000
0000
0000
0000
0000
0000
0000
ENDCHAR

STARTCHAR jisx0208_282B
ENCODING 10283
SWIDTH 960 0
DWIDTH 16 0
BBX 16 16 0 -2
BITMAP
0180
0180
0180
0180
0180
0180
0180
FFFF
0180
0180
0180
0180
0180
0180
0180
0180
ENDCHAR

STARTCHAR jisx0208_282C
ENCODING 10284
SWIDTH 960 0
DWIDTH 16 0
BBX 16 16 0 -2
BITMAP
0000
0000
0000
0000
0000
0000
0000
FFFF
FFFF
0000
0000
0000
0000
0000
0000
0000
ENDCHAR

STARTCHAR jisx0208_282D
ENCODING 10285
SWIDTH 960 0
DWIDTH 16 0
BBX 16 16 0 -2
BITMAP
01C0
01C0
01C0
01C0
01C0
01C0
01C0
01C0
01C0
01C0
01C0
01C0
01C0
01C0
01C0
01C0
ENDCHAR

STARTCHAR jisx0208_282E
ENCODING 10286
SWIDTH 960 0
DWIDTH 16 0
BBX 16 16 0 -2
BITMAP
0000
0000
0000
0000
0000
0000
0000
01FF
01FF
01C0
01C0
01C0
01C0
01C0
01C0
01C0
ENDCHAR

STARTCHAR jisx0208_282F
ENCODING 10287
SWIDTH 960 0
DWIDTH 16 0
BBX 16 16 0 -2
BITMAP
0000
0000
0000
0000
0000
0000
0000
FFC0
FFC0
01C0
01C0
01C0
01C0
01C0
01C0
01C0
ENDCHAR

STARTCHAR jisx0208_2830
ENCODING 10288
SWIDTH 960 0
DWIDTH 16 0
BBX 16 16 0 -2
BITMAP
01C0
01C0
01C0
01C0
01C0
01C0
01C0
FFC0
FFC0
0000
0000
0000
0000
0000
0000
0000
ENDCHAR

STARTCHAR jisx0208_2831
ENCODING 10289
SWIDTH 960 0
DWIDTH 16 0
BBX 16 16 0 -2
BITMAP
01C0
01C0
01C0
01C0
01C0
01C0
01C0
01FF
01FF
0000
0000
0000
0000
0000
0000
0000
ENDCHAR

STARTCHAR jisx0208_2832
ENCODING 10290
SWIDTH 960 0
DWIDTH 16 0
BBX 16 16 0 -2
BITMAP
01C0
01C0
01C0
01C0
01C0
01C0
01C0
01FF
01FF
01C0
01C0
01C0
01C0
01C0
01C0
01C0
ENDCHAR

STARTCHAR jisx0208_2833
ENCODING 10291
SWIDTH 960 0
DWIDTH 16 0
BBX 16 16 0 -2
BITMAP
0000
0000
0000
0000
0000
0000
0000
FFFF
FFFF
01C0
01C0
01C0
01C0
01C0
01C0
01C0
ENDCHAR

STARTCHAR jisx0208_2834
ENCODING 10292
SWIDTH 960 0
DWIDTH 16 0
BBX 16 16 0 -2
BITMAP
01C0
01C0
01C0
01C0
01C0
01C0
01C0
FFC0
FFC0
01C0
01C0
01C0
01C0
01C0
01C0
01C0
ENDCHAR

STARTCHAR jisx0208_2835
ENCODING 10293
SWIDTH 960 0
DWIDTH 16 0
BBX 16 16 0 -2
BITMAP
01C0
01C0
01C0
01C0
01C0
01C0
01C0
FFFF
FFFF
0000
0000
0000
0000
0000
0000
0000
ENDCHAR

STARTCHAR jisx0208_2836
ENCODING 10294
SWIDTH 960 0
DWIDTH 16 0
BBX 16 16 0 -2
BITMAP
01C0
01C0
01C0
01C0
01C0
01C0
01C0
FFFF
FFFF
01C0
01C0
01C0
01C0
01C0
01C0
01C0
ENDCHAR

STARTCHAR jisx0208_2837
ENCODING 10295
SWIDTH 960 0
DWIDTH 16 0
BBX 16 16 0 -2
BITMAP
01C0
01C0
01C0
01C0
01C0
01C0
01C0
01FF
01C0
01C0
01C0
01C0
01C0
01C0
01C0
01C0
ENDCHAR

STARTCHAR jisx0208_2838
ENCODING 10296
SWIDTH 960 0
DWIDTH 16 0
BBX 16 16 0 -2
BITMAP
0000
0000
0000
0000
0000
0000
0000
FFFF
FFFF
0180
0180
0180
0180
0180
0180
0180
ENDCHAR

STARTCHAR jisx0208_2839
ENCODING 10297
SWIDTH 960 0
DWIDTH 16 0
BBX 16 16 0 -2
BITMAP
01C0
01C0
01C0
01C0
01C0
01C0
01C0
FFC0
01C0
01C0
01C0
01C0
01C0
01C0
01C0
01C0
ENDCHAR

STARTCHAR jisx0208_283A
ENCODING 10298
SWIDTH 960 0
DWIDTH 16 0
BBX 16 16 0 -2
BITMAP
0180
0180
0180
0180
0180
0180
0180
FFFF
FFFF
0000
0000
0000
0000
0000
0000
0000
ENDCHAR

STARTCHAR jisx0208_283B
ENCODING 10299
SWIDTH 960 0
DWIDTH 16 0
BBX 16 16 0 -2
BITMAP
0180
0180
0180
0180
0180
0180
0180
FFFF
FFFF
0180
0180
0180
0180
0180
0180
0180
ENDCHAR

STARTCHAR jisx0208_283C
ENCODING 10300
SWIDTH 960 0
DWIDTH 16 0
BBX 16 16 0 -2
BITMAP
0180
0180
0180
0180
0180
0180
0180
01FF
01FF
0180
0180
0180
0180
0180
0180
0180
ENDCHAR

STARTCHAR jisx0208_283D
ENCODING 10301
SWIDTH 960 0
DWIDTH 16 0
BBX 16 16 0 -2
BITMAP
0000
0000
0000
0000
0000
0000
0000
FFFF
01C0
01C0
01C0
01C0
01C0
01C0
01C0
01C0
ENDCHAR

STARTCHAR jisx0208_283E
ENCODING 10302
SWIDTH 960 0
DWIDTH 16 0
BBX 16 16 0 -2
BITMAP
0180
0180
0180
0180
0180
0180
0180
FF80
FF80
0180
0180
0180
0180
0180
0180
0180
ENDCHAR

STARTCHAR jisx0208_283F
ENCODING 10303
SWIDTH 960 0
DWIDTH 16 0
BBX 16 16 0 -2
BITMAP
01C0
01C0
01C0
01C0
01C0
01C0
01C0
FFFF
0000
0000
0000
0000
0000
0000
0000
0000
ENDCHAR

STARTCHAR jisx0208_2840
ENCODING 10304
SWIDTH 960 0
DWIDTH 16 0
BBX 16 16 0 -2
BITMAP
01C0
01C0
01C0
01C0
01C0
01C0
01C0
FFFF
01C0
01C0
01C0
01C0
01C0
01C0
01C0
01C0
ENDCHAR

STARTCHAR jisx0208_2D21
ENCODING 11553
SWIDTH 960 0
DWIDTH 16 0
BBX 16 16 0 -2
BITMAP
0000
0FE0
3838
600C
618C
C786
C186
C186
C186
C186
C186
618C
600C
3838
0FE0
0000
ENDCHAR

STARTCHAR jisx0208_2D22
ENCODING 11554
SWIDTH 960 0
DWIDTH 16 0
BBX 16 16 0 -2
BITMAP
0000
0FE0
3838
600C
67CC
CC66
CC66
C066
C1C6
C706
CC06
6FEC
600C
3838
0FE0
0000
ENDCHAR

STARTCHAR jisx0208_2D23
ENCODING 11555
SWIDTH 960 0
DWIDTH 16 0
BBX 16 16 0 -2
BITMAP
0000
0FE0
3838
600C
6FCC
D866
C066
C7C6
C066
C066
D866
6FCC
600C
3838
0FE0
0000
ENDCHAR

STARTCHAR jisx0208_2D24
ENCODING 11556
SWIDTH 960 0
DWIDTH 16 0
BBX 16 16 0 -2
BITMAP
0000
0FE0
3838
600C
60CC
C1C6
C2C6
C6C6
CCC6
DFF6
C0C6
60CC
600C
3838
0FE0
0000
ENDCHAR

STARTCHAR jisx0208_2D25
ENCODING 11557
SWIDTH 960 0
DWIDTH 16 0
BBX 16 16 0 -2
BITMAP
0000
0FE0
3838
600C
6FEC
CC06
CC06
CFC6
CC66
C066
CC66
67CC
600C
3838
0FE0
0000
ENDCHAR

STARTCHAR jisx0208_2D26
ENCODING 11558
SWIDTH 960 0
DWIDTH 16 0
BBX 16 16 0 -2
BITMAP
0000
0FE0
3838
600C
67CC
CC66
CC06
CFC6
CC66
CC66
CC66
67CC
600C
3838
0FE0
0000
ENDCHAR

STARTCHAR jisx0208_2D27
ENCODING 11559
SWIDTH 960 0
DWIDTH 16 0
BBX 16 16 0 -2
BITMAP
0000
0FE0
3838
600C
6FEC
C0C6
C0C6
C186
C186
C306
C306
630C
600C
3838
0FE0
0000
ENDCHAR

STARTCHAR jisx0208_2D28
ENCODING 11560
SWIDTH 960 0
DWIDTH 16 0
BBX 16 16 0 -2
BITMAP
0000
0FE0
3838
600C
67CC
CC66
CC66
C7C6
CC66
CC66
CC66
67CC
600C
3838
0FE0
0000
ENDCHAR

STARTCHAR jisx0208_2D29
ENCODING 11561
SWIDTH 960 0
DWIDTH 16 0
BBX 16 16 0 -2
BITMAP
0000
0FE0
3838
600C
67CC
CC66
CC66
CC66
C7E6
C066
CC66
67CC
600C
3838
0FE0
0000
ENDCHAR

STARTCHAR jisx0208_2D2A
ENCODING 11562
SWIDTH 960 0
DWIDTH 16 0
BBX 16 16 0 -2
BITMAP
0000
0FE0
3838
600C
59EC
BB36
DB36
DB36
DB36
DB36
DB36
59EC
600C
3838
0FE0
0000
ENDCHAR

STARTCHAR jisx0208_2D2B
ENCODING 11563
SWIDTH 960 0
DWIDTH 16 0
BBX 16 16 0 -2
BITMAP
0000
0FE0
3838
600C
586C
B8E6
D866
D866
D866
D866
D866
586C
600C
3838
0FE0
0000
ENDCHAR

STARTCHAR jisx0208_2D2C
ENCODING 11564
SWIDTH 960 0
DWIDTH 16 0
BBX 16 16 0 -2
BITMAP
0000
0FE0
3838
600C
59EC
BB36
DB36
D836
D866
D8C6
D986
5BEC
600C
3838
0FE0
0000
ENDCHAR

STARTCHAR jisx0208_2D2D
ENCODING 11565
SWIDTH 960 0
DWIDTH 16 0
BBX 16 16 0 -2
BITMAP
0000
0FE0
3838
600C
59EC
BB36
D836
D9E6
D836
D836
DB36
59EC
600C
3838
0FE0
0000
ENDCHAR

STARTCHAR jisx0208_2D2E
ENCODING 11566
SWIDTH 960 0
DWIDTH 16 0
BBX 16 16 0 -2
BITMAP
0000
0FE0
3838
600C
586C
B8E6
D966
D966
DB66
D7F6
D866
586C
600C
3838
0FE0
0000
ENDCHAR

STARTCHAR jisx0208_2D2F
ENCODING 11567
SWIDTH 960 0
DWIDTH 16 0
BBX 16 16 0 -2
BITMAP
0000
0FE0
3838
600C
5BEC
BB06
DB06
DBE6
DB36
D836
DB36
59EC
600C
3838
0FE0
0000
ENDCHAR

STARTCHAR jisx0208_2D30
ENCODING 11568
SWIDTH 960 0
DWIDTH 16 0
BBX 16 16 0 -2
BITMAP
0000
0FE0
3838
600C
59EC
BB36
DB06
DBE6
DB36
DB36
DB36
59EC
600C
3838
0FE0
0000
ENDCHAR

STARTCHAR jisx0208_2D31
ENCODING 11569
SWIDTH 960 0
DWIDTH 16 0
BBX 16 16 0 -2
BITMAP
0000
0FE0
3838
600C
5BEC
B836
D866
D866
D8C6
D8C6
D8C6
58CC
600C
3838
0FE0
0000
ENDCHAR

STARTCHAR jisx0208_2D32
ENCODING 11570
SWIDTH 960 0
DWIDTH 16 0
BBX 16 16 0 -2
BITMAP
0000
0FE0
3838
600C
59EC
BB36
DB36
D9E6
DB36
DB36
DB36
59EC
600C
3838
0FE0
0000
ENDCHAR

STARTCHAR jisx0208_2D33
ENCODING 11571
SWIDTH 960 0
DWIDTH 16 0
BBX 16 16 0 -2
BITMAP
0000
0FE0
3838
600C
59EC
BB36
DB36
DB36
D9F6
D836
DB36
59EC
600C
3838
0FE0
0000
ENDCHAR

STARTCHAR jisx0208_2D34
ENCODING 11572
SWIDTH 960 0
DWIDTH 16 0
BBX 16 16 0 -2
BITMAP
0000
0FE0
3838
600C
5CEC
B5B6
B5B6
C5B6
CDB6
D9B6
B1B6
7EEC
600C
3838
0FE0
0000
ENDCHAR

STARTCHAR jisx0208_2D35
ENCODING 11573
SWIDTH 960 0
DWIDTH 16 0
BBX 16 16 0 -2
BITMAP
0000
0000
0300
0300
0300
0300
0300
0300
0300
0300
0300
0300
0300
0300
0000
0000
ENDCHAR

STARTCHAR jisx0208_2D36
ENCODING 11574
SWIDTH 960 0
DWIDTH 16 0
BBX 16 16 0 -2
BITMAP
0000
0000
0CC0
0CC0
0CC0
0CC0
0CC0
0CC0
0CC0
0CC0
0CC0
0CC0
0CC0
0CC0
0000
0000
ENDCHAR

STARTCHAR jisx0208_2D37
ENCODING 11575
SWIDTH 960 0
DWIDTH 16 0
BBX 16 16 0 -2
BITMAP
0000
0000
3330
3330
3330
3330
3330
3330
3330
3330
3330
3330
3330
3330
0000
0000
ENDCHAR

STARTCHAR jisx0208_2D38
ENCODING 11576
SWIDTH 960 0
DWIDTH 16 0
BBX 16 16 0 -2
BITMAP
0000
0000
6C0C
6C0C
6618
6618
6618
6330
6330
6330
6160
6160
60C0
60C0
0000
0000
ENDCHAR

STARTCHAR jisx0208_2D39
ENCODING 11577
SWIDTH 960 0
DWIDTH 16 0
BBX 16 16 0 -2
BITMAP
0000
0000
3018
3018
1830
1830
1830
0C60
0C60
06C0
06C0
06C0
0380
0380
0000
0000
ENDCHAR

STARTCHAR jisx0208_2D3A
ENCODING 11578
SWIDTH 960 0
DWIDTH 16 0
BBX 16 16 0 -2
BITMAP
0000
0000
606C
606C
30CC
30CC
30CC
198C
198C
198C
0B0C
0B0C
060C
060C
0000
0000
ENDCHAR

STARTCHAR jisx0208_2D3B
ENCODING 11579
SWIDTH 960 0
DWIDTH 16 0
BBX 16 16 0 -2
BITMAP
0000
0000
C36C
C36C
C36C
C36C
666C
666C
666C
2C6C
2C6C
2C6C
186C
186C
0000
0000
ENDCHAR

STARTCHAR jisx0208_2D3C
ENCODING 11580
SWIDTH 960 0
DWIDTH 16 0
BBX 16 16 0 -2
BITMAP
0000
0000
CB6C
CB6C
CB6C
CB6C
CB6C
5B6C
5B6C
5B6C
5B6C
336C
336C
336C
0000
0000
ENDCHAR

STARTCHAR jisx0208_2D3D
ENCODING 11581
SWIDTH 960 0
DWIDTH 16 0
BBX 16 16 0 -2
BITMAP
0000
0000
360C
3318
3318
31B0
31B0
30E0
30E0
31B0
31B0
3318
3318
360C
0000
0000
ENDCHAR

STARTCHAR jisx0208_2D3E
ENCODING 11582
SWIDTH 960 0
DWIDTH 16 0
BBX 16 16 0 -2
BITMAP
0000
0000
3030
1860
0CC0
0CC0
0580
0300
0580
0580
0CC0
1860
1860
3030
0000
0000
ENDCHAR

STARTCHAR jisx0208_2D40
ENCODING 11584
SWIDTH 960 0
DWIDTH 16 0
BBX 16 16 0 -2
BITMAP
0000
7800
0C00
7800
0C00
0000
F800
0E00
00CC
00CC
00CC
00CC
000C
0018
0070
0000
ENDCHAR

STARTCHAR jisx0208_2D41
ENCODING 11585
SWIDTH 960 0
DWIDTH 16 0
BBX 16 16 0 -2
BITMAP
0000
3000
3000
FE00
1800
FF00
1800
1800
1800
00FE
00C6
00C6
00C6
00FE
00C6
0000
ENDCHAR

STARTCHAR jisx0208_2D42
ENCODING 11586
SWIDTH 960 0
DWIDTH 16 0
BBX 16 16 0 -2
BITMAP
0000
60C0
7E60
E606
6C0C
6018
7EF0
0000
0E00
7800
1800
FF00
1800
1800
7000
0000
ENDCHAR

STARTCHAR jisx0208_2D43
ENCODING 11587
SWIDTH 960 0
DWIDTH 16 0
BBX 16 16 0 -2
BITMAP
0000
0600
3600
1C00
1CFE
3600
E000
0000
3030
30B0
38B0
2CB0
30B6
30AC
31B8
0000
ENDCHAR

STARTCHAR jisx0208_2D44
ENCODING 11588
SWIDTH 960 0
DWIDTH 16 0
BBX 16 16 0 -2
BITMAP
0000
357C
3D80
66FE
C606
0C0C
1818
7070
0000
1800
1800
3000
3600
6700
FB00
0000
ENDCHAR

STARTCHAR jisx0208_2D45
ENCODING 11589
SWIDTH 960 0
DWIDTH 16 0
BBX 16 16 0 -2
BITMAP
0000
3000
3000
3000
3C00
3600
3000
3000
30C0
0060
0006
000C
0018
0030
00E0
0000
ENDCHAR

STARTCHAR jisx0208_2D46
ENCODING 11590
SWIDTH 960 0
DWIDTH 16 0
BBX 16 16 0 -2
BITMAP
0000
FF00
0300
1600
18FE
1800
3000
6000
1800
5800
5800
5800
5B00
5600
DC00
0000
ENDCHAR

STARTCHAR jisx0208_2D47
ENCODING 11591
SWIDTH 960 0
DWIDTH 16 0
BBX 16 16 0 -2
BITMAP
0000
0030
303E
5866
CCC6
060C
0318
0070
3018
3C58
6C58
AB58
1856
2C5C
E0D8
0000
ENDCHAR

STARTCHAR jisx0208_2D48
ENCODING 11592
SWIDTH 960 0
DWIDTH 16 0
BBX 16 16 0 -2
BITMAP
0000
6600
6600
66AC
66AC
0618
0C70
3800
3030
30B0
38B0
2CB0
30B6
30AC
31B8
0000
ENDCHAR

STARTCHAR jisx0208_2D49
ENCODING 11593
SWIDTH 960 0
DWIDTH 16 0
BBX 16 16 0 -2
BITMAP
0000
FE00
C600
C6AC
06AC
0C18
3870
0000
3000
3000
3800
2C00
3000
3000
3000
0000
ENDCHAR

STARTCHAR jisx0208_2D4A
ENCODING 11594
SWIDTH 960 0
DWIDTH 16 0
BBX 16 16 0 -2
BITMAP
0000
3000
FEFE
36C6
36C6
36C6
66FE
DCC6
6600
6600
6600
66FE
0600
0C00
3800
0000
ENDCHAR

STARTCHAR jisx0208_2D4B
ENCODING 11595
SWIDTH 960 0
DWIDTH 16 0
BBX 16 16 0 -2
BITMAP
0000
6B00
6B00
6000
7800
6C00
6000
6000
6030
00B0
00B0
00B0
00B6
00AC
01B8
0000
ENDCHAR

STARTCHAR jisx0208_2D4C
ENCODING 11596
SWIDTH 960 0
DWIDTH 16 0
BBX 16 16 0 -2
BITMAP
0000
60C0
7E60
E606
6C0C
6018
7EF0
0000
3000
3000
3800
2C00
3000
3000
3000
0000
ENDCHAR

STARTCHAR jisx0208_2D4D
ENCODING 11597
SWIDTH 960 0
DWIDTH 16 0
BBX 16 16 0 -2
BITMAP
0000
0300
6D80
6B00
667E
C600
C600
0000
6018
7B18
ED5C
5856
6058
60D8
7B98
0000
ENDCHAR

STARTCHAR jisx0208_2D4E
ENCODING 11598
SWIDTH 960 0
DWIDTH 16 0
BBX 16 16 0 -2
BITMAP
0000
78CC
0CCC
78CC
0CCC
000C
F818
0E70
0018
0E58
5858
5B58
6C56
CC5C
CCD8
0000
ENDCHAR

STARTCHAR jisx0208_2D4F
ENCODING 11599
SWIDTH 960 0
DWIDTH 16 0
BBX 16 16 0 -2
BITMAP
0000
0600
2B00
5600
CCFE
0600
0300
0000
6700
3000
C300
6600
0C00
1800
7000
0000
ENDCHAR

STARTCHAR jisx0208_2D50
ENCODING 11600
SWIDTH 960 0
DWIDTH 16 0
BBX 16 16 0 -2
BITMAP
0000
0000
0000
0000
0000
0000
DDB8
B56C
B56C
B56C
B56C
B56C
B56C
B56C
0000
0000
ENDCHAR

STARTCHAR jisx0208_2D51
ENCODING 11601
SWIDTH 960 0
DWIDTH 16 0
BBX 16 16 0 -2
BITMAP
0000
0000
0000
0000
0000
0000
7BB8
CB6C
CB6C
C36C
C36C
CB6C
CB6C
7B6C
0000
0000
ENDCHAR

STARTCHAR jisx0208_2D52
ENCODING 11602
SWIDTH 960 0
DWIDTH 16 0
BBX 16 16 0 -2
BITMAP
0000
0000
C000
C000
C000
C000
CBB8
DB6C
B36C
F36C
DB6C
DB6C
CB6C
CB6C
0000
0000
ENDCHAR

STARTCHAR jisx0208_2D53
ENCODING 11603
SWIDTH 960 0
DWIDTH 16 0
BBX 16 16 0 -2
BITMAP
0000
0000
0000
0000
0000
0000
EE7C
DACC
DACC
DACC
DACC
DB7C
DB0C
DACC
0078
0000
ENDCHAR

STARTCHAR jisx0208_2D54
ENCODING 11604
SWIDTH 960 0
DWIDTH 16 0
BBX 16 16 0 -2
BITMAP
0000
0000
6000
6000
6000
6000
667C
6CCC
58CC
78CC
6CCC
6C7C
660C
66CC
0078
0000
ENDCHAR

STARTCHAR jisx0208_2D55
ENCODING 11605
SWIDTH 960 0
DWIDTH 16 0
BBX 16 16 0 -2
BITMAP
0000
0000
0000
0000
0000
0000
3C78
66CC
66CC
60C0
60C0
66CC
66CC
3C78
0000
0000
ENDCHAR

STARTCHAR jisx0208_2D56
ENCODING 11606
SWIDTH 960 0
DWIDTH 16 0
BBX 16 16 0 -2
BITMAP
0000
001C
0036
000C
0018
003E
2EE0
3BB0
3330
3330
3330
3330
3330
3330
0000
0000
ENDCHAR

STARTCHAR jisx0208_2D5F
ENCODING 11615
SWIDTH 960 0
DWIDTH 16 0
BBX 16 16 0 -2
BITMAP
0000
002C
FF36
1830
55FE
55B0
55AC
55EC
196C
FF6C
1958
1958
19D6
1B2E
1B66
0000
ENDCHAR

STARTCHAR jisx0208_2D60
ENCODING 11616
SWIDTH 960 0
DWIDTH 16 0
BBX 16 16 0 -2
BITMAP
0000
002C
002C
0058
0058
0000
0000
0000
0000
0000
0000
0000
0000
0000
0000
0000
ENDCHAR

STARTCHAR jisx0208_2D61
ENCODING 11617
SWIDTH 960 0
DWIDTH 16 0
BBX 16 16 0 -2
BITMAP
0000
0000
0000
0000
0000
0000
0000
0000
0000
0000
0000
2C00
2C00
5800
5800
0000
ENDCHAR

STARTCHAR jisx0208_2D62
ENCODING 11618
SWIDTH 960 0
DWIDTH 16 0
BBX 16 16 0 -2
BITMAP
0000
0000
C600
C600
E600
E600
B6F0
B598
D598
D598
CD98
CD98
C596
C6F6
0000
0000
ENDCHAR

STARTCHAR jisx0208_2D63
ENCODING 11619
SWIDTH 960 0
DWIDTH 16 0
BBX 16 16 0 -2
BITMAP
0000
0000
6CD8
6CD8
58B0
58B0
70E0
70E0
58B0
58B0
58B0
6CD8
6AD6
6AD6
0000
0000
ENDCHAR

STARTCHAR jisx0208_2D64
ENCODING 11620
SWIDTH 960 0
DWIDTH 16 0
BBX 16 16 0 -2
BITMAP
0000
0000
FFB0
3630
3630
3630
3630
37B0
3630
3630
3630
3630
3630
37BE
0000
0000
ENDCHAR

STARTCHAR jisx0208_2D65
ENCODING 11621
SWIDTH 960 0
DWIDTH 16 0
BBX 16 16 0 -2
BITMAP
0000
07C0
1C70
3318
630C
630C
C3F6
C306
C306
C306
630C
7FFC
3018
1C70
07C0
0000
ENDCHAR

STARTCHAR jisx0208_2D66
ENCODING 11622
SWIDTH 960 0
DWIDTH 16 0
BBX 16 16 0 -2
BITMAP
0000
07C0
1C70
3318
630C
7FEC
B336
B336
B336
BFF6
630C
630C
3318
1C70
07C0
0000
ENDCHAR

STARTCHAR jisx0208_2D67
ENCODING 11623
SWIDTH 960 0
DWIDTH 16 0
BBX 16 16 0 -2
BITMAP
0000
07C0
1C70
3018
7FFC
630C
C306
C3C6
C366
C306
630C
630C
3318
1C70
07C0
0000
ENDCHAR

STARTCHAR jisx0208_2D68
ENCODING 11624
SWIDTH 960 0
DWIDTH 16 0
BBX 16 16 0 -2
BITMAP
0000
07C0
1B70
3318
7FFC
660C
C606
CFF6
CD86
D986
718C
6FFC
3018
1C70
07C0
0000
ENDCHAR

STARTCHAR jisx0208_2D69
ENCODING 11625
SWIDTH 960 0
DWIDTH 16 0
BBX 16 16 0 -2
BITMAP
0000
07C0
1B70
3318
7FFC
660C
C606
CFF6
CE36
D636
762C
67EC
3018
1C70
07C0
0000
ENDCHAR

STARTCHAR jisx0208_2D6A
ENCODING 11626
SWIDTH 960 0
DWIDTH 16 0
BBX 16 16 0 -2
BITMAP
0000
3018
5ACC
5ACC
FBF6
D6C6
B8C6
BBF6
D6C6
D9E6
DAB6
DAB6
56DC
58CC
38D8
0000
ENDCHAR

STARTCHAR jisx0208_2D6B
ENCODING 11627
SWIDTH 960 0
DWIDTH 16 0
BBX 16 16 0 -2
BITMAP
0000
3018
660C
660C
FFF6
CC06
DFE6
DC66
AFE6
EC66
CFE6
CC66
6C6C
6DEC
3018
0000
ENDCHAR

STARTCHAR jisx0208_2D6C
ENCODING 11628
SWIDTH 960 0
DWIDTH 16 0
BBX 16 16 0 -2
BITMAP
0000
3018
6D6C
6DAC
D986
D9F6
B786
B986
D986
D986
D9B6
D8B6
58AC
586C
3018
0000
ENDCHAR

STARTCHAR jisx0208_2D6D
ENCODING 11629
SWIDTH 960 0
DWIDTH 16 0
BBX 16 16 0 -2
BITMAP
0000
0ED8
EB58
AB18
ABB6
AEB6
EB2E
AB76
AAC0
AEBE
EAB6
0AB6
0AB6
1AB6
16BE
0000
ENDCHAR

STARTCHAR jisx0208_2D6E
ENCODING 11630
SWIDTH 960 0
DWIDTH 16 0
BBX 16 16 0 -2
BITMAP
0000
1800
19FE
1830
FF30
1830
18B0
18B0
18BE
2CB0
2CB0
2CB0
66B0
66B0
C3FE
0000
ENDCHAR

STARTCHAR jisx0208_2D6F
ENCODING 11631
SWIDTH 960 0
DWIDTH 16 0
BBX 16 16 0 -2
BITMAP
0000
1F38
EBE0
AB5E
AB56
ABF6
EB56
B6D6
B0F6
AF56
AB56
EB56
0B56
0B5E
0F60
0000
ENDCHAR

STARTCHAR jisx0208_2D70
ENCODING 11632
SWIDTH 960 0
DWIDTH 16 0
BBX 16 16 0 -2
BITMAP
0000
0000
0000
0E00
0E00
0000
3FF8
0000
0000
3FF8
0000
00E0
00E0
0000
0000
0000
ENDCHAR

STARTCHAR jisx0208_2D71
ENCODING 11633
SWIDTH 960 0
DWIDTH 16 0
BBX 16 16 0 -2
BITMAP
0000
0000
0000
0000
3FF8
0000
0000
3FF8
0000
0000
3FF8
0000
0000
0000
0000
0000
ENDCHAR

STARTCHAR jisx0208_2D72
ENCODING 11634
SWIDTH 960 0
DWIDTH 16 0
BBX 16 16 0 -2
BITMAP
0000
0380
06C0
0600
0600
0600
0300
0300
0300
0300
0180
0180
0180
0D80
0700
0000
ENDCHAR

STARTCHAR jisx0208_2D73
ENCODING 11635
SWIDTH 960 0
DWIDTH 16 0
BBX 16 16 0 -2
BITMAP
0000
0380
06C0
0600
0600
0780
0AC0
1B60
1B60
0AC0
0780
0180
0180
0D80
0700
0000
ENDCHAR

STARTCHAR jisx0208_2D74
ENCODING 11636
SWIDTH 960 0
DWIDTH 16 0
BBX 16 16 0 -2
BITMAP
0000
0000
3FF0
1800
0C00
0600
0300
0180
0180
0300
0600
0C00
1800
3FF0
0000
0000
ENDCHAR

STARTCHAR jisx0208_2D75
ENCODING 11637
SWIDTH 960 0
DWIDTH 16 0
BBX 16 16 0 -2
BITMAP
0000
01FE
0180
0180
0180
0300
0300
0300
3600
7600
D600
1C00
0C00
0C00
0000
0000
ENDCHAR

STARTCHAR jisx0208_2D76
ENCODING 11638
SWIDTH 960 0
DWIDTH 16 0
BBX 16 16 0 -2
BITMAP
0000
0000
0000
0300
0300
0300
0300
0300
0300
0300
0300
0300
7FF8
0000
0000
0000
ENDCHAR

STARTCHAR jisx0208_2D77
ENCODING 11639
SWIDTH 960 0
DWIDTH 16 0
BBX 16 16 0 -2
BITMAP
0000
0000
0000
0018
0030
0060
00C0
0180
0300
0600
0C00
1800
3FF8
0000
0000
0000
ENDCHAR

STARTCHAR jisx0208_2D78
ENCODING 11640
SWIDTH 960 0
DWIDTH 16 0
BBX 16 16 0 -2
BITMAP
0000
0000
0000
3000
3000
3000
3000
3000
3000
3000
3000
3000
3FF8
0000
0000
0000
ENDCHAR

STARTCHAR jisx0208_2D79
ENCODING 11641
SWIDTH 960 0
DWIDTH 16 0
BBX 16 16 0 -2
BITMAP
0000
0000
0000
0018
0038
0058
00D8
0198
0318
0618
0C18
1818
3FF8
0000
0000
0000
ENDCHAR

STARTCHAR jisx0208_2D7A
ENCODING 11642
SWIDTH 960 0
DWIDTH 16 0
BBX 16 16 0 -2
BITMAP
0000
0000
0000
0000
3838
3838
0000
0000
0000
0000
0000
0380
0380
0000
0000
0000
ENDCHAR

STARTCHAR jisx0208_2D7B
ENCODING 11643
SWIDTH 960 0
DWIDTH 16 0
BBX 16 16 0 -2
BITMAP
0000
0000
0000
07C0
0C60
1830
1830
1830
1830
1830
1830
1830
1830
0000
0000
0000
ENDCHAR

STARTCHAR jisx0208_2D7C
ENCODING 11644
SWIDTH 960 0
DWIDTH 16 0
BBX 16 16 0 -2
BITMAP
0000
0000
0000
1830
1830
1830
1830
1830
1830
1830
1830
0C60
07C0
0000
0000
0000
ENDCHAR

STARTCHAR jisx0208_3021
ENCODING 12321
SWIDTH 960 0
DWIDTH 16 0
BBX 16 16 0 -2
BITMAP
0000
7FFF
0360
0360
0360
3FFE
3366
3366
3366
3FFE
0360
0360
0360
0360
7FFF
0000
ENDCHAR

STARTCHAR jisx0208_3022
ENCODING 12322
SWIDTH 960 0
DWIDTH 16 0
BBX 16 16 0 -2
BITMAP
0000
07FE
78B0
58B0
58B0
57FE
56B6
56B6
56B6
77FE
00B0
00B0
00B0
00B0
0FFF
0000
ENDCHAR

STARTCHAR jisx0208_3023
ENCODING 12323
SWIDTH 960 0
DWIDTH 16 0
BBX 16 16 0 -2
BITMAP
0000
1830
1830
19FE
7E30
3630
3630
37FF
6630
6630
6DFE
1830
1C30
3630
63FF
0000
ENDCHAR

STARTCHAR jisx0208_3024
ENCODING 12324
SWIDTH 960 0
DWIDTH 16 0
BBX 16 16 0 -2
BITMAP
0000
0000
7BFF
6C06
6C06
59F6
59B6
6DB6
6DB6
6DB6
6DF6
7806
6006
6006
601E
0000
ENDCHAR

STARTCHAR jisx0208_3025
ENCODING 12325
SWIDTH 960 0
DWIDTH 16 0
BBX 16 16 0 -2
BITMAP
0000
0180
7FFE
0000
1FF8
1818
1818
1FF8
02C0
06CC
1C58
6C70
0C30
0B98
3E0E
0000
ENDCHAR

STARTCHAR jisx0208_3026
ENCODING 12326
SWIDTH 960 0
DWIDTH 16 0
BBX 16 16 0 -2
BITMAP
0000
003E
3FEC
0D98
7FFF
66C3
562B
37F6
0300
07F0
1E30
7360
01C0
0F78
780F
0000
ENDCHAR

STARTCHAR jisx0208_3027
ENCODING 12327
SWIDTH 960 0
DWIDTH 16 0
BBX 16 16 0 -2
BITMAP
0000
1860
186C
18C6
7DFB
18C0
18C0
18FE
1DB0
7830
1BFF
1830
1858
18CC
3B87
0000
ENDCHAR

STARTCHAR jisx0208_3028
ENCODING 12328
SWIDTH 960 0
DWIDTH 16 0
BBX 16 16 0 -2
BITMAP
0000
1830
1858
1858
7ECC
3586
36FB
3600
6600
65FE
6D86
1986
1D86
3586
61FE
0000
ENDCHAR

STARTCHAR jisx0208_3029
ENCODING 12329
SWIDTH 960 0
DWIDTH 16 0
BBX 16 16 0 -2
BITMAP
0000
30C0
19F8
0798
00F0
01B8
776F
19F8
1860
19F8
1860
17FE
1860
2C00
67FF
0000
ENDCHAR

STARTCHAR jisx0208_302A
ENCODING 12330
SWIDTH 960 0
DWIDTH 16 0
BBX 16 16 0 -2
BITMAP
0000
0630
7FFF
0630
3F80
01B0
1B6C
0E38
17EC
7187
0180
3FFE
02C0
0E70
781F
0000
ENDCHAR

STARTCHAR jisx0208_302B
ENCODING 12331
SWIDTH 960 0
DWIDTH 16 0
BBX 16 16 0 -2
BITMAP
0000
0630
7FFF
0630
0000
7FFF
0360
0360
3FFE
3366
3656
2C76
3006
3006
3FFE
0000
ENDCHAR

STARTCHAR jisx0208_302C
ENCODING 12332
SWIDTH 960 0
DWIDTH 16 0
BBX 16 16 0 -2
BITMAP
0000
06C0
7DF8
1B30
1BFC
7F6C
1BFC
3B6C
37FE
5B66
5BFE
1B66
1BFE
1863
187F
0000
ENDCHAR

STARTCHAR jisx0208_302D
ENCODING 12333
SWIDTH 960 0
DWIDTH 16 0
BBX 16 16 0 -2
BITMAP
0000
0000
7FFF
0360
3FFE
3366
3366
3FFE
0360
7FFF
0000
06C6
3663
361B
63F8
0000
ENDCHAR

STARTCHAR jisx0208_302E
ENCODING 12334
SWIDTH 960 0
DWIDTH 16 0
BBX 16 16 0 -2
BITMAP
0000
1800
1BFE
1B06
7BFE
1B00
1BFF
1B6C
1AC6
7BFB
1B30
1AFE
1B30
1630
35FF
0000
ENDCHAR

STARTCHAR jisx0208_302F
ENCODING 12335
SWIDTH 960 0
DWIDTH 16 0
BBX 16 16 0 -2
BITMAP
0000
3000
17FE
0606
67FE
3600
07FF
066C
06C6
17FB
1630
35FE
2C30
6C30
5BFF
0000
ENDCHAR

STARTCHAR jisx0208_3030
ENCODING 12336
SWIDTH 960 0
DWIDTH 16 0
BBX 16 16 0 -2
BITMAP
0000
1800
187E
7F66
1B66
1B66
1B7E
1B66
1B66
1B66
1B7E
1B00
3303
3303
61FF
0000
ENDCHAR

STARTCHAR jisx0208_3031
ENCODING 12337
SWIDTH 960 0
DWIDTH 16 0
BBX 16 16 0 -2
BITMAP
0000
0630
7FFF
0180
1FF8
0318
7FFF
0000
0FFC
0C0C
1FFE
18C0
7FFF
00C0
00C0
0000
ENDCHAR

STARTCHAR jisx0208_3032
ENCODING 12338
SWIDTH 960 0
DWIDTH 16 0
BBX 16 16 0 -2
BITMAP
0000
0630
7FFF
0630
0000
7FFF
0000
1FFC
180C
180C
1FFC
1800
1800
3000
6000
0000
ENDCHAR

STARTCHAR jisx0208_3033
ENCODING 12339
SWIDTH 960 0
DWIDTH 16 0
BBX 16 16 0 -2
BITMAP
0000
3030
3C2C
6C66
19FB
7E30
55FF
7E6C
56C6
55B3
7ED8
0036
56EC
5638
60E0
0000
ENDCHAR

STARTCHAR jisx0208_3034
ENCODING 12340
SWIDTH 960 0
DWIDTH 16 0
BBX 16 16 0 -2
BITMAP
0000
1830
1830
1BFF
7D8C
18CC
18D8
3BFF
3630
5830
59FE
1830
1830
1830
1830
0000
ENDCHAR

STARTCHAR jisx0208_3035
ENCODING 12341
SWIDTH 960 0
DWIDTH 16 0
BBX 16 16 0 -2
BITMAP
0000
0000
3FFE
3000
30C0
30C0
30C0
37FC
30C0
30C0
30C0
30C0
60C0
6FFE
0000
0000
ENDCHAR

STARTCHAR jisx0208_3036
ENCODING 12342
SWIDTH 960 0
DWIDTH 16 0
BBX 16 16 0 -2
BITMAP
0000
1818
182C
7E2C
1866
7ECB
666C
7E2C
66CC
7E6C
180F
7E3C
19EC
180C
180C
0000
ENDCHAR

STARTCHAR jisx0208_3037
ENCODING 12343
SWIDTH 960 0
DWIDTH 16 0
BBX 16 16 0 -2
BITMAP
0000
1800
1BFC
18CC
7ECC
18D8
18DE
18C6
1EE6
796C
19AC
1998
1B2C
1B66
36C3
0000
ENDCHAR

STARTCHAR jisx0208_3038
ENCODING 12344
SWIDTH 960 0
DWIDTH 16 0
BBX 16 16 0 -2
BITMAP
0000
0180
7FFE
6006
5806
1800
1EFC
32CC
32CC
5ACC
0EDC
06C0
0CC6
18C6
707E
0000
ENDCHAR

STARTCHAR jisx0208_3039
ENCODING 12345
SWIDTH 960 0
DWIDTH 16 0
BBX 16 16 0 -2
BITMAP
0000
1800
18FE
18C6
7EC6
36C6
36FE
36C6
66C6
66C6
6CFE
18C6
1CC6
36C6
63FF
0000
ENDCHAR

STARTCHAR jisx0208_303A
ENCODING 12346
SWIDTH 960 0
DWIDTH 16 0
BBX 16 16 0 -2
BITMAP
0000
1818
1818
1818
7EFF
56C0
56C0
56C0
56C0
7EC0
18C0
16C0
16C0
1EC0
7B7F
0000
ENDCHAR

STARTCHAR jisx0208_303B
ENCODING 12347
SWIDTH 960 0
DWIDTH 16 0
BBX 16 16 0 -2
BITMAP
0000
0C30
1630
3360
6C6C
3EC6
32FB
3F00
3300
3EFE
30C6
36C6
36C6
3EC6
72FE
0000
ENDCHAR

STARTCHAR jisx0208_303C
ENCODING 12348
SWIDTH 960 0
DWIDTH 16 0
BBX 16 16 0 -2
BITMAP
0000
18C0
30C0
65FE
2D86
1B06
35F6
7DB6
15B6
19F6
55B6
55B6
55F6
5806
181C
0000
ENDCHAR

STARTCHAR jisx0208_303D
ENCODING 12349
SWIDTH 960 0
DWIDTH 16 0
BBX 16 16 0 -2
BITMAP
0000
1830
31FE
6630
2BFF
18D8
36DB
7D9F
1B60
187C
56CC
5558
5630
58DC
1B87
0000
ENDCHAR

STARTCHAR jisx0208_303E
ENCODING 12350
SWIDTH 960 0
DWIDTH 16 0
BBX 16 16 0 -2
BITMAP
0000
1818
1E18
3618
6C1F
3F18
2B18
3F18
2B7F
2B63
3F63
0063
5563
5563
607F
0000
ENDCHAR

STARTCHAR jisx0208_303F
ENCODING 12351
SWIDTH 960 0
DWIDTH 16 0
BBX 16 16 0 -2
BITMAP
0000
006C
0066
7FFF
0060
0060
3F66
3336
332C
3F2C
0018
07B8
7C5B
01CB
0707
0000
ENDCHAR

STARTCHAR jisx0208_3040
ENCODING 12352
SWIDTH 960 0
DWIDTH 16 0
BBX 16 16 0 -2
BITMAP
0000
7FFE
0660
3FFC
366C
366C
3FFC
1998
0DB0
7FFE
0560
0DB0
1998
718E
0180
0000
ENDCHAR

STARTCHAR jisx0208_3041
ENCODING 12353
SWIDTH 960 0
DWIDTH 16 0
BBX 16 16 0 -2
BITMAP
0000
1830
1858
7E58
06CC
0D86
1AFB
3600
5C00
15FE
1986
1986
1986
1986
19FE
0000
ENDCHAR

STARTCHAR jisx0208_3042
ENCODING 12354
SWIDTH 960 0
DWIDTH 16 0
BBX 16 16 0 -2
BITMAP
0000
0180
7FFE
6006
6306
0300
7FFE
0630
0630
0C60
0F60
01C0
0170
071C
3C06
0000
ENDCHAR

STARTCHAR jisx0208_3043
ENCODING 12355
SWIDTH 960 0
DWIDTH 16 0
BBX 16 16 0 -2
BITMAP
0000
00C0
3FFF
30C0
2FFF
3198
336C
3666
2BFB
336C
33FC
336C
33FC
6063
607F
0000
ENDCHAR

STARTCHAR jisx0208_3044
ENCODING 12356
SWIDTH 960 0
DWIDTH 16 0
BBX 16 16 0 -2
BITMAP
0000
1830
1830
1BFF
7B03
1B63
1860
1BFF
1CCC
78CC
198C
19D8
1830
18DC
3B86
0000
ENDCHAR

STARTCHAR jisx0208_3045
ENCODING 12357
SWIDTH 960 0
DWIDTH 16 0
BBX 16 16 0 -2
BITMAP
0000
0030
7BFF
6D8C
6CCC
6CD8
7BFF
6C00
6DFE
6D86
6D86
7DFE
0186
0186
01FE
0000
ENDCHAR

STARTCHAR jisx0208_3046
ENCODING 12358
SWIDTH 960 0
DWIDTH 16 0
BBX 16 16 0 -2
BITMAP
0000
0180
7FFE
6306
3FFC
0630
0F60
01F0
3F1C
0180
7FFE
0560
1DB8
718E
0180
0000
ENDCHAR

STARTCHAR jisx0208_3047
ENCODING 12359
SWIDTH 960 0
DWIDTH 16 0
BBX 16 16 0 -2
BITMAP
0000
7E7E
6666
7E7E
6666
7E7E
6186
6FF6
62C6
5FF6
6666
67E6
6666
67E6
600E
0000
ENDCHAR

STARTCHAR jisx0208_3048
ENCODING 12360
SWIDTH 960 0
DWIDTH 16 0
BBX 16 16 0 -2
BITMAP
0000
3618
3618
7EFF
36C3
3EB3
1830
7EFF
5B36
5B66
7F66
186C
7F18
182C
18E6
0000
ENDCHAR

STARTCHAR jisx0208_3049
ENCODING 12361
SWIDTH 960 0
DWIDTH 16 0
BBX 16 16 0 -2
BITMAP
0000
0180
0180
7FFE
03C0
0560
0DB0
1998
718E
0000
1FF8
1818
1818
1818
1FF8
0000
ENDCHAR

STARTCHAR jisx0208_304A
ENCODING 12362
SWIDTH 960 0
DWIDTH 16 0
BBX 16 16 0 -2
BITMAP
0000
1806
1986
18C6
18C6
1806
1806
1806
180C
18CC
1998
172C
1C66
71C3
0703
0000
ENDCHAR

STARTCHAR jisx0208_304B
ENCODING 12363
SWIDTH 960 0
DWIDTH 16 0
BBX 16 16 0 -2
BITMAP
0000
0C00
0BFE
0C66
1866
17FF
3866
5866
1BFE
1860
1860
18C0
18C0
1980
1B00
0000
ENDCHAR

STARTCHAR jisx0208_304C
ENCODING 12364
SWIDTH 960 0
DWIDTH 16 0
BBX 16 16 0 -2
BITMAP
0000
0C60
0C60
0C60
1BFE
1800
3B0C
5B0C
198C
1998
1998
1998
19B0
1830
17FF
0000
ENDCHAR

STARTCHAR jisx0208_304D
ENCODING 12365
SWIDTH 960 0
DWIDTH 16 0
BBX 16 16 0 -2
BITMAP
0000
0C30
0C30
0BFF
1830
1830
385B
58D6
19DC
1AD8
16CC
18CC
18C6
18B6
1BE3
0000
ENDCHAR

STARTCHAR jisx0208_304E
ENCODING 12366
SWIDTH 960 0
DWIDTH 16 0
BBX 16 16 0 -2
BITMAP
0000
0C60
0BFC
0CCC
17FF
1800
39FE
5986
19FE
1830
19FE
19B0
17FF
1830
1830
0000
ENDCHAR

STARTCHAR jisx0208_304F
ENCODING 12367
SWIDTH 960 0
DWIDTH 16 0
BBX 16 16 0 -2
BITMAP
0000
7FFE
6006
6666
6666
5FF6
6666
6666
5FF6
6666
6666
6C66
5866
6006
7FFE
0000
ENDCHAR

STARTCHAR jisx0208_3050
ENCODING 12368
SWIDTH 960 0
DWIDTH 16 0
BBX 16 16 0 -2
BITMAP
0000
0180
7FFE
0180
3FF8
0198
1FF8
1980
3FFC
318C
02CC
02B8
0660
1C38
700E
0000
ENDCHAR

STARTCHAR jisx0208_3051
ENCODING 12369
SWIDTH 960 0
DWIDTH 16 0
BBX 16 16 0 -2
BITMAP
0000
00F8
3F80
0180
7FFE
0560
1DB8
718E
0300
0300
7FFE
0630
0F60
01F0
3F1C
0000
ENDCHAR

STARTCHAR jisx0208_3052
ENCODING 12370
SWIDTH 960 0
DWIDTH 16 0
BBX 16 16 0 -2
BITMAP
0000
006C
0066
3FFF
3060
3060
3F66
3636
3FB6
2DAC
2DAC
2D98
333B
656B
5CC7
0000
ENDCHAR

STARTCHAR jisx0208_3053
ENCODING 12371
SWIDTH 960 0
DWIDTH 16 0
BBX 16 16 0 -2
BITMAP
0000
0006
3FC6
30C6
3FC6
307F
2F86
3006
3FB6
3316
3316
2B86
2AC6
5AC6
671E
0000
ENDCHAR

STARTCHAR jisx0208_3054
ENCODING 12372
SWIDTH 960 0
DWIDTH 16 0
BBX 16 16 0 -2
BITMAP
0000
18CC
18CC
1D98
55FF
5B98
5598
59FE
1998
1998
19FE
1998
1998
1998
19FF
0000
ENDCHAR

STARTCHAR jisx0208_3055
ENCODING 12373
SWIDTH 960 0
DWIDTH 16 0
BBX 16 16 0 -2
BITMAP
0000
0180
3FFC
0660
7FFE
0000
1FF8
1818
1FF8
1818
1FF8
0000
36C6
361B
63F8
0000
ENDCHAR

STARTCHAR jisx0208_3056
ENCODING 12374
SWIDTH 960 0
DWIDTH 16 0
BBX 16 16 0 -2
BITMAP
0000
3F86
3186
3F7F
3006
3F66
3636
3586
5586
6E1E
0000
06C0
3666
361B
63F8
0000
ENDCHAR

STARTCHAR jisx0208_3057
ENCODING 12375
SWIDTH 960 0
DWIDTH 16 0
BBX 16 16 0 -2
BITMAP
0000
1FFC
180C
1FFC
180C
1FFC
0600
0600
0FFE
19B6
7336
0E66
38CC
038C
1E78
0000
ENDCHAR

STARTCHAR jisx0208_3058
ENCODING 12376
SWIDTH 960 0
DWIDTH 16 0
BBX 16 16 0 -2
BITMAP
0000
1860
1860
1BFE
7E70
18D8
1B8E
3C00
37FF
580C
5BEC
1B6C
1B6C
1BEC
181C
0000
ENDCHAR

STARTCHAR jisx0208_3059
ENCODING 12377
SWIDTH 960 0
DWIDTH 16 0
BBX 16 16 0 -2
BITMAP
0000
1980
0D80
3FF0
0330
0630
07FC
0C0C
180C
3FFF
6003
36DB
336B
3363
601E
0000
ENDCHAR

STARTCHAR jisx0208_305A
ENCODING 12378
SWIDTH 960 0
DWIDTH 16 0
BBX 16 16 0 -2
BITMAP
0000
0000
1FF8
1998
1FF8
1998
1FF8
0000
7FFE
18C0
18CC
1858
1830
1798
7C0E
0000
ENDCHAR

STARTCHAR jisx0208_305B
ENCODING 12379
SWIDTH 960 0
DWIDTH 16 0
BBX 16 16 0 -2
BITMAP
0000
0000
1FF8
1998
1FF8
1998
1FF8
0660
3FFC
0660
0660
7FFE
0000
0E78
780E
0000
ENDCHAR

STARTCHAR jisx0208_305C
ENCODING 12380
SWIDTH 960 0
DWIDTH 16 0
BBX 16 16 0 -2
BITMAP
0000
0630
7C7E
18C6
196C
7E38
1858
3DB0
363F
5863
59B6
181C
1818
1870
1BC0
0000
ENDCHAR

STARTCHAR jisx0208_305D
ENCODING 12381
SWIDTH 960 0
DWIDTH 16 0
BBX 16 16 0 -2
BITMAP
0000
1866
3066
66CC
2CFF
19CC
36CC
7EFF
16CC
18CC
56FF
56CC
56CC
58CC
18FF
0000
ENDCHAR

STARTCHAR jisx0208_305E
ENCODING 12382
SWIDTH 960 0
DWIDTH 16 0
BBX 16 16 0 -2
BITMAP
0000
1830
31FC
666C
2BFF
1800
35FE
7D86
15FE
1830
55FE
55B0
5BFF
1830
1830
0000
ENDCHAR

STARTCHAR jisx0208_305F
ENCODING 12383
SWIDTH 960 0
DWIDTH 16 0
BBX 16 16 0 -2
BITMAP
0000
3FFC
318C
3FFC
318C
3FFC
0000
1FF8
1818
1FF8
1818
1FF8
1818
1818
1878
0000
ENDCHAR

STARTCHAR jisx0208_3060
ENCODING 12384
SWIDTH 960 0
DWIDTH 16 0
BBX 16 16 0 -2
BITMAP
0000
0660
7FFE
0660
3FFC
0180
7FFE
0560
1DB8
718E
0300
7FFE
0630
03E0
3E3C
0000
ENDCHAR

STARTCHAR jisx0208_3061
ENCODING 12385
SWIDTH 960 0
DWIDTH 16 0
BBX 16 16 0 -2
BITMAP
0000
0180
0180
7FFE
0180
0386
02CC
06D8
0C70
1C60
6C30
0C30
0CD8
0F8C
3C06
0000
ENDCHAR

STARTCHAR jisx0208_3062
ENCODING 12386
SWIDTH 960 0
DWIDTH 16 0
BBX 16 16 0 -2
BITMAP
0000
0000
3EFF
00DB
7EFF
00DB
3EFF
0000
3EFF
00C3
3EFF
36C3
36FF
36C3
3ECF
0000
ENDCHAR

STARTCHAR jisx0208_3063
ENCODING 12387
SWIDTH 960 0
DWIDTH 16 0
BBX 16 16 0 -2
BITMAP
0000
3060
1BFC
00CC
07FF
0186
79FE
1830
19FE
19B0
17FF
1830
1830
2C00
67FF
0000
ENDCHAR

STARTCHAR jisx0208_3064
ENCODING 12388
SWIDTH 960 0
DWIDTH 16 0
BBX 16 16 0 -2
BITMAP
0000
3060
1BFC
036C
0FFF
030C
7BFC
1B0C
1BFC
1B0C
1BFC
1998
170E
2C00
67FF
0000
ENDCHAR

STARTCHAR jisx0208_3065
ENCODING 12389
SWIDTH 960 0
DWIDTH 16 0
BBX 16 16 0 -2
BITMAP
0000
0000
7FFE
6600
6600
6FFC
58C0
60C0
5FFE
60C0
6160
6738
5C0E
6000
7FFF
0000
ENDCHAR

STARTCHAR jisx0208_3066
ENCODING 12390
SWIDTH 960 0
DWIDTH 16 0
BBX 16 16 0 -2
BITMAP
0000
0630
0630
0630
3FFE
0630
0630
0630
0630
7FFF
0630
0630
0C30
1830
7030
0000
ENDCHAR

STARTCHAR jisx0208_3067
ENCODING 12391
SWIDTH 960 0
DWIDTH 16 0
BBX 16 16 0 -2
BITMAP
0000
0180
0180
7FFE
0300
0630
1C60
06C0
038C
0E18
3830
00E0
03B8
0E0C
7806
0000
ENDCHAR

STARTCHAR jisx0208_3068
ENCODING 12392
SWIDTH 960 0
DWIDTH 16 0
BBX 16 16 0 -2
BITMAP
0000
182C
1836
1830
17FF
7C30
1BB6
1AB6
1AAC
1BAC
1C18
78D8
07BB
006B
01C7
0000
ENDCHAR

STARTCHAR jisx0208_3069
ENCODING 12393
SWIDTH 960 0
DWIDTH 16 0
BBX 16 16 0 -2
BITMAP
0000
0180
7FFE
0630
0C38
3FEC
0000
1FF8
1818
1FF8
1818
1FF8
1818
1818
1878
0000
ENDCHAR

STARTCHAR jisx0208_306A
ENCODING 12394
SWIDTH 960 0
DWIDTH 16 0
BBX 16 16 0 -2
BITMAP
0000
0C00
0C3F
7FB3
1833
1836
3FB6
59AC
1FB6
19B3
1FB3
19B3
19AE
19B0
1BB0
0000
ENDCHAR

STARTCHAR jisx0208_306B
ENCODING 12395
SWIDTH 960 0
DWIDTH 16 0
BBX 16 16 0 -2
BITMAP
0000
0030
7DAC
1AB6
19AC
1AB6
337B
3C36
6BFF
2D9B
2D96
2DCC
2B5B
3B37
06E3
0000
ENDCHAR

STARTCHAR jisx0208_306C
ENCODING 12396
SWIDTH 960 0
DWIDTH 16 0
BBX 16 16 0 -2
BITMAP
0000
0000
0000
0000
0000
0000
0000
7FFF
0000
0000
0000
0000
0000
0000
0000
0000
ENDCHAR

STARTCHAR jisx0208_306D
ENCODING 12397
SWIDTH 960 0
DWIDTH 16 0
BBX 16 16 0 -2
BITMAP
0000
0180
7FFE
0180
0180
1FF8
0000
7FFE
6006
6C76
0DC0
0F00
0C0C
0C0C
07FC
0000
ENDCHAR

STARTCHAR jisx0208_306E
ENCODING 12398
SWIDTH 960 0
DWIDTH 16 0
BBX 16 16 0 -2
BITMAP
0000
3318
1998
01B0
6FFF
3198
0198
030C
0606
1BFB
1AAC
32AC
32AC
62AC
6FFF
0000
ENDCHAR

STARTCHAR jisx0208_306F
ENCODING 12399
SWIDTH 960 0
DWIDTH 16 0
BBX 16 16 0 -2
BITMAP
0000
30C0
19FC
0318
0630
03FF
7B33
1B33
1BFF
18D8
18DB
199B
171F
2C00
67FF
0000
ENDCHAR

STARTCHAR jisx0208_3070
ENCODING 12400
SWIDTH 960 0
DWIDTH 16 0
BBX 16 16 0 -2
BITMAP
0000
0607
7DFC
1803
19B3
7ED6
1800
3DBF
35B3
59B3
59BF
19B3
19B3
19B3
19BF
0000
ENDCHAR

STARTCHAR jisx0208_3071
ENCODING 12401
SWIDTH 960 0
DWIDTH 16 0
BBX 16 16 0 -2
BITMAP
0000
0630
7FFF
0630
05B0
3180
1BFE
0366
066C
1860
1860
30B0
3198
630C
6E07
0000
ENDCHAR

STARTCHAR jisx0208_3072
ENCODING 12402
SWIDTH 960 0
DWIDTH 16 0
BBX 16 16 0 -2
BITMAP
0000
0660
7FFE
0660
0660
0000
3FFC
0180
0180
7FFE
0180
0180
0180
0180
0780
0000
ENDCHAR

STARTCHAR jisx0208_3073
ENCODING 12403
SWIDTH 960 0
DWIDTH 16 0
BBX 16 16 0 -2
BITMAP
0000
31DE
3C66
6C66
19DE
7D98
5598
7DDE
5666
5556
7E66
00EE
5556
5666
61DC
0000
ENDCHAR

STARTCHAR jisx0208_3074
ENCODING 12404
SWIDTH 960 0
DWIDTH 16 0
BBX 16 16 0 -2
BITMAP
0000
0300
0330
0618
060C
0DF6
7F63
0363
0360
0360
0660
0660
0C63
1863
703F
0000
ENDCHAR

STARTCHAR jisx0208_3075
ENCODING 12405
SWIDTH 960 0
DWIDTH 16 0
BBX 16 16 0 -2
BITMAP
0000
0700
7CFE
60C6
60C6
60C6
7EC6
60C6
60C6
60C6
60C6
7EC6
00DE
00C0
00C0
0000
ENDCHAR

STARTCHAR jisx0208_3076
ENCODING 12406
SWIDTH 960 0
DWIDTH 16 0
BBX 16 16 0 -2
BITMAP
0000
03FF
7B03
6B33
6B33
6AFB
6B33
6B33
6B5B
6B5B
7ACB
038B
0303
0303
03FF
0000
ENDCHAR

STARTCHAR jisx0208_3077
ENCODING 12407
SWIDTH 960 0
DWIDTH 16 0
BBX 16 16 0 -2
BITMAP
0000
1FF8
1818
1FF8
0000
3FFC
300C
3FFC
300C
3FFC
300C
3FFC
0000
0E78
780E
0000
ENDCHAR

STARTCHAR jisx0208_3078
ENCODING 12408
SWIDTH 960 0
DWIDTH 16 0
BBX 16 16 0 -2
BITMAP
0000
7FFE
6006
6186
6186
5FF6
6186
6186
62C6
62C6
6666
6C36
5816
6006
7FFE
0000
ENDCHAR

STARTCHAR jisx0208_3079
ENCODING 12409
SWIDTH 960 0
DWIDTH 16 0
BBX 16 16 0 -2
BITMAP
0000
1800
19FF
1983
7DB3
35B3
35FB
35B3
65B3
65B3
6D5B
196B
1DCB
3583
61FF
0000
ENDCHAR

STARTCHAR jisx0208_307A
ENCODING 12410
SWIDTH 960 0
DWIDTH 16 0
BBX 16 16 0 -2
BITMAP
0000
0000
7F8C
018C
018C
3F8C
300C
600C
7F8C
018C
018C
018C
018C
030C
3E0C
0000
ENDCHAR

STARTCHAR jisx0208_307B
ENCODING 12411
SWIDTH 960 0
DWIDTH 16 0
BBX 16 16 0 -2
BITMAP
0000
0C60
1660
3360
6CFF
3EDB
3396
3F18
3318
3F18
302C
362C
3666
3F66
72C3
0000
ENDCHAR

STARTCHAR jisx0208_307C
ENCODING 12412
SWIDTH 960 0
DWIDTH 16 0
BBX 16 16 0 -2
BITMAP
0000
303E
17E0
000C
66CC
3358
000E
07F8
0060
1860
17FE
3060
3060
6060
67FE
0000
ENDCHAR

STARTCHAR jisx0208_307D
ENCODING 12413
SWIDTH 960 0
DWIDTH 16 0
BBX 16 16 0 -2
BITMAP
0000
330C
2ECC
358C
336C
2FEC
302C
37EC
366C
37EC
366C
37EC
366B
666B
66EF
0000
ENDCHAR

STARTCHAR jisx0208_307E
ENCODING 12414
SWIDTH 960 0
DWIDTH 16 0
BBX 16 16 0 -2
BITMAP
0000
0630
7FFF
0630
0070
7DDC
6F07
6DFC
5818
6BFE
6C00
6FFF
78CC
618E
63FB
0000
ENDCHAR

STARTCHAR jisx0208_3121
ENCODING 12577
SWIDTH 960 0
DWIDTH 16 0
BBX 16 16 0 -2
BITMAP
0000
7C30
6BFF
6B03
5B03
59FE
6C00
6C00
6BFF
6CD8
78D8
60D8
60DB
619B
671F
0000
ENDCHAR

STARTCHAR jisx0208_3122
ENCODING 12578
SWIDTH 960 0
DWIDTH 16 0
BBX 16 16 0 -2
BITMAP
0000
7C70
6CD8
6D8C
5AF6
5603
6DFC
6C0C
6C18
6DFC
7800
63FE
60CC
618E
67FB
0000
ENDCHAR

STARTCHAR jisx0208_3123
ENCODING 12579
SWIDTH 960 0
DWIDTH 16 0
BBX 16 16 0 -2
BITMAP
0000
7C1E
6BF0
6B66
59AC
5BFE
6C06
6BFE
6C06
6BFE
7800
6166
65B3
658B
6CFC
0000
ENDCHAR

STARTCHAR jisx0208_3124
ENCODING 12580
SWIDTH 960 0
DWIDTH 16 0
BBX 16 16 0 -2
BITMAP
0000
0C7E
7F66
337E
1B00
167E
7F66
007E
3F66
337E
3366
3F7E
3300
332E
3EE3
0000
ENDCHAR

STARTCHAR jisx0208_3125
ENCODING 12581
SWIDTH 960 0
DWIDTH 16 0
BBX 16 16 0 -2
BITMAP
0000
000C
000C
7C0C
6C0C
6BFF
6C0C
6C0C
6D8C
6CCC
6CCC
7C0C
000C
000C
003C
0000
ENDCHAR

STARTCHAR jisx0208_3126
ENCODING 12582
SWIDTH 960 0
DWIDTH 16 0
BBX 16 16 0 -2
BITMAP
0000
0180
0180
0300
7FFF
0300
0600
0600
0FFC
160C
360C
660C
060C
060C
07FC
0000
ENDCHAR

STARTCHAR jisx0208_3127
ENCODING 12583
SWIDTH 960 0
DWIDTH 16 0
BBX 16 16 0 -2
BITMAP
0000
0180
0180
7FFE
6006
6006
1FF8
0180
0180
7FFE
0180
0180
0180
0180
0780
0000
ENDCHAR

STARTCHAR jisx0208_3128
ENCODING 12584
SWIDTH 960 0
DWIDTH 16 0
BBX 16 16 0 -2
BITMAP
0000
0180
1FF8
1818
1818
1FF8
1800
1FFE
1800
1800
1FFF
0003
36DB
36DB
600E
0000
ENDCHAR

STARTCHAR jisx0208_3129
ENCODING 12585
SWIDTH 960 0
DWIDTH 16 0
BBX 16 16 0 -2
BITMAP
0000
0000
7EFE
0306
0306
3366
1B36
0306
0306
1B36
72E6
0306
0306
0306
0F1E
0000
ENDCHAR

STARTCHAR jisx0208_312A
ENCODING 12586
SWIDTH 960 0
DWIDTH 16 0
BBX 16 16 0 -2
BITMAP
0000
3000
19FE
0030
0030
0030
7BFF
1830
1830
1830
1830
1830
18F0
2C00
67FF
0000
ENDCHAR

STARTCHAR jisx0208_312B
ENCODING 12587
SWIDTH 960 0
DWIDTH 16 0
BBX 16 16 0 -2
BITMAP
0000
0000
7FFE
0180
0180
3FFC
318C
2D6C
35AC
318C
2D6C
35AC
318C
318C
31BC
0000
ENDCHAR

STARTCHAR jisx0208_312C
ENCODING 12588
SWIDTH 960 0
DWIDTH 16 0
BBX 16 16 0 -2
BITMAP
0000
0700
3C7E
3066
3366
3366
3366
3366
3766
3B66
7666
0666
0C5E
1860
7060
0000
ENDCHAR

STARTCHAR jisx0208_312D
ENCODING 12589
SWIDTH 960 0
DWIDTH 16 0
BBX 16 16 0 -2
BITMAP
0000
3318
167E
7F66
0D7E
0D66
7F7E
6C60
7F7F
0D60
1D7F
2D83
6EAB
0CB3
0D8E
0000
ENDCHAR

STARTCHAR jisx0208_312E
ENCODING 12590
SWIDTH 960 0
DWIDTH 16 0
BBX 16 16 0 -2
BITMAP
0000
0180
7FFE
66C6
0CD8
38F8
0C00
0CFC
3ECC
0CFC
7ECC
0CFC
1658
32D6
619E
0000
ENDCHAR

STARTCHAR jisx0208_312F
ENCODING 12591
SWIDTH 960 0
DWIDTH 16 0
BBX 16 16 0 -2
BITMAP
0000
0000
3FF8
0318
0318
0318
0318
7FFF
0630
0630
0630
0630
0630
0630
7FFF
0000
ENDCHAR

STARTCHAR jisx0208_3130
ENCODING 12592
SWIDTH 960 0
DWIDTH 16 0
BBX 16 16 0 -2
BITMAP
0000
00CC
7ECC
1998
1BFF
1598
3198
3DFE
7598
3598
35FE
3598
3598
3D98
01FF
0000
ENDCHAR

STARTCHAR jisx0208_3131
ENCODING 12593
SWIDTH 960 0
DWIDTH 16 0
BBX 16 16 0 -2
BITMAP
0000
00C0
0380
3E7E
3006
3006
3006
3006
3F7E
3006
3006
3006
3006
3006
3FFE
0000
ENDCHAR

STARTCHAR jisx0208_3132
ENCODING 12594
SWIDTH 960 0
DWIDTH 16 0
BBX 16 16 0 -2
BITMAP
0000
33FE
1B06
0306
637E
3366
0366
07FF
0603
16FB
16DB
36DB
36FB
6603
660F
0000
ENDCHAR

STARTCHAR jisx0208_3133
ENCODING 12595
SWIDTH 960 0
DWIDTH 16 0
BBX 16 16 0 -2
BITMAP
0000
0060
787E
5860
57FF
5663
55FC
5666
567E
5600
7658
0B5B
0D56
1858
1BFF
0000
ENDCHAR

STARTCHAR jisx0208_3134
ENCODING 12596
SWIDTH 960 0
DWIDTH 16 0
BBX 16 16 0 -2
BITMAP
0000
0000
01FE
7D86
6D86
6DFE
6D86
6D86
6DFE
6D86
7D86
01FE
0000
00CE
0383
0000
ENDCHAR

STARTCHAR jisx0208_3135
ENCODING 12597
SWIDTH 960 0
DWIDTH 16 0
BBX 16 16 0 -2
BITMAP
0000
1AD8
7D7E
3ABC
5556
1ADB
3FFE
3366
3FFE
330C
3FFF
330C
3ECC
336C
7D9C
0000
ENDCHAR

STARTCHAR jisx0208_3136
ENCODING 12598
SWIDTH 960 0
DWIDTH 16 0
BBX 16 16 0 -2
BITMAP
0000
0630
7FFF
0630
0006
3FC6
30C6
3FFF
3006
2FC6
3036
2FD6
3306
6AC6
576E
0000
ENDCHAR

STARTCHAR jisx0208_3137
ENCODING 12599
SWIDTH 960 0
DWIDTH 16 0
BBX 16 16 0 -2
BITMAP
0000
30FE
3CC6
6CFE
18C6
7DFF
555B
7D5B
55FF
5600
7DFE
00C6
566C
5638
61EF
0000
ENDCHAR

STARTCHAR jisx0208_3138
ENCODING 12600
SWIDTH 960 0
DWIDTH 16 0
BBX 16 16 0 -2
BITMAP
0000
1860
1866
19F6
7E6C
3658
37FF
3630
6660
66EE
6D78
1B60
1C63
3663
603F
0000
ENDCHAR

STARTCHAR jisx0208_3139
ENCODING 12601
SWIDTH 960 0
DWIDTH 16 0
BBX 16 16 0 -2
BITMAP
0000
0000
3FFF
3000
2F7F
2DAC
2FAC
2DAC
2F7F
2C1C
2C1C
2B2C
2B2C
6F6B
5DCF
0000
ENDCHAR

STARTCHAR jisx0208_313A
ENCODING 12602
SWIDTH 960 0
DWIDTH 16 0
BBX 16 16 0 -2
BITMAP
0000
3058
186C
0FFF
6060
37FE
0666
0666
07FE
1666
1666
37FE
3666
6666
666E
0000
ENDCHAR

STARTCHAR jisx0208_313B
ENCODING 12603
SWIDTH 960 0
DWIDTH 16 0
BBX 16 16 0 -2
BITMAP
0000
007E
1FD8
1998
1998
1998
1998
1998
1998
198C
196C
19AC
31D6
2F96
6003
0000
ENDCHAR

STARTCHAR jisx0208_313C
ENCODING 12604
SWIDTH 960 0
DWIDTH 16 0
BBX 16 16 0 -2
BITMAP
0000
7E7E
6666
7E7E
6666
7E7E
6006
6FF6
6186
6186
67E6
6186
6186
6FF6
601E
0000
ENDCHAR

STARTCHAR jisx0208_313D
ENCODING 12605
SWIDTH 960 0
DWIDTH 16 0
BBX 16 16 0 -2
BITMAP
0000
0198
00B0
7FFF
6CB0
6BFE
6AB6
6BBE
6B06
6BFE
7B06
07FF
0318
0198
0078
0000
ENDCHAR

STARTCHAR jisx0208_313E
ENCODING 12606
SWIDTH 960 0
DWIDTH 16 0
BBX 16 16 0 -2
BITMAP
0000
0000
1FFC
0000
0000
0000
0000
7FFF
0300
0330
0618
060C
0C0C
0CF6
3F86
0000
ENDCHAR

STARTCHAR jisx0208_313F
ENCODING 12607
SWIDTH 960 0
DWIDTH 16 0
BBX 16 16 0 -2
BITMAP
0000
33FF
1B33
02FB
0030
01FE
79B6
19FE
19B6
19FE
1830
1BFF
1830
2C30
67FF
0000
ENDCHAR

STARTCHAR jisx0208_3140
ENCODING 12608
SWIDTH 960 0
DWIDTH 16 0
BBX 16 16 0 -2
BITMAP
0000
3FFC
0180
7FFE
6186
5D76
0180
1D78
0000
1FF8
0000
7FFE
0618
0C6C
3FC6
0000
ENDCHAR

STARTCHAR jisx0208_3141
ENCODING 12609
SWIDTH 960 0
DWIDTH 16 0
BBX 16 16 0 -2
BITMAP
0000
0630
7FFF
0630
0000
0C1E
0BF0
1830
1830
3830
57FF
1830
1830
1830
1BFE
0000
ENDCHAR

STARTCHAR jisx0208_3142
ENCODING 12610
SWIDTH 960 0
DWIDTH 16 0
BBX 16 16 0 -2
BITMAP
0000
0C00
16FF
3366
6C66
3F7E
3366
3F66
337E
3F66
3066
365F
35F6
3F06
7306
0000
ENDCHAR

STARTCHAR jisx0208_3143
ENCODING 12611
SWIDTH 960 0
DWIDTH 16 0
BBX 16 16 0 -2
BITMAP
0000
0C00
0F7F
0C33
7FB3
60B3
2DB3
5AB3
3F96
71D6
3F9C
318C
3F96
31B6
3F63
0000
ENDCHAR

STARTCHAR jisx0208_3144
ENCODING 12612
SWIDTH 960 0
DWIDTH 16 0
BBX 16 16 0 -2
BITMAP
0000
1B18
0DB0
7FFF
6003
6FFB
0C18
0C18
0FF8
0180
0300
1FFC
180C
180C
1FFC
0000
ENDCHAR

STARTCHAR jisx0208_3145
ENCODING 12613
SWIDTH 960 0
DWIDTH 16 0
BBX 16 16 0 -2
BITMAP
0000
3F7E
3366
3F7E
3366
3F7E
3366
3F7E
162C
3366
7FFF
0618
0FB0
01F8
3F0E
0000
ENDCHAR

STARTCHAR jisx0208_3146
ENCODING 12614
SWIDTH 960 0
DWIDTH 16 0
BBX 16 16 0 -2
BITMAP
0000
3F06
330C
3F18
3370
3F03
0C06
7F8C
3318
3370
3F03
0C06
2B0C
6D98
1C70
0000
ENDCHAR

STARTCHAR jisx0208_3147
ENCODING 12615
SWIDTH 960 0
DWIDTH 16 0
BBX 16 16 0 -2
BITMAP
0000
0060
7C60
6BFE
6B66
6B66
7B66
6B66
6FFF
6C60
6CB0
7CB0
0198
030C
0E07
0000
ENDCHAR

STARTCHAR jisx0208_3148
ENCODING 12616
SWIDTH 960 0
DWIDTH 16 0
BBX 16 16 0 -2
BITMAP
0000
0180
0180
1FF8
1998
1998
1FF8
1998
1998
1FF8
00CC
00D8
0073
03BB
7E0F
0000
ENDCHAR

STARTCHAR jisx0208_3149
ENCODING 12617
SWIDTH 960 0
DWIDTH 16 0
BBX 16 16 0 -2
BITMAP
0000
330C
1998
0030
7FFE
6006
6186
0180
3FFC
03C0
0560
0DB0
1998
718E
0180
0000
ENDCHAR

STARTCHAR jisx0208_314A
ENCODING 12618
SWIDTH 960 0
DWIDTH 16 0
BBX 16 16 0 -2
BITMAP
0000
0700
01C0
0000
0F80
0186
018C
7DD8
05B0
0D60
0DB0
1998
318C
6187
0780
0000
ENDCHAR

STARTCHAR jisx0208_314B
ENCODING 12619
SWIDTH 960 0
DWIDTH 16 0
BBX 16 16 0 -2
BITMAP
0000
30E0
1830
0000
63E0
3063
0066
0F6C
0158
1958
1B6C
336C
3666
6C63
61E0
0000
ENDCHAR

STARTCHAR jisx0208_314C
ENCODING 12620
SWIDTH 960 0
DWIDTH 16 0
BBX 16 16 0 -2
BITMAP
0000
3060
1860
07FE
6666
37FE
0666
0666
07FE
1860
1836
302C
303B
60EB
6F87
0000
ENDCHAR

STARTCHAR jisx0208_314D
ENCODING 12621
SWIDTH 960 0
DWIDTH 16 0
BBX 16 16 0 -2
BITMAP
0000
00CC
7ECC
1BFF
18CC
1830
7DFE
19B6
19B6
19B6
1BFF
1E30
7858
01CC
0707
0000
ENDCHAR

STARTCHAR jisx0208_314E
ENCODING 12622
SWIDTH 960 0
DWIDTH 16 0
BBX 16 16 0 -2
BITMAP
0000
0000
3FF8
0C18
0C30
0FBE
16C6
1B86
32C6
2E5C
6000
1FFC
1B6C
1B6C
7FFF
0000
ENDCHAR

STARTCHAR jisx0208_314F
ENCODING 12623
SWIDTH 960 0
DWIDTH 16 0
BBX 16 16 0 -2
BITMAP
0000
3000
36FF
3C18
337E
3F66
007E
0766
7C7E
0C66
7F66
1C7E
2E00
6B2E
0CE3
0000
ENDCHAR

STARTCHAR jisx0208_3150
ENCODING 12624
SWIDTH 960 0
DWIDTH 16 0
BBX 16 16 0 -2
BITMAP
0000
3000
36FF
3C18
337E
3F66
007E
3F66
007E
7F66
0C66
2B7E
2D80
6C2E
1CE3
0000
ENDCHAR

STARTCHAR jisx0208_3151
ENCODING 12625
SWIDTH 960 0
DWIDTH 16 0
BBX 16 16 0 -2
BITMAP
0000
0C30
7FFE
0C30
0DB0
0180
1FF8
1998
1998
7FFE
0180
02C0
0660
1C38
700E
0000
ENDCHAR

STARTCHAR jisx0208_3152
ENCODING 12626
SWIDTH 960 0
DWIDTH 16 0
BBX 16 16 0 -2
BITMAP
0000
1B00
17DF
3360
6FF0
1800
17DF
3666
77E6
30C6
37F6
36C6
2FF6
30C6
30DE
0000
ENDCHAR

STARTCHAR jisx0208_3153
ENCODING 12627
SWIDTH 960 0
DWIDTH 16 0
BBX 16 16 0 -2
BITMAP
0000
0060
7830
0000
7DF0
0030
7C30
03BB
7CB6
00AC
7CAC
6DB6
6DB6
6B33
7C70
0000
ENDCHAR

STARTCHAR jisx0208_3154
ENCODING 12628
SWIDTH 960 0
DWIDTH 16 0
BBX 16 16 0 -2
BITMAP
0000
18CC
2C6C
6658
01FE
7D86
1986
1986
7DFE
1858
5658
56D8
58DB
1D9B
7B1F
0000
ENDCHAR

STARTCHAR jisx0208_3155
ENCODING 12629
SWIDTH 960 0
DWIDTH 16 0
BBX 16 16 0 -2
BITMAP
0000
3060
1860
07FF
61B0
31B0
033E
0336
0756
1B66
1AAC
332C
3318
632C
62E7
0000
ENDCHAR

STARTCHAR jisx0208_3156
ENCODING 12630
SWIDTH 960 0
DWIDTH 16 0
BBX 16 16 0 -2
BITMAP
0000
00C0
1FFF
1800
1BF0
5B33
3B33
161F
1C00
37FC
5B0C
1998
30F0
31B8
6F0F
0000
ENDCHAR

STARTCHAR jisx0208_3157
ENCODING 12631
SWIDTH 960 0
DWIDTH 16 0
BBX 16 16 0 -2
BITMAP
0000
0C18
0618
0630
7FFF
0630
0C18
180C
7007
1FFC
1B6C
1B6C
1B6C
1B6C
7FFF
0000
ENDCHAR

STARTCHAR jisx0208_3158
ENCODING 12632
SWIDTH 960 0
DWIDTH 16 0
BBX 16 16 0 -2
BITMAP
0000
0000
7F7E
6C66
7F66
6C66
7F66
6C7E
6C58
7F58
0358
5B6C
5ACC
62C6
0D83
0000
ENDCHAR

STARTCHAR jisx0208_3159
ENCODING 12633
SWIDTH 960 0
DWIDTH 16 0
BBX 16 16 0 -2
BITMAP
0000
198C
18CC
1CD8
57FE
5B06
5B06
5B06
1BFE
18D8
18D8
18D8
18DB
199B
171F
0000
ENDCHAR

STARTCHAR jisx0208_315A
ENCODING 12634
SWIDTH 960 0
DWIDTH 16 0
BBX 16 16 0 -2
BITMAP
0000
0000
79FE
0186
7DFE
0186
7DFE
00C0
7DFF
0383
7DBB
6DE3
6D9B
6CFB
7C0E
0000
ENDCHAR

STARTCHAR jisx0208_315B
ENCODING 12635
SWIDTH 960 0
DWIDTH 16 0
BBX 16 16 0 -2
BITMAP
0000
0C16
0C1B
3EFF
0CD8
0CD8
7ED6
0CD6
0CCE
2ECC
2CDB
2BB7
2C63
3C00
6FFF
0000
ENDCHAR

STARTCHAR jisx0208_315C
ENCODING 12636
SWIDTH 960 0
DWIDTH 16 0
BBX 16 16 0 -2
BITMAP
0000
7E7E
6666
7E7E
6666
7E7E
6666
62C6
6FF6
6C36
6FF6
62C6
66D6
5CF6
600E
0000
ENDCHAR

STARTCHAR jisx0208_315D
ENCODING 12637
SWIDTH 960 0
DWIDTH 16 0
BBX 16 16 0 -2
BITMAP
0000
1800
1BFF
1860
7DFE
1986
19FE
3D86
35FE
58C0
58FE
19C6
176C
1838
17EF
0000
ENDCHAR

STARTCHAR jisx0208_315E
ENCODING 12638
SWIDTH 960 0
DWIDTH 16 0
BBX 16 16 0 -2
BITMAP
0000
0000
3FFF
3000
2F96
2D9B
2F98
30FF
2F98
2D98
2FAC
2DAC
2F66
6D66
6BC3
0000
ENDCHAR

STARTCHAR jisx0208_315F
ENCODING 12639
SWIDTH 960 0
DWIDTH 16 0
BBX 16 16 0 -2
BITMAP
0000
0000
3FFE
3186
3186
3186
3186
3186
3FFE
3006
3006
3006
3006
3006
301E
0000
ENDCHAR

STARTCHAR jisx0208_3160
ENCODING 12640
SWIDTH 960 0
DWIDTH 16 0
BBX 16 16 0 -2
BITMAP
0000
7FFE
6186
6FF6
6186
5FF6
6006
6FF6
6C36
6FF6
63D6
6D76
799E
6186
7FFE
0000
ENDCHAR

STARTCHAR jisx0208_3161
ENCODING 12641
SWIDTH 960 0
DWIDTH 16 0
BBX 16 16 0 -2
BITMAP
0000
1800
1BFF
1B00
7EFE
1AC6
1AFE
1AC6
1AFE
1B30
1EFF
7B6C
033C
02E6
03FF
0000
ENDCHAR

STARTCHAR jisx0208_3162
ENCODING 12642
SWIDTH 960 0
DWIDTH 16 0
BBX 16 16 0 -2
BITMAP
0000
0180
0300
7FFE
0560
0DB0
1FF8
6DAE
0FF0
0DB0
0DB0
0FF0
0186
0186
00FE
0000
ENDCHAR

STARTCHAR jisx0208_3163
ENCODING 12643
SWIDTH 960 0
DWIDTH 16 0
BBX 16 16 0 -2
BITMAP
0000
0180
7FFE
6006
5FF6
1818
1FF8
1818
1FF8
0600
7FFE
0C30
1F60
03E0
3E3C
0000
ENDCHAR

STARTCHAR jisx0208_3164
ENCODING 12644
SWIDTH 960 0
DWIDTH 16 0
BBX 16 16 0 -2
BITMAP
0000
000F
7DF8
0C18
1818
18DF
30D8
7CD8
0CD8
2CD8
2CD8
5BFF
1800
2C00
67FF
0000
ENDCHAR

STARTCHAR jisx0208_3165
ENCODING 12645
SWIDTH 960 0
DWIDTH 16 0
BBX 16 16 0 -2
BITMAP
0000
0C00
0C7E
1F66
3166
596E
0B60
0663
1C3F
7000
06C0
3666
361B
361B
63F8
0000
ENDCHAR

STARTCHAR jisx0208_3166
ENCODING 12646
SWIDTH 960 0
DWIDTH 16 0
BBX 16 16 0 -2
BITMAP
0000
1860
1860
17FF
7CD8
198C
1B66
17FB
1B6C
7BFC
1B6C
1BFC
1863
1863
383F
0000
ENDCHAR

STARTCHAR jisx0208_3167
ENCODING 12647
SWIDTH 960 0
DWIDTH 16 0
BBX 16 16 0 -2
BITMAP
0000
181E
17F0
1B66
7DB6
180C
1BFE
1860
1BFF
78C0
19FC
1AD8
1670
19DC
3707
0000
ENDCHAR

STARTCHAR jisx0208_3168
ENCODING 12648
SWIDTH 960 0
DWIDTH 16 0
BBX 16 16 0 -2
BITMAP
0000
3018
18D8
00D8
618C
318C
0306
0603
0000
1BFE
1B06
3306
3306
6306
63FE
0000
ENDCHAR

STARTCHAR jisx0208_3169
ENCODING 12649
SWIDTH 960 0
DWIDTH 16 0
BBX 16 16 0 -2
BITMAP
0000
3060
17FF
0603
05FB
6060
33FE
0366
03FE
1B66
1B66
33FE
3000
61DC
6F07
0000
ENDCHAR

STARTCHAR jisx0208_316A
ENCODING 12650
SWIDTH 960 0
DWIDTH 16 0
BBX 16 16 0 -2
BITMAP
0000
0180
198C
198C
32D8
0660
1C38
700E
0180
198C
198C
32D8
0660
1C38
700E
0000
ENDCHAR

STARTCHAR jisx0208_316B
ENCODING 12651
SWIDTH 960 0
DWIDTH 16 0
BBX 16 16 0 -2
BITMAP
0000
1860
187E
16C6
558C
5B18
59BF
59B3
19B3
19B3
19BF
2DB3
35B3
61B3
61BF
0000
ENDCHAR

STARTCHAR jisx0208_316C
ENCODING 12652
SWIDTH 960 0
DWIDTH 16 0
BBX 16 16 0 -2
BITMAP
0000
1800
1BFF
1658
5658
5BFF
5B5B
5B5B
1BFF
1830
1830
2DFE
3630
6030
67FF
0000
ENDCHAR

STARTCHAR jisx0208_316D
ENCODING 12653
SWIDTH 960 0
DWIDTH 16 0
BBX 16 16 0 -2
BITMAP
0000
0660
7FFE
0660
07E0
0C30
7BB6
0ABC
0AB0
1AB6
6BBE
0000
36CC
3366
6366
0000
ENDCHAR

STARTCHAR jisx0208_316E
ENCODING 12654
SWIDTH 960 0
DWIDTH 16 0
BBX 16 16 0 -2
BITMAP
0000
6C30
2DFE
1830
3BFF
6C00
0DFE
0D86
1DFE
2C58
6CDB
0BCE
0CCC
0CF6
7BC3
0000
ENDCHAR

STARTCHAR jisx0208_316F
ENCODING 12655
SWIDTH 960 0
DWIDTH 16 0
BBX 16 16 0 -2
BITMAP
0000
1800
30FC
660C
2CFC
180C
35FF
7E60
15B3
1856
55BC
565C
56D6
5B9B
1870
0000
ENDCHAR

STARTCHAR jisx0208_3170
ENCODING 12656
SWIDTH 960 0
DWIDTH 16 0
BBX 16 16 0 -2
BITMAP
0000
1630
7FB0
557E
7F66
55CC
7F7F
005B
7F5B
337F
3F60
0360
3663
1763
7C3F
0000
ENDCHAR

STARTCHAR jisx0208_3171
ENCODING 12657
SWIDTH 960 0
DWIDTH 16 0
BBX 16 16 0 -2
BITMAP
0000
0630
7FFF
0630
1630
1800
1F7E
3366
3366
5B66
0E5E
0660
0C63
1863
703F
0000
ENDCHAR

STARTCHAR jisx0208_3172
ENCODING 12658
SWIDTH 960 0
DWIDTH 16 0
BBX 16 16 0 -2
BITMAP
0000
0630
7FFF
0630
3FFE
3186
2FF6
3186
3FFE
3636
37F6
33D6
2D76
3196
3FFE
0000
ENDCHAR

STARTCHAR jisx0208_3173
ENCODING 12659
SWIDTH 960 0
DWIDTH 16 0
BBX 16 16 0 -2
BITMAP
0000
3030
19FE
0030
03FF
0000
79FE
1986
19FE
187B
18AE
1BB7
1830
2C00
67FF
0000
ENDCHAR

STARTCHAR jisx0208_3174
ENCODING 12660
SWIDTH 960 0
DWIDTH 16 0
BBX 16 16 0 -2
BITMAP
0000
0C0C
160C
336C
606C
3EC6
0CC6
0D83
7F00
0CFE
6AC6
2AC6
2CC6
0EC6
7CFE
0000
ENDCHAR

STARTCHAR jisx0208_3175
ENCODING 12661
SWIDTH 960 0
DWIDTH 16 0
BBX 16 16 0 -2
BITMAP
0000
0C00
1F7E
3166
5B6E
0E63
79BF
0FF8
0C18
0FF8
0C18
0FFF
0003
36DB
66DE
0000
ENDCHAR

STARTCHAR jisx0208_3176
ENCODING 12662
SWIDTH 960 0
DWIDTH 16 0
BBX 16 16 0 -2
BITMAP
0000
1980
1980
1BFF
7B00
16FC
18CC
18FC
1800
19FE
1D56
7956
0156
0156
07FF
0000
ENDCHAR

STARTCHAR jisx0208_3177
ENCODING 12663
SWIDTH 960 0
DWIDTH 16 0
BBX 16 16 0 -2
BITMAP
0000
0C18
0C2C
0C2C
7F66
1866
18C3
1F00
1B30
1B18
1B0C
1B60
3330
3318
6E0C
0000
ENDCHAR

STARTCHAR jisx0208_3178
ENCODING 12664
SWIDTH 960 0
DWIDTH 16 0
BBX 16 16 0 -2
BITMAP
0000
3000
17FE
00C0
60C0
2FFF
0180
0180
03FE
1B06
1806
3006
3006
600C
6078
0000
ENDCHAR

STARTCHAR jisx0208_3179
ENCODING 12665
SWIDTH 960 0
DWIDTH 16 0
BBX 16 16 0 -2
BITMAP
0000
0CFF
2CDB
2CDB
3EFF
6CDB
6CDB
0CFF
3F30
0DFF
0C33
0C33
0F63
7CC3
038E
0000
ENDCHAR

STARTCHAR jisx0208_317A
ENCODING 12666
SWIDTH 960 0
DWIDTH 16 0
BBX 16 16 0 -2
BITMAP
0000
0000
7E7E
6666
6666
6666
6666
6666
67E6
6006
6006
6006
6006
6006
7FFE
0000
ENDCHAR

STARTCHAR jisx0208_317B
ENCODING 12667
SWIDTH 960 0
DWIDTH 16 0
BBX 16 16 0 -2
BITMAP
0000
0180
0180
1FF8
1998
1998
1998
1998
7FFE
0180
02C0
02C0
0660
1C38
700E
0000
ENDCHAR

STARTCHAR jisx0208_317C
ENCODING 12668
SWIDTH 960 0
DWIDTH 16 0
BBX 16 16 0 -2
BITMAP
0000
0300
3FFC
300C
2DAC
356C
2FEC
356C
2DAC
300C
0180
7FFE
02C0
0E70
781E
0000
ENDCHAR

STARTCHAR jisx0208_317D
ENCODING 12669
SWIDTH 960 0
DWIDTH 16 0
BBX 16 16 0 -2
BITMAP
0000
1860
1830
3000
6BFF
0C30
1830
3830
5830
19FE
1830
1830
1830
1830
1BFF
0000
ENDCHAR

STARTCHAR jisx0208_317E
ENCODING 12670
SWIDTH 960 0
DWIDTH 16 0
BBX 16 16 0 -2
BITMAP
0000
00C0
3FFF
3000
30C0
3060
3180
3180
318C
3586
3583
3583
2D8C
6D8C
60FC
0000
ENDCHAR

STARTCHAR jisx0208_3221
ENCODING 12833
SWIDTH 960 0
DWIDTH 16 0
BBX 16 16 0 -2
BITMAP
0000
1800
19FE
19B6
7DB6
19B6
19FE
19B6
1DB6
79B6
19FE
1830
1830
1830
3830
0000
ENDCHAR

STARTCHAR jisx0208_3222
ENCODING 12834
SWIDTH 960 0
DWIDTH 16 0
BBX 16 16 0 -2
BITMAP
0000
0000
7BFF
6C30
6C30
6C30
7C30
6C30
6DFE
6C30
6C30
7C30
0030
0030
03FF
0000
ENDCHAR

STARTCHAR jisx0208_3223
ENCODING 12835
SWIDTH 960 0
DWIDTH 16 0
BBX 16 16 0 -2
BITMAP
0000
1858
19FE
1858
7E58
1BFF
1830
3DFE
35B6
59FE
59B6
19FE
1800
18CE
1B83
0000
ENDCHAR

STARTCHAR jisx0208_3224
ENCODING 12836
SWIDTH 960 0
DWIDTH 16 0
BBX 16 16 0 -2
BITMAP
0000
0060
7F60
6060
66FF
76DB
5596
6C18
6C18
5618
5B2C
702C
6066
7F66
00C3
0000
ENDCHAR

STARTCHAR jisx0208_3225
ENCODING 12837
SWIDTH 960 0
DWIDTH 16 0
BBX 16 16 0 -2
BITMAP
0000
0000
7F7C
606C
666B
766B
56CF
6D80
6CFE
5666
5B6C
702C
6018
7F2C
00E7
0000
ENDCHAR

STARTCHAR jisx0208_3226
ENCODING 12838
SWIDTH 960 0
DWIDTH 16 0
BBX 16 16 0 -2
BITMAP
0000
0000
3FFE
0180
0180
0180
0180
1FFC
0180
0180
0180
0180
0180
3FFE
0000
0000
ENDCHAR

STARTCHAR jisx0208_3227
ENCODING 12839
SWIDTH 960 0
DWIDTH 16 0
BBX 16 16 0 -2
BITMAP
0000
0660
0C30
1B1C
7367
0630
1FD8
0000
7EFE
3366
1B36
070E
1B36
72E6
070E
0000
ENDCHAR

STARTCHAR jisx0208_3228
ENCODING 12840
SWIDTH 960 0
DWIDTH 16 0
BBX 16 16 0 -2
BITMAP
0000
1830
19FE
7DB6
05AE
0DB6
19FE
3576
5DAE
1600
1830
1BFF
1830
1858
1BCF
0000
ENDCHAR

STARTCHAR jisx0208_3229
ENCODING 12841
SWIDTH 960 0
DWIDTH 16 0
BBX 16 16 0 -2
BITMAP
0000
1B18
0DB0
7FFF
6183
6FFB
0C18
0FF8
0C18
0FFF
0C00
0FFF
0003
2DB3
6DAE
0000
ENDCHAR

STARTCHAR jisx0208_322A
ENCODING 12842
SWIDTH 960 0
DWIDTH 16 0
BBX 16 16 0 -2
BITMAP
0000
0018
7F7E
6066
667E
7666
567E
6C60
6C7F
5660
5B7F
7003
60AB
7EB3
018E
0000
ENDCHAR

STARTCHAR jisx0208_322B
ENCODING 12843
SWIDTH 960 0
DWIDTH 16 0
BBX 16 16 0 -2
BITMAP
0000
0660
3FFC
0660
0660
7FFE
0180
1FF8
1998
1FF8
1998
1FF8
0000
0E78
780E
0000
ENDCHAR

STARTCHAR jisx0208_322C
ENCODING 12844
SWIDTH 960 0
DWIDTH 16 0
BBX 16 16 0 -2
BITMAP
0000
0000
7FFE
6C66
6666
66C6
5FF6
6186
6186
6DB6
6DB6
6DB6
6FF6
6006
601E
0000
ENDCHAR

STARTCHAR jisx0208_322D
ENCODING 12845
SWIDTH 960 0
DWIDTH 16 0
BBX 16 16 0 -2
BITMAP
0000
3030
1830
0030
63FF
3333
0333
0333
0333
1BFF
1830
3030
3030
6030
6030
0000
ENDCHAR

STARTCHAR jisx0208_322E
ENCODING 12846
SWIDTH 960 0
DWIDTH 16 0
BBX 16 16 0 -2
BITMAP
0000
0630
7FFF
0630
0000
2C30
1836
39B6
6DAC
1B30
2C58
6C58
0CCC
0D86
3B03
0000
ENDCHAR

STARTCHAR jisx0208_322F
ENCODING 12847
SWIDTH 960 0
DWIDTH 16 0
BBX 16 16 0 -2
BITMAP
0000
1860
17FE
1998
30B0
2FFF
730C
33FC
330C
33FC
3000
3166
35B3
358C
2CFC
0000
ENDCHAR

STARTCHAR jisx0208_3230
ENCODING 12848
SWIDTH 960 0
DWIDTH 16 0
BBX 16 16 0 -2
BITMAP
0000
3FFE
3006
3006
3FFE
3000
3FFE
31B0
3318
2FEC
30C0
37F8
30C0
60C0
5FFE
0000
ENDCHAR

STARTCHAR jisx0208_3231
ENCODING 12849
SWIDTH 960 0
DWIDTH 16 0
BBX 16 16 0 -2
BITMAP
0000
1830
19FE
1CCC
5658
57FF
5986
59FE
1986
19FE
1800
18B6
1ADB
1ACC
167C
0000
ENDCHAR

STARTCHAR jisx0208_3232
ENCODING 12850
SWIDTH 960 0
DWIDTH 16 0
BBX 16 16 0 -2
BITMAP
0000
0030
3DFE
36CC
3658
3FFF
3586
35FE
3D86
35FE
3600
3656
3563
656C
6F7C
0000
ENDCHAR

STARTCHAR jisx0208_3233
ENCODING 12851
SWIDTH 960 0
DWIDTH 16 0
BBX 16 16 0 -2
BITMAP
0000
19FC
180C
1858
7E30
19FF
19B3
3DB3
35FF
59B3
59B3
19FF
19B3
19B3
19B7
0000
ENDCHAR

STARTCHAR jisx0208_3234
ENCODING 12852
SWIDTH 960 0
DWIDTH 16 0
BBX 16 16 0 -2
BITMAP
0000
0C30
2C30
2C30
3F30
6DFE
6C30
0C30
0F30
7C30
0C30
0C30
0C30
0C30
0BFF
0000
ENDCHAR

STARTCHAR jisx0208_3235
ENCODING 12853
SWIDTH 960 0
DWIDTH 16 0
BBX 16 16 0 -2
BITMAP
0000
0000
3FF8
0030
0060
00C0
0180
0300
0600
0C00
1800
3000
3006
3006
1FFC
0000
ENDCHAR

STARTCHAR jisx0208_3236
ENCODING 12854
SWIDTH 960 0
DWIDTH 16 0
BBX 16 16 0 -2
BITMAP
0000
0C60
0CC0
0BFE
1998
1B0C
3666
5BFB
1B6C
1BFC
1B6C
1BFC
1863
1863
183F
0000
ENDCHAR

STARTCHAR jisx0208_3237
ENCODING 12855
SWIDTH 960 0
DWIDTH 16 0
BBX 16 16 0 -2
BITMAP
0000
1800
183F
3FB3
6633
0633
7FB3
0633
3633
37B3
3633
3633
37AF
7E30
0030
0000
ENDCHAR

STARTCHAR jisx0208_3238
ENCODING 12856
SWIDTH 960 0
DWIDTH 16 0
BBX 16 16 0 -2
BITMAP
0000
1FFC
198C
198C
17EC
19CC
1B6C
162C
1FFC
0000
06C0
3666
361B
361B
63F8
0000
ENDCHAR

STARTCHAR jisx0208_3239
ENCODING 12857
SWIDTH 960 0
DWIDTH 16 0
BBX 16 16 0 -2
BITMAP
0000
33FC
1B0C
030C
63FC
330C
030C
03FC
0000
17FE
16B6
36B6
36B6
66B6
6FFF
0000
ENDCHAR

STARTCHAR jisx0208_323A
ENCODING 12858
SWIDTH 960 0
DWIDTH 16 0
BBX 16 16 0 -2
BITMAP
0000
061E
7BF0
1B66
19AC
7DFE
1806
3DFE
3606
59FE
5800
18B6
1ADB
1AC6
167E
0000
ENDCHAR

STARTCHAR jisx0208_323B
ENCODING 12859
SWIDTH 960 0
DWIDTH 16 0
BBX 16 16 0 -2
BITMAP
0000
0180
3FFC
0C30
0630
0660
7FFE
0000
1FF8
1818
1818
1FF8
1818
1818
1FF8
0000
ENDCHAR

STARTCHAR jisx0208_323C
ENCODING 12860
SWIDTH 960 0
DWIDTH 16 0
BBX 16 16 0 -2
BITMAP
0000
0000
7FFE
0180
0180
0180
01E0
01B0
0198
0180
0180
0180
0180
0180
0180
0000
ENDCHAR

STARTCHAR jisx0208_323D
ENCODING 12861
SWIDTH 960 0
DWIDTH 16 0
BBX 16 16 0 -2
BITMAP
0000
0CC0
0CC0
0CC0
18C6
18DC
38F0
58C0
18C0
18C0
18C0
18C0
18C3
18C3
187F
0000
ENDCHAR

STARTCHAR jisx0208_323E
ENCODING 12862
SWIDTH 960 0
DWIDTH 16 0
BBX 16 16 0 -2
BITMAP
0000
0C00
0DFF
0D80
1980
1980
39FE
5966
1966
19AC
19AC
1998
1B2C
1B66
15C3
0000
ENDCHAR

STARTCHAR jisx0208_323F
ENCODING 12863
SWIDTH 960 0
DWIDTH 16 0
BBX 16 16 0 -2
BITMAP
0000
0C00
0BFF
0C06
1806
1BF6
3B36
5B36
1B36
1B36
1BF6
1806
1806
1806
181E
0000
ENDCHAR

STARTCHAR jisx0208_3240
ENCODING 12864
SWIDTH 960 0
DWIDTH 16 0
BBX 16 16 0 -2
BITMAP
0000
1B00
1B00
1B1F
2FDB
335B
735B
335B
335B
335B
335B
335B
365B
365B
2DDF
0000
ENDCHAR

STARTCHAR jisx0208_3241
ENCODING 12865
SWIDTH 960 0
DWIDTH 16 0
BBX 16 16 0 -2
BITMAP
0000
0C00
0BFF
0C58
1858
1858
3BFF
5B5B
1B5B
1B5B
1B5B
1B5B
1B5B
1B5B
1BFF
0000
ENDCHAR

STARTCHAR jisx0208_3242
ENCODING 12866
SWIDTH 960 0
DWIDTH 16 0
BBX 16 16 0 -2
BITMAP
0000
0C60
0C60
0BFE
1860
1860
37FF
3860
5860
1860
1BFE
1860
1860
1860
17FF
0000
ENDCHAR

STARTCHAR jisx0208_3243
ENCODING 12867
SWIDTH 960 0
DWIDTH 16 0
BBX 16 16 0 -2
BITMAP
0000
1800
1800
7FBF
19B3
19B3
19B3
19B3
19B3
19B3
19B3
19B3
31B3
31B3
673F
0000
ENDCHAR

STARTCHAR jisx0208_3244
ENCODING 12868
SWIDTH 960 0
DWIDTH 16 0
BBX 16 16 0 -2
BITMAP
0000
0000
7FFF
000C
000C
1FCC
18CC
18CC
18CC
18CC
1FCC
000C
000C
000C
003C
0000
ENDCHAR

STARTCHAR jisx0208_3245
ENCODING 12869
SWIDTH 960 0
DWIDTH 16 0
BBX 16 16 0 -2
BITMAP
0000
0180
7FFE
0180
3FFC
1818
1FF8
0C30
0660
7FFE
1800
7F7E
1B66
3366
6E7E
0000
ENDCHAR

STARTCHAR jisx0208_3246
ENCODING 12870
SWIDTH 960 0
DWIDTH 16 0
BBX 16 16 0 -2
BITMAP
0000
7FFF
0180
1FFC
180C
1FFC
180C
1FFC
0300
07F8
1B18
71B0
00E0
07B8
7C0F
0000
ENDCHAR

STARTCHAR jisx0208_3247
ENCODING 12871
SWIDTH 960 0
DWIDTH 16 0
BBX 16 16 0 -2
BITMAP
0000
3030
3030
33FF
7B03
2DFE
2C60
6CE6
6DAC
6C58
6DDC
1836
1CDB
3598
6070
0000
ENDCHAR

STARTCHAR jisx0208_3248
ENCODING 12872
SWIDTH 960 0
DWIDTH 16 0
BBX 16 16 0 -2
BITMAP
0000
0180
7FFE
6006
5FF6
0180
0F00
399C
0370
0EC0
39E0
02B0
0ED8
78CE
0780
0000
ENDCHAR

STARTCHAR jisx0208_3249
ENCODING 12873
SWIDTH 960 0
DWIDTH 16 0
BBX 16 16 0 -2
BITMAP
0000
0180
7FFE
6006
5FF6
0300
1FF8
1818
1FF8
1818
7FFE
0660
1FF8
732E
1EE0
0000
ENDCHAR

STARTCHAR jisx0208_324A
ENCODING 12874
SWIDTH 960 0
DWIDTH 16 0
BBX 16 16 0 -2
BITMAP
0000
060C
7CCC
186C
180C
7ECC
186C
1C0C
360F
383C
59EC
580C
180C
180C
180C
0000
ENDCHAR

STARTCHAR jisx0208_324B
ENCODING 12875
SWIDTH 960 0
DWIDTH 16 0
BBX 16 16 0 -2
BITMAP
0000
03DF
7B63
6B63
6B63
6BDF
7B00
6B00
6BBF
6B1B
6B16
7BD6
030C
0316
0373
0000
ENDCHAR

STARTCHAR jisx0208_324C
ENCODING 12876
SWIDTH 960 0
DWIDTH 16 0
BBX 16 16 0 -2
BITMAP
0000
3FFC
318C
318C
3FFC
318C
318C
3FFC
0180
7FFE
03C0
0560
1DB8
718E
0180
0000
ENDCHAR

STARTCHAR jisx0208_324D
ENCODING 12877
SWIDTH 960 0
DWIDTH 16 0
BBX 16 16 0 -2
BITMAP
0000
1800
7F7E
1B66
1B66
3366
6E7E
0180
0180
7FFE
03C0
0560
1DB8
718E
0180
0000
ENDCHAR

STARTCHAR jisx0208_324E
ENCODING 12878
SWIDTH 960 0
DWIDTH 16 0
BBX 16 16 0 -2
BITMAP
0000
7F60
0360
3B60
2B7F
3ADB
06D6
0018
7F98
0318
3B2C
2B2C
3B66
0366
06C3
0000
ENDCHAR

STARTCHAR jisx0208_324F
ENCODING 12879
SWIDTH 960 0
DWIDTH 16 0
BBX 16 16 0 -2
BITMAP
0000
3000
17FF
0006
6006
33F6
0336
0336
0336
1B36
1BF6
3006
3006
6006
601E
0000
ENDCHAR

STARTCHAR jisx0208_3250
ENCODING 12880
SWIDTH 960 0
DWIDTH 16 0
BBX 16 16 0 -2
BITMAP
0000
0180
0180
0180
198C
198C
198C
3198
02C0
02C0
0660
0660
0C30
1818
700E
0000
ENDCHAR

STARTCHAR jisx0208_3251
ENCODING 12881
SWIDTH 960 0
DWIDTH 16 0
BBX 16 16 0 -2
BITMAP
0000
0000
7DFF
1806
1806
19F6
7DB6
19B6
19B6
19B6
19F6
1E06
7806
0006
001E
0000
ENDCHAR

STARTCHAR jisx0208_3252
ENCODING 12882
SWIDTH 960 0
DWIDTH 16 0
BBX 16 16 0 -2
BITMAP
0000
1800
19FE
7D86
05BE
0DB6
19B6
3BFF
5B03
16FB
1ACB
1ACB
1AFB
1B03
1B0F
0000
ENDCHAR

STARTCHAR jisx0208_3253
ENCODING 12883
SWIDTH 960 0
DWIDTH 16 0
BBX 16 16 0 -2
BITMAP
0000
007C
3FC0
0180
0180
0180
7FFE
0180
03C0
0560
0DB0
1998
718E
0180
0180
0000
ENDCHAR

STARTCHAR jisx0208_3254
ENCODING 12884
SWIDTH 960 0
DWIDTH 16 0
BBX 16 16 0 -2
BITMAP
0000
0630
7C30
1BFF
1B03
7DFE
1830
3CE6
35AC
5858
59DC
1B36
18DB
1B98
1870
0000
ENDCHAR

STARTCHAR jisx0208_3255
ENCODING 12885
SWIDTH 960 0
DWIDTH 16 0
BBX 16 16 0 -2
BITMAP
0000
1860
3EFE
6DB0
0618
3FFC
318C
2FEC
318C
37EC
366C
366C
37EC
300C
3FFC
0000
ENDCHAR

STARTCHAR jisx0208_3256
ENCODING 12886
SWIDTH 960 0
DWIDTH 16 0
BBX 16 16 0 -2
BITMAP
0000
0630
7FFF
0630
0000
0660
0666
0C5C
1C70
2C60
6C60
0C60
0C63
0C63
0C3F
0000
ENDCHAR

STARTCHAR jisx0208_3257
ENCODING 12887
SWIDTH 960 0
DWIDTH 16 0
BBX 16 16 0 -2
BITMAP
0000
0630
7FFF
0630
0000
7FFF
000C
1FCC
18CC
18CC
18CC
1FCC
000C
000C
003C
0000
ENDCHAR

STARTCHAR jisx0208_3258
ENCODING 12888
SWIDTH 960 0
DWIDTH 16 0
BBX 16 16 0 -2
BITMAP
0000
0630
7FFF
0630
0630
1800
183F
7FB3
19B3
19B3
19B3
19B3
31B3
31B3
673F
0000
ENDCHAR

STARTCHAR jisx0208_3259
ENCODING 12889
SWIDTH 960 0
DWIDTH 16 0
BBX 16 16 0 -2
BITMAP
0000
0630
7FFF
0630
1800
17FF
3806
3BF6
5B36
1B36
1B36
1BF6
1806
1806
181E
0000
ENDCHAR

STARTCHAR jisx0208_325A
ENCODING 12890
SWIDTH 960 0
DWIDTH 16 0
BBX 16 16 0 -2
BITMAP
0000
0660
7FFE
0660
3FFC
0DB0
0DB0
7FFE
0DB0
0DB0
3FFC
0180
7FFE
0180
0180
0000
ENDCHAR

STARTCHAR jisx0208_325B
ENCODING 12891
SWIDTH 960 0
DWIDTH 16 0
BBX 16 16 0 -2
BITMAP
0000
0660
7FFE
0660
1FF8
1998
1FF8
1998
1FF8
0180
7FFE
03C0
0D70
799E
0180
0000
ENDCHAR

STARTCHAR jisx0208_325C
ENCODING 12892
SWIDTH 960 0
DWIDTH 16 0
BBX 16 16 0 -2
BITMAP
0000
1800
19EF
19B3
7DB3
55B3
55EF
5580
5580
7DDF
199B
1996
15EC
1D96
75B3
0000
ENDCHAR

STARTCHAR jisx0208_325D
ENCODING 12893
SWIDTH 960 0
DWIDTH 16 0
BBX 16 16 0 -2
BITMAP
0000
0000
3DFE
01B6
7FB6
01FE
3DB6
01B6
3DFE
0030
3FFF
3678
36AC
37B7
3E30
0000
ENDCHAR

STARTCHAR jisx0208_325E
ENCODING 12894
SWIDTH 960 0
DWIDTH 16 0
BBX 16 16 0 -2
BITMAP
0000
0198
0FFF
7998
57FE
5B6C
5B6C
5FFF
5B6C
5B6C
77FE
0060
0FFF
0060
0060
0000
ENDCHAR

STARTCHAR jisx0208_325F
ENCODING 12895
SWIDTH 960 0
DWIDTH 16 0
BBX 16 16 0 -2
BITMAP
0000
0D9C
19F0
3986
59FE
0000
1FFC
180C
1FFC
180C
1FFC
180C
1FFC
0C18
780F
0000
ENDCHAR

STARTCHAR jisx0208_3260
ENCODING 12896
SWIDTH 960 0
DWIDTH 16 0
BBX 16 16 0 -2
BITMAP
0000
3300
1B00
07DF
035B
035B
7B5B
1B5B
1B5B
1B5B
165B
15DF
1800
2C00
67FF
0000
ENDCHAR

STARTCHAR jisx0208_3261
ENCODING 12897
SWIDTH 960 0
DWIDTH 16 0
BBX 16 16 0 -2
BITMAP
0000
31FE
1986
01BE
01B6
01B6
7BFF
1B03
1AFB
1ACB
1ACB
1AFB
1B07
2C00
67FF
0000
ENDCHAR

STARTCHAR jisx0208_3262
ENCODING 12898
SWIDTH 960 0
DWIDTH 16 0
BBX 16 16 0 -2
BITMAP
0000
1FF8
0180
7FFE
6186
5D76
0000
3EFC
330C
3EFC
3000
3EFC
306C
3F38
31EE
0000
ENDCHAR

STARTCHAR jisx0208_3263
ENCODING 12899
SWIDTH 960 0
DWIDTH 16 0
BBX 16 16 0 -2
BITMAP
0000
1830
1830
1830
7DFF
56C6
56C6
56C6
566C
7E6C
1838
1638
166C
1EC6
7983
0000
ENDCHAR

STARTCHAR jisx0208_3264
ENCODING 12900
SWIDTH 960 0
DWIDTH 16 0
BBX 16 16 0 -2
BITMAP
0000
19B0
172C
1B36
3330
2FFF
7330
3336
33B6
2F2C
332C
3318
333B
32EB
3707
0000
ENDCHAR

STARTCHAR jisx0208_3265
ENCODING 12901
SWIDTH 960 0
DWIDTH 16 0
BBX 16 16 0 -2
BITMAP
0000
1858
1BD6
18DB
56D8
57FF
56D8
56DB
56DB
57D6
56D6
56CC
7EDB
00B7
01C3
0000
ENDCHAR

STARTCHAR jisx0208_3266
ENCODING 12902
SWIDTH 960 0
DWIDTH 16 0
BBX 16 16 0 -2
BITMAP
0000
0760
3C6C
0C66
0C60
7FFF
0C60
0C66
0F66
7C6C
0C38
0C30
0CDB
0B8B
1C07
0000
ENDCHAR

STARTCHAR jisx0208_3267
ENCODING 12903
SWIDTH 960 0
DWIDTH 16 0
BBX 16 16 0 -2
BITMAP
0000
3FFE
0C60
0C60
0C60
0C60
7FFF
00E0
0160
0360
0660
1C60
7060
0060
01E0
0000
ENDCHAR

STARTCHAR jisx0208_3268
ENCODING 12904
SWIDTH 960 0
DWIDTH 16 0
BBX 16 16 0 -2
BITMAP
0000
0000
7FFE
0180
0180
6FF6
6DB6
6DB6
6FF6
6DB6
6DB6
6FF6
6006
6006
7FFE
0000
ENDCHAR

STARTCHAR jisx0208_3269
ENCODING 12905
SWIDTH 960 0
DWIDTH 16 0
BBX 16 16 0 -2
BITMAP
0000
0030
7F30
6C30
6C30
7F30
6330
6330
7F30
6C58
6C58
6CCC
7ECC
0186
0303
0000
ENDCHAR

STARTCHAR jisx0208_326A
ENCODING 12906
SWIDTH 960 0
DWIDTH 16 0
BBX 16 16 0 -2
BITMAP
0000
0630
7FFF
0630
0000
3FFE
0630
0630
0630
7FFF
0070
01B0
0F30
7830
00F0
0000
ENDCHAR

STARTCHAR jisx0208_326B
ENCODING 12907
SWIDTH 960 0
DWIDTH 16 0
BBX 16 16 0 -2
BITMAP
0000
1858
1BD6
18DB
7ED8
57FF
56D8
56D8
56D6
7DD6
18CC
18DC
16AB
1EC7
7BC3
0000
ENDCHAR

STARTCHAR jisx0208_326C
ENCODING 12908
SWIDTH 960 0
DWIDTH 16 0
BBX 16 16 0 -2
BITMAP
0000
1800
7F7E
1966
377E
6000
1FFC
180C
1FFC
180C
1FFC
180C
1FFC
0C18
780F
0000
ENDCHAR

STARTCHAR jisx0208_326D
ENCODING 12909
SWIDTH 960 0
DWIDTH 16 0
BBX 16 16 0 -2
BITMAP
0000
0066
7F66
2CCC
2CFF
2DCC
7ECC
0CFF
1CCC
1CCC
2CFF
6CCC
0CCC
0CCC
1CFF
0000
ENDCHAR

STARTCHAR jisx0208_326E
ENCODING 12910
SWIDTH 960 0
DWIDTH 16 0
BBX 16 16 0 -2
BITMAP
0000
1858
2BD6
36DB
58D8
3FFF
36D8
3ED8
36DB
3FDB
30D6
2CCC
2CDB
3EB7
75C3
0000
ENDCHAR

STARTCHAR jisx0208_326F
ENCODING 12911
SWIDTH 960 0
DWIDTH 16 0
BBX 16 16 0 -2
BITMAP
0000
0C00
7F7E
0D66
1966
777E
0000
1FFC
18C0
1FFC
18C0
1FFF
0003
2DB3
6DAE
0000
ENDCHAR

STARTCHAR jisx0208_3270
ENCODING 12912
SWIDTH 960 0
DWIDTH 16 0
BBX 16 16 0 -2
BITMAP
0000
0180
02C0
0660
0C30
1818
6C2E
0C30
0C30
0C30
0C30
1830
1830
3030
6030
0000
ENDCHAR

STARTCHAR jisx0208_3271
ENCODING 12913
SWIDTH 960 0
DWIDTH 16 0
BBX 16 16 0 -2
BITMAP
0000
0180
02C0
0660
0C30
1818
6FEE
0000
0000
7FFE
0300
0630
0618
0CEC
3F8C
0000
ENDCHAR

STARTCHAR jisx0208_3272
ENCODING 12914
SWIDTH 960 0
DWIDTH 16 0
BBX 16 16 0 -2
BITMAP
0000
1800
1EFF
3633
6C63
3ECE
2B18
3F58
2B7F
2AD8
3F18
32FF
3318
6318
6718
0000
ENDCHAR

STARTCHAR jisx0208_3273
ENCODING 12915
SWIDTH 960 0
DWIDTH 16 0
BBX 16 16 0 -2
BITMAP
0000
0000
3FFE
3006
3006
37F6
3636
3636
3636
3636
37F6
3006
3006
3FFE
0000
0000
ENDCHAR

STARTCHAR jisx0208_3274
ENCODING 12916
SWIDTH 960 0
DWIDTH 16 0
BBX 16 16 0 -2
BITMAP
0000
1860
1BFE
1B66
1B66
7FFE
1B66
1B66
1BFE
18B6
1EAB
79BF
01B0
0333
0E1F
0000
ENDCHAR

STARTCHAR jisx0208_3275
ENCODING 12917
SWIDTH 960 0
DWIDTH 16 0
BBX 16 16 0 -2
BITMAP
0000
1830
17FF
1830
1BFF
7F5B
1B5B
1BFF
1830
1BFF
1EB6
7BAC
0D98
01EC
0787
0000
ENDCHAR

STARTCHAR jisx0208_3276
ENCODING 12918
SWIDTH 960 0
DWIDTH 16 0
BBX 16 16 0 -2
BITMAP
0000
0000
7BFE
0B06
1AF6
1AD6
32D6
7AD6
0AD6
2AF6
2B06
5BFE
1800
2C00
67FF
0000
ENDCHAR

STARTCHAR jisx0208_3277
ENCODING 12919
SWIDTH 960 0
DWIDTH 16 0
BBX 16 16 0 -2
BITMAP
0000
1860
1860
1BFC
566C
566C
586C
586C
17FF
1860
18B0
18B0
1998
1B0C
1607
0000
ENDCHAR

STARTCHAR jisx0208_3278
ENCODING 12920
SWIDTH 960 0
DWIDTH 16 0
BBX 16 16 0 -2
BITMAP
0000
1800
1BFC
1D8C
5598
56B0
5870
59DC
1767
1860
1BFE
1860
1860
1860
17FF
0000
ENDCHAR

STARTCHAR jisx0208_3279
ENCODING 12921
SWIDTH 960 0
DWIDTH 16 0
BBX 16 16 0 -2
BITMAP
0000
1980
19FF
1B00
5600
55FE
59B6
59B6
17FF
19B6
19B6
19B6
1BFF
1B06
181C
0000
ENDCHAR

STARTCHAR jisx0208_327A
ENCODING 12922
SWIDTH 960 0
DWIDTH 16 0
BBX 16 16 0 -2
BITMAP
0000
1800
19FF
1D80
5598
559B
595B
5956
19D8
1998
19AC
19AC
1B66
1B66
16C3
0000
ENDCHAR

STARTCHAR jisx0208_327B
ENCODING 12923
SWIDTH 960 0
DWIDTH 16 0
BBX 16 16 0 -2
BITMAP
0000
1830
1BFF
1C30
57FF
5B5B
5B5B
5BFF
1830
17FF
185B
19D6
16CC
18F6
1BC3
0000
ENDCHAR

STARTCHAR jisx0208_327C
ENCODING 12924
SWIDTH 960 0
DWIDTH 16 0
BBX 16 16 0 -2
BITMAP
0000
006C
0066
7FFF
0060
1B60
1B66
1B36
7FAC
1B2C
1B18
3338
335B
61CB
0707
0000
ENDCHAR

STARTCHAR jisx0208_327D
ENCODING 12925
SWIDTH 960 0
DWIDTH 16 0
BBX 16 16 0 -2
BITMAP
0000
1800
19FF
1983
7D83
1983
19FF
1800
1DFF
7863
1863
1863
18C3
18C3
3B9E
0000
ENDCHAR

STARTCHAR jisx0208_327E
ENCODING 12926
SWIDTH 960 0
DWIDTH 16 0
BBX 16 16 0 -2
BITMAP
0000
0060
7E60
06C0
06FF
0566
7D66
6366
6066
602C
632C
6318
3F2C
00E6
0383
0000
ENDCHAR

STARTCHAR jisx0208_3321
ENCODING 13089
SWIDTH 960 0
DWIDTH 16 0
BBX 16 16 0 -2
BITMAP
0000
0C06
1836
7F96
6D86
7F66
6DB6
6D87
7F8E
1636
16C6
1566
37B6
3603
63FF
0000
ENDCHAR

STARTCHAR jisx0208_3322
ENCODING 13090
SWIDTH 960 0
DWIDTH 16 0
BBX 16 16 0 -2
BITMAP
0000
0180
7DFF
6B00
6E00
6DFE
7DB6
6DB6
6BFF
6DB6
6DB6
7DB6
03FF
0306
001C
0000
ENDCHAR

STARTCHAR jisx0208_3323
ENCODING 13091
SWIDTH 960 0
DWIDTH 16 0
BBX 16 16 0 -2
BITMAP
0000
1818
1816
181B
7BFF
1818
1958
3D5B
3BFB
5956
5956
1B6C
1B1B
162B
18E7
0000
ENDCHAR

STARTCHAR jisx0208_3324
ENCODING 13092
SWIDTH 960 0
DWIDTH 16 0
BBX 16 16 0 -2
BITMAP
0000
3180
19FF
0300
6600
31FE
01B6
01B6
07FF
19B6
19B6
31B6
33FF
6306
601C
0000
ENDCHAR

STARTCHAR jisx0208_3325
ENCODING 13093
SWIDTH 960 0
DWIDTH 16 0
BBX 16 16 0 -2
BITMAP
0000
0000
3FFE
3000
3060
3060
3366
3366
366C
3060
30B0
30B0
3198
630C
6606
0000
ENDCHAR

STARTCHAR jisx0208_3326
ENCODING 13094
SWIDTH 960 0
DWIDTH 16 0
BBX 16 16 0 -2
BITMAP
0000
3FFC
318C
318C
3FFC
318C
318C
3FFC
0660
1C38
766E
0660
0660
0C60
3860
0000
ENDCHAR

STARTCHAR jisx0208_3327
ENCODING 13095
SWIDTH 960 0
DWIDTH 16 0
BBX 16 16 0 -2
BITMAP
0000
1860
1F6E
1878
1860
1F63
783F
0180
1FFC
180C
180C
1FFC
180C
180C
1FFC
0000
ENDCHAR

STARTCHAR jisx0208_3328
ENCODING 13096
SWIDTH 960 0
DWIDTH 16 0
BBX 16 16 0 -2
BITMAP
0000
1830
3058
66CC
2D86
1B03
36FC
7E00
1600
1BFF
5660
566C
56C6
58DB
1BF3
0000
ENDCHAR

STARTCHAR jisx0208_3329
ENCODING 13097
SWIDTH 960 0
DWIDTH 16 0
BBX 16 16 0 -2
BITMAP
0000
0630
7FFF
0630
01C0
0360
0630
1C1C
7007
0630
0630
0630
0630
0C30
3830
0000
ENDCHAR

STARTCHAR jisx0208_332A
ENCODING 13098
SWIDTH 960 0
DWIDTH 16 0
BBX 16 16 0 -2
BITMAP
0000
1800
3EFE
6C36
3F6C
2AFE
3ED8
63FF
6718
0180
3FFC
318C
3FFC
0186
7FFB
0000
ENDCHAR

STARTCHAR jisx0208_332B
ENCODING 13099
SWIDTH 960 0
DWIDTH 16 0
BBX 16 16 0 -2
BITMAP
0000
7E7E
6666
7E7E
6666
7E7E
6006
6FF6
6666
6666
5FF6
6666
6C66
5866
601E
0000
ENDCHAR

STARTCHAR jisx0208_332C
ENCODING 13100
SWIDTH 960 0
DWIDTH 16 0
BBX 16 16 0 -2
BITMAP
0000
7D98
6DDB
6D9E
5998
59DB
6B9F
6C60
6DFE
6D86
7986
61FE
6186
6186
61FE
0000
ENDCHAR

STARTCHAR jisx0208_332D
ENCODING 13101
SWIDTH 960 0
DWIDTH 16 0
BBX 16 16 0 -2
BITMAP
0000
1FFC
180C
180C
1FFC
180C
180C
1FFC
180C
180C
180C
1FFC
0000
0E3C
7807
0000
ENDCHAR

STARTCHAR jisx0208_332E
ENCODING 13102
SWIDTH 960 0
DWIDTH 16 0
BBX 16 16 0 -2
BITMAP
0000
0C00
2B7C
3F6C
006C
7F6C
006C
3F6C
336C
3F6C
036C
366C
176B
7CCB
018F
0000
ENDCHAR

STARTCHAR jisx0208_332F
ENCODING 13103
SWIDTH 960 0
DWIDTH 16 0
BBX 16 16 0 -2
BITMAP
0000
0C30
0C30
7FB0
0CFF
5833
3333
1633
0C33
19B3
7333
0633
0B63
1963
70CE
0000
ENDCHAR

STARTCHAR jisx0208_3330
ENCODING 13104
SWIDTH 960 0
DWIDTH 16 0
BBX 16 16 0 -2
BITMAP
0000
0C30
0C30
0FB0
19B0
1970
31B8
5B2C
0B36
0633
0630
0C30
1830
3030
6030
0000
ENDCHAR

STARTCHAR jisx0208_3331
ENCODING 13105
SWIDTH 960 0
DWIDTH 16 0
BBX 16 16 0 -2
BITMAP
0000
0030
7C30
6BFF
6C30
6C60
6ACC
6D98
6CB0
6C66
7DCC
0718
006C
01C6
0703
0000
ENDCHAR

STARTCHAR jisx0208_3332
ENCODING 13106
SWIDTH 960 0
DWIDTH 16 0
BBX 16 16 0 -2
BITMAP
0000
0180
7FFE
6006
6186
1FF8
0180
0FF0
0180
7FFE
0000
1FF8
1818
1818
1FF8
0000
ENDCHAR

STARTCHAR jisx0208_3333
ENCODING 13107
SWIDTH 960 0
DWIDTH 16 0
BBX 16 16 0 -2
BITMAP
0000
0180
318C
318C
3FFC
0000
3FFE
30C0
37F8
30C0
2FFE
30C0
37F8
60C0
5FFE
0000
ENDCHAR

STARTCHAR jisx0208_3334
ENCODING 13108
SWIDTH 960 0
DWIDTH 16 0
BBX 16 16 0 -2
BITMAP
0000
1800
1BFF
1B6C
5BEC
576C
5B6C
5BFF
1B0C
1B1C
1ADC
1AAC
1B6B
176B
18CF
0000
ENDCHAR

STARTCHAR jisx0208_3335
ENCODING 13109
SWIDTH 960 0
DWIDTH 16 0
BBX 16 16 0 -2
BITMAP
0000
1800
1BFF
1B6C
7FEC
1B6C
1B6C
3BFF
370C
5B1C
5ADC
1AAC
1B6B
176B
18CF
0000
ENDCHAR

STARTCHAR jisx0208_3336
ENCODING 13110
SWIDTH 960 0
DWIDTH 16 0
BBX 16 16 0 -2
BITMAP
0000
3000
17FF
0630
6630
35FE
0630
0630
07FF
1630
1630
35FE
2C30
6C30
5BFF
0000
ENDCHAR

STARTCHAR jisx0208_3337
ENCODING 13111
SWIDTH 960 0
DWIDTH 16 0
BBX 16 16 0 -2
BITMAP
0000
00FE
7EC6
18FE
18C6
18FE
3000
3DFF
760C
35FF
360C
36CC
366C
3E0C
003C
0000
ENDCHAR

STARTCHAR jisx0208_3338
ENCODING 13112
SWIDTH 960 0
DWIDTH 16 0
BBX 16 16 0 -2
BITMAP
0000
0C30
7FFF
0C30
0180
1FFC
0180
7FFF
060C
3FF6
0000
1FFC
1B6C
1B6C
7FFF
0000
ENDCHAR

STARTCHAR jisx0208_3339
ENCODING 13113
SWIDTH 960 0
DWIDTH 16 0
BBX 16 16 0 -2
BITMAP
0000
1980
199F
37E0
6180
1980
17DF
3186
7186
37E6
3186
3186
31F6
2F86
301E
0000
ENDCHAR

STARTCHAR jisx0208_333A
ENCODING 13114
SWIDTH 960 0
DWIDTH 16 0
BBX 16 16 0 -2
BITMAP
0000
0030
7830
03FF
7E30
0160
7CCC
0058
7C30
0066
7DCC
6B18
6C2C
6CE6
7B83
0000
ENDCHAR

STARTCHAR jisx0208_333B
ENCODING 13115
SWIDTH 960 0
DWIDTH 16 0
BBX 16 16 0 -2
BITMAP
0000
1830
2DB6
65B6
01FE
7E00
1BFF
1800
7DFE
1986
5586
55FE
58CC
1E58
7BFF
0000
ENDCHAR

STARTCHAR jisx0208_333C
ENCODING 13116
SWIDTH 960 0
DWIDTH 16 0
BBX 16 16 0 -2
BITMAP
0000
3E18
3618
2EFF
3618
7EB0
6366
3E2C
3618
3E33
36E6
3E0C
361C
3636
2EE3
0000
ENDCHAR

STARTCHAR jisx0208_333D
ENCODING 13117
SWIDTH 960 0
DWIDTH 16 0
BBX 16 16 0 -2
BITMAP
0000
3000
17FE
0666
6666
37FE
0666
0666
07FE
1860
1860
37FE
3060
6060
6FFF
0000
ENDCHAR

STARTCHAR jisx0208_333E
ENCODING 13118
SWIDTH 960 0
DWIDTH 16 0
BBX 16 16 0 -2
BITMAP
0000
0C78
7F56
0CCE
3EFC
2ACC
3F78
30CE
5FF8
0180
7FFE
0DB0
1FF8
6C2E
0FF0
0000
ENDCHAR

STARTCHAR jisx0208_333F
ENCODING 13119
SWIDTH 960 0
DWIDTH 16 0
BBX 16 16 0 -2
BITMAP
0000
1830
1830
19FE
7E30
5630
55FE
5600
5630
7E30
19FE
1630
1630
1F30
7BFF
0000
ENDCHAR

STARTCHAR jisx0208_3340
ENCODING 13120
SWIDTH 960 0
DWIDTH 16 0
BBX 16 16 0 -2
BITMAP
0000
1800
1BFE
1800
7E00
19FC
198C
198C
19FC
198C
1D8C
79FC
0000
0000
0FFF
0000
ENDCHAR

STARTCHAR jisx0208_3341
ENCODING 13121
SWIDTH 960 0
DWIDTH 16 0
BBX 16 16 0 -2
BITMAP
0000
1830
1830
1BFF
7E30
1830
19FE
3DB6
35B6
59B6
59B6
19B6
19B6
19AE
1830
0000
ENDCHAR

STARTCHAR jisx0208_3342
ENCODING 13122
SWIDTH 960 0
DWIDTH 16 0
BBX 16 16 0 -2
BITMAP
0000
19FF
1980
1980
7DFF
55B0
55B0
55BE
55B6
7DB6
19B6
15B6
1566
1F66
7ADC
0000
ENDCHAR

STARTCHAR jisx0208_3343
ENCODING 13123
SWIDTH 960 0
DWIDTH 16 0
BBX 16 16 0 -2
BITMAP
0000
1860
2C60
66C0
00FF
7D83
1B63
1863
7E63
18DB
56DB
55EB
580B
1E03
780E
0000
ENDCHAR

STARTCHAR jisx0208_3344
ENCODING 13124
SWIDTH 960 0
DWIDTH 16 0
BBX 16 16 0 -2
BITMAP
0000
0C03
3FB3
0DB3
7FB3
0DB3
3FB3
0C33
7FB3
2DB3
2DB3
3FB3
0003
03C3
7E0F
0000
ENDCHAR

STARTCHAR jisx0208_3345
ENCODING 13125
SWIDTH 960 0
DWIDTH 16 0
BBX 16 16 0 -2
BITMAP
0000
0198
0198
77BE
5998
5998
57FF
5AAC
5AAC
7AAE
0AAB
1AAB
16AB
06AC
0DDC
0000
ENDCHAR

STARTCHAR jisx0208_3346
ENCODING 13126
SWIDTH 960 0
DWIDTH 16 0
BBX 16 16 0 -2
BITMAP
0000
0300
0600
0FF8
1630
7360
01C0
0360
0E38
780F
0FF8
0C18
0C18
0C18
0FF8
0000
ENDCHAR

STARTCHAR jisx0208_3347
ENCODING 13127
SWIDTH 960 0
DWIDTH 16 0
BBX 16 16 0 -2
BITMAP
0000
00C0
3FFF
3300
2FBF
3033
2FB6
2CAC
2FAC
31B6
3333
33B3
2F33
632E
6730
0000
ENDCHAR

STARTCHAR jisx0208_3348
ENCODING 13128
SWIDTH 960 0
DWIDTH 16 0
BBX 16 16 0 -2
BITMAP
0000
1830
1830
1BFF
7B00
1B30
1B30
1B30
1B60
7B6C
1B66
1AC6
1ADB
15F3
3603
0000
ENDCHAR

STARTCHAR jisx0208_3349
ENCODING 13129
SWIDTH 960 0
DWIDTH 16 0
BBX 16 16 0 -2
BITMAP
0000
1B66
19AC
17FF
7E03
15FB
198C
19FC
1D8C
79FC
198C
19FC
18D8
199B
371F
0000
ENDCHAR

STARTCHAR jisx0208_334A
ENCODING 13130
SWIDTH 960 0
DWIDTH 16 0
BBX 16 16 0 -2
BITMAP
0000
1860
1860
18FE
7EC6
196C
1B38
3C6C
35C7
5800
58FE
18C6
18C6
18C6
18FE
0000
ENDCHAR

STARTCHAR jisx0208_334B
ENCODING 13131
SWIDTH 960 0
DWIDTH 16 0
BBX 16 16 0 -2
BITMAP
0000
1830
1830
1BFF
7E30
1960
18CC
3C58
3630
58E6
5B8C
1818
182C
18E6
1B83
0000
ENDCHAR

STARTCHAR jisx0208_334C
ENCODING 13132
SWIDTH 960 0
DWIDTH 16 0
BBX 16 16 0 -2
BITMAP
0000
1800
187C
7F6C
186C
7E6B
00CF
7F00
62FE
3E66
366C
362C
3598
372C
6EE7
0000
ENDCHAR

STARTCHAR jisx0208_334D
ENCODING 13133
SWIDTH 960 0
DWIDTH 16 0
BBX 16 16 0 -2
BITMAP
0000
6CCC
2BFF
18CC
39FE
6BB0
0DFE
0DB0
1DFE
2DB0
6BFF
0CCC
0C58
0C78
7BCF
0000
ENDCHAR

STARTCHAR jisx0208_334E
ENCODING 13134
SWIDTH 960 0
DWIDTH 16 0
BBX 16 16 0 -2
BITMAP
0000
0030
7E30
1BFF
1B63
1B6B
30D8
3DFF
6B98
2DFE
2D98
2DFE
2D98
3D98
01FF
0000
ENDCHAR

STARTCHAR jisx0208_334F
ENCODING 13135
SWIDTH 960 0
DWIDTH 16 0
BBX 16 16 0 -2
BITMAP
0000
06CC
7BFF
18CC
19FF
7BB0
15FE
3DB0
35FE
59B0
5BFF
18CC
1858
1878
1BCF
0000
ENDCHAR

STARTCHAR jisx0208_3350
ENCODING 13136
SWIDTH 960 0
DWIDTH 16 0
BBX 16 16 0 -2
BITMAP
0000
198C
0CD8
7FFF
6003
6FFB
0C18
0FF8
0C18
0FF8
0C18
0FF8
0363
0E63
783F
0000
ENDCHAR

STARTCHAR jisx0208_3351
ENCODING 13137
SWIDTH 960 0
DWIDTH 16 0
BBX 16 16 0 -2
BITMAP
0000
0300
03F0
0630
0C60
3FFE
0CC6
0FFE
0CC6
0CC6
0FFE
0C06
0C06
1806
301E
0000
ENDCHAR

STARTCHAR jisx0208_3352
ENCODING 13138
SWIDTH 960 0
DWIDTH 16 0
BBX 16 16 0 -2
BITMAP
0000
0C18
0C18
3F7E
0C18
0C18
7EFF
162C
16AE
56AB
55AB
55AB
366C
366C
6EDC
0000
ENDCHAR

STARTCHAR jisx0208_3353
ENCODING 13139
SWIDTH 960 0
DWIDTH 16 0
BBX 16 16 0 -2
BITMAP
0000
1830
1830
7DFF
1800
7ECC
5586
7E03
56CC
7ECC
1858
7E30
1858
18CC
1B87
0000
ENDCHAR

STARTCHAR jisx0208_3354
ENCODING 13140
SWIDTH 960 0
DWIDTH 16 0
BBX 16 16 0 -2
BITMAP
0000
0C00
7F7F
0063
3F66
336C
3F6C
0066
3F66
0663
0C63
0F63
7C5E
0C60
1C60
0000
ENDCHAR

STARTCHAR jisx0208_3355
ENCODING 13141
SWIDTH 960 0
DWIDTH 16 0
BBX 16 16 0 -2
BITMAP
0000
7E7E
6666
7E7E
6666
7E7E
6306
67E6
6E66
5BC6
6666
5FF6
6666
67E6
601E
0000
ENDCHAR

STARTCHAR jisx0208_3356
ENCODING 13142
SWIDTH 960 0
DWIDTH 16 0
BBX 16 16 0 -2
BITMAP
0000
7BFF
6C00
6DFE
5986
59FE
6C00
6BFF
6B5B
6BDF
7B03
62FB
6333
6333
6337
0000
ENDCHAR

STARTCHAR jisx0208_3357
ENCODING 13143
SWIDTH 960 0
DWIDTH 16 0
BBX 16 16 0 -2
BITMAP
0000
0C30
7FFE
0C30
0FF0
0180
1FF8
1998
1998
1FF8
0180
0180
7FFE
0180
0180
0000
ENDCHAR

STARTCHAR jisx0208_3358
ENCODING 13144
SWIDTH 960 0
DWIDTH 16 0
BBX 16 16 0 -2
BITMAP
0000
3318
19B0
7FFE
6006
6006
1FF8
0070
01C0
0180
7FFE
0180
0180
0180
0780
0000
ENDCHAR

STARTCHAR jisx0208_3359
ENCODING 13145
SWIDTH 960 0
DWIDTH 16 0
BBX 16 16 0 -2
BITMAP
0000
0078
1FC0
1800
1FFC
1860
1860
1860
7FFE
0180
318C
318C
318C
318C
3FFC
0000
ENDCHAR

STARTCHAR jisx0208_335A
ENCODING 13146
SWIDTH 960 0
DWIDTH 16 0
BBX 16 16 0 -2
BITMAP
0000
0180
37EC
1658
07E0
0658
166C
77E6
0180
7FFE
03C0
0560
1DB8
718E
0180
0000
ENDCHAR

STARTCHAR jisx0208_335B
ENCODING 13147
SWIDTH 960 0
DWIDTH 16 0
BBX 16 16 0 -2
BITMAP
0000
0CFF
7F98
617E
5966
1F66
337E
5666
0E7E
1B66
7166
3F7E
3300
332E
3EE3
0000
ENDCHAR

STARTCHAR jisx0208_335C
ENCODING 13148
SWIDTH 960 0
DWIDTH 16 0
BBX 16 16 0 -2
BITMAP
0000
77FF
5598
557E
7766
0066
3F7E
0066
7F7E
1866
3F66
337E
0300
032E
0EE3
0000
ENDCHAR

STARTCHAR jisx0208_335D
ENCODING 13149
SWIDTH 960 0
DWIDTH 16 0
BBX 16 16 0 -2
BITMAP
0000
18CC
18CC
1BEC
7ECC
18CC
1BEE
18CB
1ECB
7BEC
18CC
18CC
18EC
1BCC
380C
0000
ENDCHAR

STARTCHAR jisx0208_335E
ENCODING 13150
SWIDTH 960 0
DWIDTH 16 0
BBX 16 16 0 -2
BITMAP
0000
1860
3EFE
6DB0
0618
0180
0180
3FFC
0030
0C30
0C30
0660
0660
06C0
7FFE
0000
ENDCHAR

STARTCHAR jisx0208_335F
ENCODING 13151
SWIDTH 960 0
DWIDTH 16 0
BBX 16 16 0 -2
BITMAP
0000
1BDF
1ADB
1BDB
7F5B
1BEE
1ACE
3BDB
3630
5830
59FE
1830
1830
1830
1BFF
0000
ENDCHAR

STARTCHAR jisx0208_3360
ENCODING 13152
SWIDTH 960 0
DWIDTH 16 0
BBX 16 16 0 -2
BITMAP
0000
1BFF
19B6
19FE
7DB6
19FE
1800
3BFF
35B6
59FE
59B6
19B6
19FE
1800
17FF
0000
ENDCHAR

STARTCHAR jisx0208_3361
ENCODING 13153
SWIDTH 960 0
DWIDTH 16 0
BBX 16 16 0 -2
BITMAP
0000
19FF
1983
19FF
7D80
198E
1978
3D98
359E
5978
599B
199E
1B78
1B1B
161F
0000
ENDCHAR

STARTCHAR jisx0208_3362
ENCODING 13154
SWIDTH 960 0
DWIDTH 16 0
BBX 16 16 0 -2
BITMAP
0000
306C
3DCC
6CCC
18CB
7DDB
56AE
7ECC
55EC
56AC
7ECC
00D6
56D6
56B3
60B3
0000
ENDCHAR

STARTCHAR jisx0208_3363
ENCODING 13155
SWIDTH 960 0
DWIDTH 16 0
BBX 16 16 0 -2
BITMAP
0000
30C0
1BBE
0306
63BE
3306
03FE
00C0
01FF
1703
1803
32AB
32AB
6603
600E
0000
ENDCHAR

STARTCHAR jisx0208_3364
ENCODING 13156
SWIDTH 960 0
DWIDTH 16 0
BBX 16 16 0 -2
BITMAP
0000
0603
7FDB
605B
665B
1F9B
061B
3FDB
061B
7FDB
001B
3FDB
30C3
30C3
3FCF
0000
ENDCHAR

STARTCHAR jisx0208_3365
ENCODING 13157
SWIDTH 960 0
DWIDTH 16 0
BBX 16 16 0 -2
BITMAP
0000
01FE
7D86
6DFE
6D86
6D86
6DFE
6CC0
6DFF
7B83
05B3
01E3
019B
00FB
000E
0000
ENDCHAR

STARTCHAR jisx0208_3366
ENCODING 13158
SWIDTH 960 0
DWIDTH 16 0
BBX 16 16 0 -2
BITMAP
0000
1830
1858
1C58
56CC
5586
5AFB
5800
1800
19FE
1986
1986
1986
1986
19FE
0000
ENDCHAR

STARTCHAR jisx0208_3367
ENCODING 13159
SWIDTH 960 0
DWIDTH 16 0
BBX 16 16 0 -2
BITMAP
0000
180E
19F8
1830
7E30
1BFF
1830
1830
1E30
79FE
1986
1986
1986
1986
39FE
0000
ENDCHAR

STARTCHAR jisx0208_3368
ENCODING 13160
SWIDTH 960 0
DWIDTH 16 0
BBX 16 16 0 -2
BITMAP
0000
301C
1BF0
0060
6060
2FFF
0060
0060
0060
1BFE
1B06
3306
3306
6306
63FE
0000
ENDCHAR

STARTCHAR jisx0208_3369
ENCODING 13161
SWIDTH 960 0
DWIDTH 16 0
BBX 16 16 0 -2
BITMAP
0000
33FE
1B06
03FE
6306
3306
03FE
0180
03FF
1603
1B73
33C3
331B
61FB
600E
0000
ENDCHAR

STARTCHAR jisx0208_336A
ENCODING 13162
SWIDTH 960 0
DWIDTH 16 0
BBX 16 16 0 -2
BITMAP
0000
33FC
1B0C
037C
636C
2FFF
0C03
0BFB
030C
1BFC
1B0C
33FC
330C
630C
633C
0000
ENDCHAR

STARTCHAR jisx0208_336B
ENCODING 13163
SWIDTH 960 0
DWIDTH 16 0
BBX 16 16 0 -2
BITMAP
0000
0630
7FFF
0630
1FFC
180C
1FFC
180C
1FFE
2C06
6CE6
0F86
0C36
07F6
001C
0000
ENDCHAR

STARTCHAR jisx0208_336C
ENCODING 13164
SWIDTH 960 0
DWIDTH 16 0
BBX 16 16 0 -2
BITMAP
0000
19FE
1986
7DFE
0586
0D86
19FE
36C0
5DFF
1783
19B3
19E3
199B
18FB
180E
0000
ENDCHAR

STARTCHAR jisx0208_336D
ENCODING 13165
SWIDTH 960 0
DWIDTH 16 0
BBX 16 16 0 -2
BITMAP
0000
1830
19FF
7D83
19B3
7EFE
5630
7EFE
5630
7DFF
1800
7EFE
18C6
18C6
18FE
0000
ENDCHAR

STARTCHAR jisx0208_336E
ENCODING 13166
SWIDTH 960 0
DWIDTH 16 0
BBX 16 16 0 -2
BITMAP
0000
0FF8
0C18
0C18
0C18
0FF8
0C18
0C18
0C18
0FF8
0C18
0C18
0C18
0C18
7FFF
0000
ENDCHAR

STARTCHAR jisx0208_336F
ENCODING 13167
SWIDTH 960 0
DWIDTH 16 0
BBX 16 16 0 -2
BITMAP
0000
31EF
3D6B
6DEB
19AB
7DF6
5566
7DEB
5600
5630
7EFE
0030
5630
5630
61FF
0000
ENDCHAR

STARTCHAR jisx0208_3370
ENCODING 13168
SWIDTH 960 0
DWIDTH 16 0
BBX 16 16 0 -2
BITMAP
0000
0030
7C30
6C30
6C30
6C30
6BFF
6C30
6C30
6C30
6C30
7C30
0030
0030
0030
0000
ENDCHAR

STARTCHAR jisx0208_3371
ENCODING 13169
SWIDTH 960 0
DWIDTH 16 0
BBX 16 16 0 -2
BITMAP
0000
18D8
18D8
1BFF
7ED8
1800
18D8
3CDB
3596
599C
5BB8
1558
199B
199B
199F
0000
ENDCHAR

STARTCHAR jisx0208_3372
ENCODING 13170
SWIDTH 960 0
DWIDTH 16 0
BBX 16 16 0 -2
BITMAP
0000
18CC
1BFF
18CC
7BFF
19B6
19B6
3BFF
35B6
59B6
5BFF
1830
1BFF
1830
1830
0000
ENDCHAR

STARTCHAR jisx0208_3373
ENCODING 13171
SWIDTH 960 0
DWIDTH 16 0
BBX 16 16 0 -2
BITMAP
0000
1660
7F7F
16C3
1D83
0C7B
3F0B
2B0B
2B7B
3F63
0C6E
7F60
0C63
0C63
0C3F
0000
ENDCHAR

STARTCHAR jisx0208_3374
ENCODING 13172
SWIDTH 960 0
DWIDTH 16 0
BBX 16 16 0 -2
BITMAP
0000
1830
19B0
19B0
7DFE
1B30
1830
3BFF
3630
5878
58AC
18AC
19B6
1B33
1830
0000
ENDCHAR

STARTCHAR jisx0208_3375
ENCODING 13173
SWIDTH 960 0
DWIDTH 16 0
BBX 16 16 0 -2
BITMAP
0000
00C0
0D80
3BDE
3366
33E6
3366
3366
3BDE
0000
0360
0360
0663
1C63
703F
0000
ENDCHAR

STARTCHAR jisx0208_3376
ENCODING 13174
SWIDTH 960 0
DWIDTH 16 0
BBX 16 16 0 -2
BITMAP
0000
0180
7FFE
66D6
3CF8
0180
7FFE
1998
1FF8
1998
3FFC
318C
3FFC
0186
01FE
0000
ENDCHAR

STARTCHAR jisx0208_3377
ENCODING 13175
SWIDTH 960 0
DWIDTH 16 0
BBX 16 16 0 -2
BITMAP
0000
0660
7FFE
066C
3066
17FE
6060
37FE
0666
07FE
1666
17FE
3666
3666
666E
0000
ENDCHAR

STARTCHAR jisx0208_3378
ENCODING 13176
SWIDTH 960 0
DWIDTH 16 0
BBX 16 16 0 -2
BITMAP
0000
0660
1C38
766E
0AC0
03C0
0E70
781E
0FF0
0180
3FFC
0180
1998
0DB0
7FFE
0000
ENDCHAR

STARTCHAR jisx0208_3379
ENCODING 13177
SWIDTH 960 0
DWIDTH 16 0
BBX 16 16 0 -2
BITMAP
0000
18CC
2C58
65FF
0058
7DFE
1856
1BFF
7E56
19FE
5658
56DC
5956
1B5B
7858
0000
ENDCHAR

STARTCHAR jisx0208_337A
ENCODING 13178
SWIDTH 960 0
DWIDTH 16 0
BBX 16 16 0 -2
BITMAP
0000
0030
7DBE
6DB0
6BFF
6C00
6BB7
6AAB
6B33
6BFF
7B33
037B
02AB
0333
03FF
0000
ENDCHAR

STARTCHAR jisx0208_337B
ENCODING 13179
SWIDTH 960 0
DWIDTH 16 0
BBX 16 16 0 -2
BITMAP
0000
0030
7EFE
56C6
56FE
7EC6
56FE
56C0
56FF
7EC0
18FF
1803
1AAB
1AB3
160E
0000
ENDCHAR

STARTCHAR jisx0208_337C
ENCODING 13180
SWIDTH 960 0
DWIDTH 16 0
BBX 16 16 0 -2
BITMAP
0000
1800
1BFF
1830
7E60
19FE
1986
3D86
3586
59FE
5986
1986
1986
1986
19FE
0000
ENDCHAR

STARTCHAR jisx0208_337D
ENCODING 13181
SWIDTH 960 0
DWIDTH 16 0
BBX 16 16 0 -2
BITMAP
0000
0630
7FFF
0630
0000
1FF8
0370
01C0
7FFF
01C3
02C6
06CC
1CC0
70C0
03C0
0000
ENDCHAR

STARTCHAR jisx0208_337E
ENCODING 13182
SWIDTH 960 0
DWIDTH 16 0
BBX 16 16 0 -2
BITMAP
0000
0C30
7FFE
0C30
0180
7FFE
6006
5FF6
0C30
0FF0
0C30
0C30
0FF0
0000
7FFE
0000
ENDCHAR

STARTCHAR jisx0208_3421
ENCODING 13345
SWIDTH 960 0
DWIDTH 16 0
BBX 16 16 0 -2
BITMAP
0000
0180
799E
1566
1566
75DE
6198
67D8
799E
1BC6
1B66
1566
1586
1986
719C
0000
ENDCHAR

STARTCHAR jisx0208_3422
ENCODING 13346
SWIDTH 960 0
DWIDTH 16 0
BBX 16 16 0 -2
BITMAP
0000
0003
0303
0333
6333
3333
1633
0E33
0633
0B33
0B33
1983
3183
6003
000F
0000
ENDCHAR

STARTCHAR jisx0208_3423
ENCODING 13347
SWIDTH 960 0
DWIDTH 16 0
BBX 16 16 0 -2
BITMAP
0000
0630
7FFF
0630
0630
0306
0366
3366
1666
0E66
0666
0B66
1986
3186
601E
0000
ENDCHAR

STARTCHAR jisx0208_3424
ENCODING 13348
SWIDTH 960 0
DWIDTH 16 0
BBX 16 16 0 -2
BITMAP
0000
0000
7FFE
0600
0600
07F0
0630
0630
05B0
0CB0
0C30
0C30
0CF3
0FB3
7C1F
0000
ENDCHAR

STARTCHAR jisx0208_3425
ENCODING 13349
SWIDTH 960 0
DWIDTH 16 0
BBX 16 16 0 -2
BITMAP
0000
1860
1860
7EFF
18C0
7D80
66FE
7E0C
6618
7E30
1860
7E60
18C3
18C3
187F
0000
ENDCHAR

STARTCHAR jisx0208_3426
ENCODING 13350
SWIDTH 960 0
DWIDTH 16 0
BBX 16 16 0 -2
BITMAP
0000
1800
1BFE
1B06
3306
3306
73FE
3000
336C
336C
336C
336C
366B
366B
2C6F
0000
ENDCHAR

STARTCHAR jisx0208_3427
ENCODING 13351
SWIDTH 960 0
DWIDTH 16 0
BBX 16 16 0 -2
BITMAP
0000
0000
7FFF
6003
5F1B
0018
00FE
7F98
1618
16D8
1658
1618
367B
3603
63FF
0000
ENDCHAR

STARTCHAR jisx0208_3428
ENCODING 13352
SWIDTH 960 0
DWIDTH 16 0
BBX 16 16 0 -2
BITMAP
0000
0180
7FFE
6006
6666
1FF8
0660
1FF8
0660
7FFE
0660
1DB8
70CE
0380
00E0
0000
ENDCHAR

STARTCHAR jisx0208_3429
ENCODING 13353
SWIDTH 960 0
DWIDTH 16 0
BBX 16 16 0 -2
BITMAP
0000
0003
7FB3
0C33
0C33
0C33
0C33
7FB3
0C33
0C33
0C33
0C03
0C03
0C03
0C0F
0000
ENDCHAR

STARTCHAR jisx0208_342A
ENCODING 13354
SWIDTH 960 0
DWIDTH 16 0
BBX 16 16 0 -2
BITMAP
0000
1B18
1B18
7FD8
1B7F
1F1B
1B1B
1F1B
1B1B
7FDB
2B1B
2B33
3BB3
3063
3ECE
0000
ENDCHAR

STARTCHAR jisx0208_342B
ENCODING 13355
SWIDTH 960 0
DWIDTH 16 0
BBX 16 16 0 -2
BITMAP
0000
1818
3F98
6C18
0C7F
7F9B
1B1B
161B
3F9B
761B
3F9B
3633
3FB3
3663
3FCE
0000
ENDCHAR

STARTCHAR jisx0208_342C
ENCODING 13356
SWIDTH 960 0
DWIDTH 16 0
BBX 16 16 0 -2
BITMAP
0000
1998
0DB0
0300
3FFC
0660
7FFE
0C30
1818
2FEC
6036
0FF0
0C00
0C0C
07FC
0000
ENDCHAR

STARTCHAR jisx0208_342D
ENCODING 13357
SWIDTH 960 0
DWIDTH 16 0
BBX 16 16 0 -2
BITMAP
0000
00C0
01F8
7B30
6E60
6BFE
6AB6
6AB6
6BBE
7B66
07FF
0060
00B0
039C
0E07
0000
ENDCHAR

STARTCHAR jisx0208_342E
ENCODING 13358
SWIDTH 960 0
DWIDTH 16 0
BBX 16 16 0 -2
BITMAP
0000
18CC
18CC
1BFF
18CC
7EFC
18CC
18FC
18CC
17FF
1958
1D56
79DE
0180
01FF
0000
ENDCHAR

STARTCHAR jisx0208_342F
ENCODING 13359
SWIDTH 960 0
DWIDTH 16 0
BBX 16 16 0 -2
BITMAP
0000
0300
7FFF
0318
0618
0FB0
01F8
3F0E
0C30
7EFF
1B36
3366
3E7C
0B16
3973
0000
ENDCHAR

STARTCHAR jisx0208_3430
ENCODING 13360
SWIDTH 960 0
DWIDTH 16 0
BBX 16 16 0 -2
BITMAP
0000
0180
7FFE
6006
6006
1FF8
0000
0000
7FFE
0660
0660
0660
0C66
1866
703E
0000
ENDCHAR

STARTCHAR jisx0208_3431
ENCODING 13361
SWIDTH 960 0
DWIDTH 16 0
BBX 16 16 0 -2
BITMAP
0000
0180
7FFE
6006
6006
1FF0
1830
1830
1FF0
1800
1800
1FF8
1818
1818
1FF8
0000
ENDCHAR

STARTCHAR jisx0208_3432
ENCODING 13362
SWIDTH 960 0
DWIDTH 16 0
BBX 16 16 0 -2
BITMAP
0000
0180
7FFE
6666
5FF6
0660
1FF8
1818
1FF8
1818
1FF8
1818
1FF6
0C66
787E
0000
ENDCHAR

STARTCHAR jisx0208_3433
ENCODING 13363
SWIDTH 960 0
DWIDTH 16 0
BBX 16 16 0 -2
BITMAP
0000
0000
3FFC
0180
0180
0180
0180
7FFE
0180
0180
0180
0180
0180
0180
0180
0000
ENDCHAR

STARTCHAR jisx0208_3434
ENCODING 13364
SWIDTH 960 0
DWIDTH 16 0
BBX 16 16 0 -2
BITMAP
0000
1830
1858
7E58
18CC
7ECC
6586
7EFB
6630
7E30
19FE
7E30
1830
1830
1830
0000
ENDCHAR

STARTCHAR jisx0208_3435
ENCODING 13365
SWIDTH 960 0
DWIDTH 16 0
BBX 16 16 0 -2
BITMAP
0000
0180
1FF8
1998
1FF8
0180
3FFC
318C
3FFC
0180
0000
06CC
3666
3616
63F8
0000
ENDCHAR

STARTCHAR jisx0208_3436
ENCODING 13366
SWIDTH 960 0
DWIDTH 16 0
BBX 16 16 0 -2
BITMAP
0000
006C
3FFF
3060
2F66
3036
2FAC
2D9B
6DAB
6F67
0000
00C0
3666
361B
63F8
0000
ENDCHAR

STARTCHAR jisx0208_3437
ENCODING 13367
SWIDTH 960 0
DWIDTH 16 0
BBX 16 16 0 -2
BITMAP
0000
19FE
19B6
1BFF
55B6
55FE
5986
59FE
1986
19FE
1986
19FE
1800
18CE
1B83
0000
ENDCHAR

STARTCHAR jisx0208_3438
ENCODING 13368
SWIDTH 960 0
DWIDTH 16 0
BBX 16 16 0 -2
BITMAP
0000
1818
1816
1BFF
5718
5AD6
5B16
5AEC
1AAB
16F7
1800
18B6
1AC3
1ACB
167C
0000
ENDCHAR

STARTCHAR jisx0208_3439
ENCODING 13369
SWIDTH 960 0
DWIDTH 16 0
BBX 16 16 0 -2
BITMAP
0000
18C0
19F8
1B30
7C60
1BFE
1AB6
1AB6
1BBE
7B66
17FF
1860
18B0
199C
3707
0000
ENDCHAR

STARTCHAR jisx0208_343A
ENCODING 13370
SWIDTH 960 0
DWIDTH 16 0
BBX 16 16 0 -2
BITMAP
0000
3F30
0C30
0C30
7F7F
3366
3EE6
3366
3F2C
332C
3718
3B18
732C
0366
02C3
0000
ENDCHAR

STARTCHAR jisx0208_343B
ENCODING 13371
SWIDTH 960 0
DWIDTH 16 0
BBX 16 16 0 -2
BITMAP
0000
18CC
18CC
18CC
7DFE
18CC
18CC
3CCC
36CC
58FC
58CC
18CC
18CC
18CC
18FC
0000
ENDCHAR

STARTCHAR jisx0208_343C
ENCODING 13372
SWIDTH 960 0
DWIDTH 16 0
BBX 16 16 0 -2
BITMAP
0000
1800
1BFE
1800
7E00
19FC
198C
3D8C
35FC
598C
598C
19FC
1800
1800
17FF
0000
ENDCHAR

STARTCHAR jisx0208_343D
ENCODING 13373
SWIDTH 960 0
DWIDTH 16 0
BBX 16 16 0 -2
BITMAP
0000
1830
1830
1BFF
7B03
1800
19FC
3D8C
358C
59FC
5980
19FE
1986
1986
19FE
0000
ENDCHAR

STARTCHAR jisx0208_343E
ENCODING 13374
SWIDTH 960 0
DWIDTH 16 0
BBX 16 16 0 -2
BITMAP
0000
0C30
0C30
7FB0
0C7F
3F5B
00D6
3F18
0018
7F98
0C2C
2B2C
2D66
6D66
1CC3
0000
ENDCHAR

STARTCHAR jisx0208_343F
ENCODING 13375
SWIDTH 960 0
DWIDTH 16 0
BBX 16 16 0 -2
BITMAP
0000
1830
3FB0
6C30
0C7F
7F5B
1AD6
1618
3F98
7618
3FAC
362C
3F66
3666
3FC3
0000
ENDCHAR

STARTCHAR jisx0208_3440
ENCODING 13376
SWIDTH 960 0
DWIDTH 16 0
BBX 16 16 0 -2
BITMAP
0000
3000
17FE
0060
6060
3060
0060
0FFF
0060
1860
1860
3060
3060
6060
6060
0000
ENDCHAR

STARTCHAR jisx0208_3441
ENCODING 13377
SWIDTH 960 0
DWIDTH 16 0
BBX 16 16 0 -2
BITMAP
0000
3198
17FE
0198
6000
37FE
0666
07FE
0060
17FE
1860
2FFF
30B0
639C
6E07
0000
ENDCHAR

STARTCHAR jisx0208_3442
ENCODING 13378
SWIDTH 960 0
DWIDTH 16 0
BBX 16 16 0 -2
BITMAP
0000
37DF
16DB
07DF
66DB
37DF
0603
06FB
06DB
16FB
16DB
36DB
36FB
6603
6607
0000
ENDCHAR

STARTCHAR jisx0208_3443
ENCODING 13379
SWIDTH 960 0
DWIDTH 16 0
BBX 16 16 0 -2
BITMAP
0000
3180
19FE
0360
60C0
2FFF
0198
0330
07FF
1B30
1BFE
3330
33FE
6330
63FF
0000
ENDCHAR

STARTCHAR jisx0208_3444
ENCODING 13380
SWIDTH 960 0
DWIDTH 16 0
BBX 16 16 0 -2
BITMAP
0000
0000
7DFE
1956
19FE
1800
7DFF
1800
19FE
1986
19FE
1E73
78B6
03AC
0037
0000
ENDCHAR

STARTCHAR jisx0208_3445
ENCODING 13381
SWIDTH 960 0
DWIDTH 16 0
BBX 16 16 0 -2
BITMAP
0000
0C18
0C18
0C18
7FFF
0C18
0C18
0C18
0C18
0FF8
0C18
0C18
0C18
0C18
0FF8
0000
ENDCHAR

STARTCHAR jisx0208_3446
ENCODING 13382
SWIDTH 960 0
DWIDTH 16 0
BBX 16 16 0 -2
BITMAP
0000
7FB0
6C30
7F7F
62C0
7F00
6C00
6C7E
7F80
0000
1FFC
1B6C
1B6C
1B6C
7FFF
0000
ENDCHAR

STARTCHAR jisx0208_3447
ENCODING 13383
SWIDTH 960 0
DWIDTH 16 0
BBX 16 16 0 -2
BITMAP
0000
003C
3FE0
0180
3FFE
0300
7FFF
0600
0FFC
160C
37FC
660C
07FC
060C
07FC
0000
ENDCHAR

STARTCHAR jisx0208_3448
ENCODING 13384
SWIDTH 960 0
DWIDTH 16 0
BBX 16 16 0 -2
BITMAP
0000
1860
3EFE
6DB0
0618
0000
3FFC
0180
0180
0180
7FFE
0180
0180
0180
0180
0000
ENDCHAR

STARTCHAR jisx0208_3449
ENCODING 13385
SWIDTH 960 0
DWIDTH 16 0
BBX 16 16 0 -2
BITMAP
0000
1860
3EFE
6DB0
0618
0180
7FFE
6006
5FF6
1830
1FF0
1800
1FF8
1818
1FF8
0000
ENDCHAR

STARTCHAR jisx0208_344A
ENCODING 13386
SWIDTH 960 0
DWIDTH 16 0
BBX 16 16 0 -2
BITMAP
0000
1830
3F7F
6CD8
060C
3F7E
3366
3F7E
3366
3FFE
3636
37F6
3636
37F6
300E
0000
ENDCHAR

STARTCHAR jisx0208_344B
ENCODING 13387
SWIDTH 960 0
DWIDTH 16 0
BBX 16 16 0 -2
BITMAP
0000
183E
33E0
65B6
2CCC
19FE
3630
7DFF
1660
187E
56E6
55AC
5618
586C
19C7
0000
ENDCHAR

STARTCHAR jisx0208_344C
ENCODING 13388
SWIDTH 960 0
DWIDTH 16 0
BBX 16 16 0 -2
BITMAP
0000
0C00
0C00
1FFC
3180
6180
0180
7FFE
0180
0180
318C
318C
318C
318C
3FFC
0000
ENDCHAR

STARTCHAR jisx0208_344D
ENCODING 13389
SWIDTH 960 0
DWIDTH 16 0
BBX 16 16 0 -2
BITMAP
0000
1830
1858
7ECC
1986
7F03
65DE
7E66
6556
7EEE
1866
7EEE
1956
1866
18EE
0000
ENDCHAR

STARTCHAR jisx0208_344E
ENCODING 13390
SWIDTH 960 0
DWIDTH 16 0
BBX 16 16 0 -2
BITMAP
0000
0000
3DFE
3630
3630
3E30
3630
35FF
3E30
3630
3630
3630
3630
6630
6E30
0000
ENDCHAR

STARTCHAR jisx0208_344F
ENCODING 13391
SWIDTH 960 0
DWIDTH 16 0
BBX 16 16 0 -2
BITMAP
0000
1BEC
1ACC
3BD8
2B5F
3BF0
2EC0
3ADF
6BE0
2C00
3DFE
2D56
2D56
6D56
5BFF
0000
ENDCHAR

STARTCHAR jisx0208_3450
ENCODING 13392
SWIDTH 960 0
DWIDTH 16 0
BBX 16 16 0 -2
BITMAP
0000
0660
7FFE
0660
0180
7FFE
6006
6FF6
0000
7FFE
0660
0660
0666
0C66
783E
0000
ENDCHAR

STARTCHAR jisx0208_3451
ENCODING 13393
SWIDTH 960 0
DWIDTH 16 0
BBX 16 16 0 -2
BITMAP
0000
187E
3F66
6C66
0C7E
7F66
1B7E
1666
3F66
767E
3FAC
362C
3FAB
366B
3FCF
0000
ENDCHAR

STARTCHAR jisx0208_3452
ENCODING 13394
SWIDTH 960 0
DWIDTH 16 0
BBX 16 16 0 -2
BITMAP
0000
7830
03FF
7E30
01FE
7DB6
01FE
7DB6
01FE
0030
7C78
6CAC
6DB6
6B33
7C30
0000
ENDCHAR

STARTCHAR jisx0208_3453
ENCODING 13395
SWIDTH 960 0
DWIDTH 16 0
BBX 16 16 0 -2
BITMAP
0000
1FFC
198C
7FFF
198C
198C
1FFC
180C
1FFC
180C
1FFC
180C
1FFC
0C18
780F
0000
ENDCHAR

STARTCHAR jisx0208_3454
ENCODING 13396
SWIDTH 960 0
DWIDTH 16 0
BBX 16 16 0 -2
BITMAP
0000
37FE
16B6
07FE
0000
0FFF
7B0C
1BFC
18E6
196C
1778
186C
1866
2C00
67FF
0000
ENDCHAR

STARTCHAR jisx0208_3455
ENCODING 13397
SWIDTH 960 0
DWIDTH 16 0
BBX 16 16 0 -2
BITMAP
0000
1BEC
2ACC
67D8
035F
7FF0
1AC0
1ADF
7FE0
1800
55FE
5556
5956
1D56
7BFF
0000
ENDCHAR

STARTCHAR jisx0208_3456
ENCODING 13398
SWIDTH 960 0
DWIDTH 16 0
BBX 16 16 0 -2
BITMAP
0000
7E7E
6666
7E7E
6666
7E7E
6006
67E6
6666
6666
67E6
6666
6666
67E6
601E
0000
ENDCHAR

STARTCHAR jisx0208_3457
ENCODING 13399
SWIDTH 960 0
DWIDTH 16 0
BBX 16 16 0 -2
BITMAP
0000
7E7E
6666
7E7E
6666
7E7E
6186
6186
6FF6
6186
63C6
6566
6DB6
6186
601E
0000
ENDCHAR

STARTCHAR jisx0208_3458
ENCODING 13400
SWIDTH 960 0
DWIDTH 16 0
BBX 16 16 0 -2
BITMAP
0000
7E7E
6666
7E7E
6666
7E7E
6666
62C6
6FF6
6186
6FF6
6186
62C6
6E76
600E
0000
ENDCHAR

STARTCHAR jisx0208_3459
ENCODING 13401
SWIDTH 960 0
DWIDTH 16 0
BBX 16 16 0 -2
BITMAP
0000
7E60
667E
66C6
6D8C
6B18
59BF
6DB3
65B3
65B3
65BF
5DB3
61B3
61B3
61BF
0000
ENDCHAR

STARTCHAR jisx0208_345A
ENCODING 13402
SWIDTH 960 0
DWIDTH 16 0
BBX 16 16 0 -2
BITMAP
0000
1830
19FC
7E6C
1BFF
7E00
66FE
7EC6
66FE
7E18
18FE
7ED8
1BFF
1818
1818
0000
ENDCHAR

STARTCHAR jisx0208_345B
ENCODING 13403
SWIDTH 960 0
DWIDTH 16 0
BBX 16 16 0 -2
BITMAP
0000
0C18
1618
32FF
6CC3
3F00
337E
3F66
3366
3F7E
3060
367F
3663
3F63
737F
0000
ENDCHAR

STARTCHAR jisx0208_345C
ENCODING 13404
SWIDTH 960 0
DWIDTH 16 0
BBX 16 16 0 -2
BITMAP
0000
0C18
1618
32FF
60C3
3F00
0C7E
0C66
7F66
0C7E
0C60
3F7F
3363
3363
3F7F
0000
ENDCHAR

STARTCHAR jisx0208_345D
ENCODING 13405
SWIDTH 960 0
DWIDTH 16 0
BBX 16 16 0 -2
BITMAP
0000
0300
0300
0300
7FF0
0330
0330
1B30
0E30
0630
0B30
0DB0
1833
3033
601F
0000
ENDCHAR

STARTCHAR jisx0208_345E
ENCODING 13406
SWIDTH 960 0
DWIDTH 16 0
BBX 16 16 0 -2
BITMAP
0000
01C0
0360
0630
1C1C
77F7
0000
1FF8
0030
0060
1FFC
180C
180C
180C
1FFC
0000
ENDCHAR

STARTCHAR jisx0208_345F
ENCODING 13407
SWIDTH 960 0
DWIDTH 16 0
BBX 16 16 0 -2
BITMAP
0000
00C0
18C6
18C6
1FFE
0000
3FFF
3000
37FE
3060
3060
2FFF
3060
6060
6060
0000
ENDCHAR

STARTCHAR jisx0208_3460
ENCODING 13408
SWIDTH 960 0
DWIDTH 16 0
BBX 16 16 0 -2
BITMAP
0000
18C6
18C6
1FFE
0D98
3FFF
3018
2FB0
337F
3FB6
2DB6
2F9C
2D9C
5FB6
6163
0000
ENDCHAR

STARTCHAR jisx0208_3461
ENCODING 13409
SWIDTH 960 0
DWIDTH 16 0
BBX 16 16 0 -2
BITMAP
0000
0000
7DFE
1800
1800
1800
7BFF
18D8
18D8
18D8
1ED8
7998
019B
031B
0E1F
0000
ENDCHAR

STARTCHAR jisx0208_3462
ENCODING 13410
SWIDTH 960 0
DWIDTH 16 0
BBX 16 16 0 -2
BITMAP
0000
0060
1FFF
1800
1BFC
5B0C
3BFC
1800
17BE
36B6
57BE
1860
3666
3666
67FE
0000
ENDCHAR

STARTCHAR jisx0208_3463
ENCODING 13411
SWIDTH 960 0
DWIDTH 16 0
BBX 16 16 0 -2
BITMAP
0000
7DFE
6D86
6D86
6DFE
7D86
6D86
6DFE
6DB0
7DB3
6D96
6D9C
6D8C
7D76
03C3
0000
ENDCHAR

STARTCHAR jisx0208_3464
ENCODING 13412
SWIDTH 960 0
DWIDTH 16 0
BBX 16 16 0 -2
BITMAP
0000
0180
318C
318C
3FFC
0000
0000
7FFE
0C00
0C00
1FFC
1C0C
2C0C
6C0C
0FFC
0000
ENDCHAR

STARTCHAR jisx0208_3465
ENCODING 13413
SWIDTH 960 0
DWIDTH 16 0
BBX 16 16 0 -2
BITMAP
0000
7780
197E
5580
1980
3B80
55FF
3BAC
0C2C
3FAC
31AC
3FAC
316B
316B
3FCF
0000
ENDCHAR

STARTCHAR jisx0208_3466
ENCODING 13414
SWIDTH 960 0
DWIDTH 16 0
BBX 16 16 0 -2
BITMAP
0000
3FFF
36CC
3598
2BFF
3D98
2DFE
2D98
37FF
360C
37FC
360C
37FC
6318
5E0F
0000
ENDCHAR

STARTCHAR jisx0208_3467
ENCODING 13415
SWIDTH 960 0
DWIDTH 16 0
BBX 16 16 0 -2
BITMAP
0000
0000
3FFF
3366
32CC
36FF
35CC
2ECC
36FF
36CC
36CC
36FF
36CC
66CC
66FF
0000
ENDCHAR

STARTCHAR jisx0208_3468
ENCODING 13416
SWIDTH 960 0
DWIDTH 16 0
BBX 16 16 0 -2
BITMAP
0000
0000
7DFF
0030
00FE
7EC6
2CC6
2CFE
2CC6
2CFE
2AC6
2AC6
6EFE
606C
01C7
0000
ENDCHAR

STARTCHAR jisx0208_3469
ENCODING 13417
SWIDTH 960 0
DWIDTH 16 0
BBX 16 16 0 -2
BITMAP
0000
0C00
0CFF
7F98
1B7E
1666
3F66
337E
2E66
337E
2E66
3166
677E
5C2C
00E7
0000
ENDCHAR

STARTCHAR jisx0208_346A
ENCODING 13418
SWIDTH 960 0
DWIDTH 16 0
BBX 16 16 0 -2
BITMAP
0000
0000
3F7F
3618
2F7E
2D66
2F66
2D7E
2D66
2F7E
3666
2D66
557E
662C
0EE7
0000
ENDCHAR

STARTCHAR jisx0208_346B
ENCODING 13419
SWIDTH 960 0
DWIDTH 16 0
BBX 16 16 0 -2
BITMAP
0000
0180
02C0
0660
0C30
1998
718E
0180
1980
19F8
1980
1980
1980
1980
7FFE
0000
ENDCHAR

STARTCHAR jisx0208_346C
ENCODING 13420
SWIDTH 960 0
DWIDTH 16 0
BBX 16 16 0 -2
BITMAP
0000
0C60
0C60
0BFF
1860
1860
3860
5BFE
1986
198C
18CC
18D8
1870
19DC
1707
0000
ENDCHAR

STARTCHAR jisx0208_346D
ENCODING 13421
SWIDTH 960 0
DWIDTH 16 0
BBX 16 16 0 -2
BITMAP
0000
0C00
0FE0
1860
30C0
5FFF
1800
1BF8
1B18
1B18
1B18
1B78
3303
3303
61FF
0000
ENDCHAR

STARTCHAR jisx0208_346E
ENCODING 13422
SWIDTH 960 0
DWIDTH 16 0
BBX 16 16 0 -2
BITMAP
0000
0180
7FFE
0180
3FFC
0000
1FF8
1818
1FF8
0660
7FFE
0000
1FF8
1818
1FF8
0000
ENDCHAR

STARTCHAR jisx0208_346F
ENCODING 13423
SWIDTH 960 0
DWIDTH 16 0
BBX 16 16 0 -2
BITMAP
0000
3F7E
3366
3366
3F7E
0180
7FFF
0360
0630
1C1C
7007
3F7E
3366
3366
3F7E
0000
ENDCHAR

STARTCHAR jisx0208_3470
ENCODING 13424
SWIDTH 960 0
DWIDTH 16 0
BBX 16 16 0 -2
BITMAP
0000
0C30
3FFC
0C30
0FF0
0C30
0FF0
0C30
7FFE
0C30
1998
6FEE
0180
0180
3FFC
0000
ENDCHAR

STARTCHAR jisx0208_3471
ENCODING 13425
SWIDTH 960 0
DWIDTH 16 0
BBX 16 16 0 -2
BITMAP
0000
0180
3FFE
01C0
0770
3C1E
0000
7FFF
000C
1FCC
18CC
18CC
1FCC
000C
003C
0000
ENDCHAR

STARTCHAR jisx0208_3472
ENCODING 13426
SWIDTH 960 0
DWIDTH 16 0
BBX 16 16 0 -2
BITMAP
0000
1830
1BFF
1830
7DFE
3600
35FE
3586
65FE
66CC
6BFF
1800
1DFE
3586
61FE
0000
ENDCHAR

STARTCHAR jisx0208_3473
ENCODING 13427
SWIDTH 960 0
DWIDTH 16 0
BBX 16 16 0 -2
BITMAP
0000
0180
7FFE
6186
5FF6
0180
06E0
3C3C
0000
7FFE
0018
1FD8
18D8
1FD8
0038
0000
ENDCHAR

STARTCHAR jisx0208_3474
ENCODING 13428
SWIDTH 960 0
DWIDTH 16 0
BBX 16 16 0 -2
BITMAP
0000
1830
1830
1BFF
5630
5630
5630
55FE
56C6
56CC
566C
7E58
0030
00DC
0387
0000
ENDCHAR

STARTCHAR jisx0208_3475
ENCODING 13429
SWIDTH 960 0
DWIDTH 16 0
BBX 16 16 0 -2
BITMAP
0000
0F38
01E0
0738
3D8C
0300
7FFF
06C0
0CC0
1FFE
6CC6
0CC6
0CC6
0CDE
00C0
0000
ENDCHAR

STARTCHAR jisx0208_3476
ENCODING 13430
SWIDTH 960 0
DWIDTH 16 0
BBX 16 16 0 -2
BITMAP
0000
0D8C
5958
35B6
1D9C
35B6
7B7B
0198
7FFF
18C0
18CC
2C58
3673
61DB
070F
0000
ENDCHAR

STARTCHAR jisx0208_3477
ENCODING 13431
SWIDTH 960 0
DWIDTH 16 0
BBX 16 16 0 -2
BITMAP
0000
0000
1FF8
0018
0018
1FF8
1806
1806
0FFE
0000
06C0
3666
361B
361B
63F8
0000
ENDCHAR

STARTCHAR jisx0208_3478
ENCODING 13432
SWIDTH 960 0
DWIDTH 16 0
BBX 16 16 0 -2
BITMAP
0000
1800
1BFF
1B33
7AFB
1830
19FE
19B6
1DFE
79B6
19FE
1830
1BFF
1830
3830
0000
ENDCHAR

STARTCHAR jisx0208_3479
ENCODING 13433
SWIDTH 960 0
DWIDTH 16 0
BBX 16 16 0 -2
BITMAP
0000
1800
19F8
1998
7D98
1998
1998
3D98
3598
5998
5998
1998
1B1B
1B1B
161F
0000
ENDCHAR

STARTCHAR jisx0208_347A
ENCODING 13434
SWIDTH 960 0
DWIDTH 16 0
BBX 16 16 0 -2
BITMAP
0000
18C0
18FF
7D80
1B6C
19FF
1E6C
167C
166C
167C
366C
35FF
3600
666E
5DC3
0000
ENDCHAR

STARTCHAR jisx0208_347B
ENCODING 13435
SWIDTH 960 0
DWIDTH 16 0
BBX 16 16 0 -2
BITMAP
0000
0000
3EFF
336C
3F6C
336C
3358
3EFF
3018
3630
3338
3558
3D5B
70DB
039F
0000
ENDCHAR

STARTCHAR jisx0208_347C
ENCODING 13436
SWIDTH 960 0
DWIDTH 16 0
BBX 16 16 0 -2
BITMAP
0000
1B00
1B3F
7FB3
1B33
1F3F
1B33
1F33
1B3F
1B33
7FB3
0033
1B63
3163
60CF
0000
ENDCHAR

STARTCHAR jisx0208_347D
ENCODING 13437
SWIDTH 960 0
DWIDTH 16 0
BBX 16 16 0 -2
BITMAP
0000
18CC
18CC
1BFF
7ECC
18CC
18FC
3CCC
36FC
58CC
58CC
1BFF
1800
18EE
1B83
0000
ENDCHAR

STARTCHAR jisx0208_347E
ENCODING 13438
SWIDTH 960 0
DWIDTH 16 0
BBX 16 16 0 -2
BITMAP
0000
0180
7FFE
0660
3FFC
1998
7FFE
1998
1FF8
0180
7FFE
03C0
0D70
799E
0180
0000
ENDCHAR

STARTCHAR jisx0208_3521
ENCODING 13601
SWIDTH 960 0
DWIDTH 16 0
BBX 16 16 0 -2
BITMAP
0000
19AC
19AC
1AB6
7DAC
1AB6
177B
3C36
37FF
59B0
59B6
1B9C
1AD8
162B
18E7
0000
ENDCHAR

STARTCHAR jisx0208_3522
ENCODING 13602
SWIDTH 960 0
DWIDTH 16 0
BBX 16 16 0 -2
BITMAP
0000
1BFE
1806
5BFE
5806
5BFE
5800
57FF
5663
1663
1BFE
1B66
3366
335E
6060
0000
ENDCHAR

STARTCHAR jisx0208_3523
ENCODING 13603
SWIDTH 960 0
DWIDTH 16 0
BBX 16 16 0 -2
BITMAP
0000
0C7C
7F6C
336C
1B6C
16CB
7FCF
1800
6AFE
1666
6F66
15AC
7618
066C
1DC7
0000
ENDCHAR

STARTCHAR jisx0208_3524
ENCODING 13604
SWIDTH 960 0
DWIDTH 16 0
BBX 16 16 0 -2
BITMAP
0000
1800
1FFE
3000
5FF8
0000
3FF8
0018
00D8
1D98
0718
058C
1CCB
7067
0003
0000
ENDCHAR

STARTCHAR jisx0208_3525
ENCODING 13605
SWIDTH 960 0
DWIDTH 16 0
BBX 16 16 0 -2
BITMAP
0000
3300
1B00
07FE
6600
2BF8
0000
0FF8
0018
1818
1818
3018
300B
600B
6007
0000
ENDCHAR

STARTCHAR jisx0208_3526
ENCODING 13606
SWIDTH 960 0
DWIDTH 16 0
BBX 16 16 0 -2
BITMAP
0000
0CCC
58D8
36B6
1CDC
36B6
7AFB
00C6
7FFF
0060
3F6C
2B2C
3F1B
2B2B
3EE7
0000
ENDCHAR

STARTCHAR jisx0208_3527
ENCODING 13607
SWIDTH 960 0
DWIDTH 16 0
BBX 16 16 0 -2
BITMAP
0000
180E
19F8
7D80
0580
0D80
19FF
3D98
5598
1998
1998
1998
1B18
1B18
1618
0000
ENDCHAR

STARTCHAR jisx0208_3528
ENCODING 13608
SWIDTH 960 0
DWIDTH 16 0
BBX 16 16 0 -2
BITMAP
0000
00FC
3F80
0180
7FFE
0560
1DB8
718E
0FF0
0060
01C0
7FFE
0180
0180
0780
0000
ENDCHAR

STARTCHAR jisx0208_3529
ENCODING 13609
SWIDTH 960 0
DWIDTH 16 0
BBX 16 16 0 -2
BITMAP
0000
06EC
7C38
186C
19C6
7E60
1BFF
3CB0
36B0
59FE
5BB6
15B6
19B6
19AE
1830
0000
ENDCHAR

STARTCHAR jisx0208_352A
ENCODING 13610
SWIDTH 960 0
DWIDTH 16 0
BBX 16 16 0 -2
BITMAP
0000
1800
31FE
6606
2C06
1806
3606
7EFE
16C0
18C0
56C0
56C0
56C3
58C3
187F
0000
ENDCHAR

STARTCHAR jisx0208_352B
ENCODING 13611
SWIDTH 960 0
DWIDTH 16 0
BBX 16 16 0 -2
BITMAP
0000
198C
156C
356C
67D8
1B1F
16BB
359B
7356
37D6
318C
356C
3556
3596
31B3
0000
ENDCHAR

STARTCHAR jisx0208_352C
ENCODING 13612
SWIDTH 960 0
DWIDTH 16 0
BBX 16 16 0 -2
BITMAP
0000
19FE
1986
1986
7DFE
1986
19FE
7D86
1986
19FE
1CD8
36D8
36DB
619B
071F
0000
ENDCHAR

STARTCHAR jisx0208_352D
ENCODING 13613
SWIDTH 960 0
DWIDTH 16 0
BBX 16 16 0 -2
BITMAP
0000
0000
3EFE
0006
7F06
0006
3E06
00FE
3EC0
00C0
3EC0
36C0
36C3
36C3
3E7F
0000
ENDCHAR

STARTCHAR jisx0208_352E
ENCODING 13614
SWIDTH 960 0
DWIDTH 16 0
BBX 16 16 0 -2
BITMAP
0000
0180
1FF8
1998
1FF8
0180
7FFE
1818
1FF8
1818
1FF8
1818
1FF8
0C30
781E
0000
ENDCHAR

STARTCHAR jisx0208_352F
ENCODING 13615
SWIDTH 960 0
DWIDTH 16 0
BBX 16 16 0 -2
BITMAP
0000
0C00
0C7E
3F06
0C06
0C06
7F7E
0C60
0C60
2F63
2C63
2C3F
2C00
3C00
6FFF
0000
ENDCHAR

STARTCHAR jisx0208_3530
ENCODING 13616
SWIDTH 960 0
DWIDTH 16 0
BBX 16 16 0 -2
BITMAP
0000
1860
1860
7E60
1860
7DFC
566C
7E6C
566C
7E6C
186C
7ECC
18CB
198B
170F
0000
ENDCHAR

STARTCHAR jisx0208_3531
ENCODING 13617
SWIDTH 960 0
DWIDTH 16 0
BBX 16 16 0 -2
BITMAP
0000
1800
55FF
55B3
5DFB
1830
7DFE
2DB6
2DFE
2DB6
2DFE
2B30
2DFF
6C30
6030
0000
ENDCHAR

STARTCHAR jisx0208_3532
ENCODING 13618
SWIDTH 960 0
DWIDTH 16 0
BBX 16 16 0 -2
BITMAP
0000
0C00
167C
336C
6C6C
3F6C
336C
3F6C
336C
3F6C
306C
366C
36CB
3ECB
738F
0000
ENDCHAR

STARTCHAR jisx0208_3533
ENCODING 13619
SWIDTH 960 0
DWIDTH 16 0
BBX 16 16 0 -2
BITMAP
0000
0030
7F30
6DFF
7F38
6C6C
7EC6
6DFF
6C06
7EF6
02D6
5AD6
5AF6
6306
0E1E
0000
ENDCHAR

STARTCHAR jisx0208_3534
ENCODING 13620
SWIDTH 960 0
DWIDTH 16 0
BBX 16 16 0 -2
BITMAP
0000
0300
1FFC
198C
198C
1FFC
198C
198C
1FFC
06D8
06D8
06B6
0CFE
18C3
707F
0000
ENDCHAR

STARTCHAR jisx0208_3535
ENCODING 13621
SWIDTH 960 0
DWIDTH 16 0
BBX 16 16 0 -2
BITMAP
0000
1800
1FE0
30C0
5FF8
1998
1FF8
1998
3FFC
318C
3FFC
318C
3FFC
0186
01FE
0000
ENDCHAR

STARTCHAR jisx0208_3536
ENCODING 13622
SWIDTH 960 0
DWIDTH 16 0
BBX 16 16 0 -2
BITMAP
0000
0B60
0D60
0BFC
18CC
18CC
39FE
5986
1B06
17FF
1C03
1AAB
1AAB
1603
181E
0000
ENDCHAR

STARTCHAR jisx0208_3537
ENCODING 13623
SWIDTH 960 0
DWIDTH 16 0
BBX 16 16 0 -2
BITMAP
0000
0D98
0CB0
0BFE
1860
19FC
3860
57FF
19AC
17FF
19B0
19AC
179B
19AB
1B67
0000
ENDCHAR

STARTCHAR jisx0208_3538
ENCODING 13624
SWIDTH 960 0
DWIDTH 16 0
BBX 16 16 0 -2
BITMAP
0000
1830
1830
1BFF
7E30
3630
35FE
36C6
66CC
666C
6C58
1830
1C58
36CC
6387
0000
ENDCHAR

STARTCHAR jisx0208_3539
ENCODING 13625
SWIDTH 960 0
DWIDTH 16 0
BBX 16 16 0 -2
BITMAP
0000
0180
7FFE
6006
6006
0FF0
0C30
0C30
0FF0
0C30
0C30
0FF0
0C30
0C30
7FFE
0000
ENDCHAR

STARTCHAR jisx0208_353A
ENCODING 13626
SWIDTH 960 0
DWIDTH 16 0
BBX 16 16 0 -2
BITMAP
0000
0C30
0FAC
0C36
3FB0
2DBF
3EF0
2C36
2FB6
302C
2AAC
2B98
5B3B
6B6B
3EC7
0000
ENDCHAR

STARTCHAR jisx0208_353B
ENCODING 13627
SWIDTH 960 0
DWIDTH 16 0
BBX 16 16 0 -2
BITMAP
0000
1830
1830
1BFF
7E30
1830
19FE
18C6
1ECC
786C
1858
1830
1858
19CC
3707
0000
ENDCHAR

STARTCHAR jisx0208_353C
ENCODING 13628
SWIDTH 960 0
DWIDTH 16 0
BBX 16 16 0 -2
BITMAP
0000
367E
3586
372C
76D8
37CC
307F
361B
6FD6
3B58
2FDE
3358
3558
36B8
6CDF
0000
ENDCHAR

STARTCHAR jisx0208_353D
ENCODING 13629
SWIDTH 960 0
DWIDTH 16 0
BBX 16 16 0 -2
BITMAP
0000
1B30
1B30
7FB0
1B7F
1F5B
1AD6
1F18
1B18
1B18
7FAC
002C
1B66
3166
60C3
0000
ENDCHAR

STARTCHAR jisx0208_353E
ENCODING 13630
SWIDTH 960 0
DWIDTH 16 0
BBX 16 16 0 -2
BITMAP
0000
18CC
1858
59FE
7E30
58FC
5830
1BFF
1ED6
7BFF
18D8
18D6
1BCC
18DB
19B7
0000
ENDCHAR

STARTCHAR jisx0208_353F
ENCODING 13631
SWIDTH 960 0
DWIDTH 16 0
BBX 16 16 0 -2
BITMAP
0000
36FE
3C06
306C
3338
1F18
30FF
3F1B
6C16
0CD8
7EDE
0CD8
16D8
3158
633F
0000
ENDCHAR

STARTCHAR jisx0208_3540
ENCODING 13632
SWIDTH 960 0
DWIDTH 16 0
BBX 16 16 0 -2
BITMAP
0000
180E
19F8
7D98
0598
0D98
19FF
3D98
5598
1998
1998
198B
19AB
19E7
1783
0000
ENDCHAR

STARTCHAR jisx0208_3541
ENCODING 13633
SWIDTH 960 0
DWIDTH 16 0
BBX 16 16 0 -2
BITMAP
0000
0C30
0660
3FFC
0180
1FF8
0180
7FFE
0CD8
7FFE
0CC0
0E58
7C36
0CD6
3B8E
0000
ENDCHAR

STARTCHAR jisx0208_3542
ENCODING 13634
SWIDTH 960 0
DWIDTH 16 0
BBX 16 16 0 -2
BITMAP
0000
18CC
1858
19FE
7E30
56FE
5630
57FF
56D6
7DFF
18D8
15D6
16CC
1EDB
7BB7
0000
ENDCHAR

STARTCHAR jisx0208_3543
ENCODING 13635
SWIDTH 960 0
DWIDTH 16 0
BBX 16 16 0 -2
BITMAP
0000
3C30
0030
7BFF
0303
7AFB
00CC
7CCC
00FC
00CC
7CCC
6CFC
6CCC
6CCC
7BFF
0000
ENDCHAR

STARTCHAR jisx0208_3544
ENCODING 13636
SWIDTH 960 0
DWIDTH 16 0
BBX 16 16 0 -2
BITMAP
0000
3CCC
0058
7DFE
0030
7CFC
0030
7BFF
00D6
03FF
7CD8
6CD6
6BCC
6CDB
7DB7
0000
ENDCHAR

STARTCHAR jisx0208_3545
ENCODING 13637
SWIDTH 960 0
DWIDTH 16 0
BBX 16 16 0 -2
BITMAP
0000
18C0
18C0
19FF
7D83
1B63
196B
195B
1E63
7BFB
18E3
197B
1B6B
1863
386E
0000
ENDCHAR

STARTCHAR jisx0208_3546
ENCODING 13638
SWIDTH 960 0
DWIDTH 16 0
BBX 16 16 0 -2
BITMAP
0000
0630
7FFF
0630
1800
1FFE
3006
6DB6
0566
3FF6
0386
05E6
0DB6
3986
019C
0000
ENDCHAR

STARTCHAR jisx0208_3547
ENCODING 13639
SWIDTH 960 0
DWIDTH 16 0
BBX 16 16 0 -2
BITMAP
0000
2CC0
7EC0
2DFF
3D83
1B63
7D6B
555B
5663
7DFB
18E3
7D7B
1B6B
1863
186E
0000
ENDCHAR

STARTCHAR jisx0208_3548
ENCODING 13640
SWIDTH 960 0
DWIDTH 16 0
BBX 16 16 0 -2
BITMAP
0000
0180
0180
7FFE
0180
0180
0180
3FFC
0000
0000
1FF8
1818
1818
1818
1FF8
0000
ENDCHAR

STARTCHAR jisx0208_3549
ENCODING 13641
SWIDTH 960 0
DWIDTH 16 0
BBX 16 16 0 -2
BITMAP
0000
00C0
7CC0
6DFF
6D80
6B00
6DFC
6C18
6C30
6C60
7CC0
0180
0303
0303
01FF
0000
ENDCHAR

STARTCHAR jisx0208_354A
ENCODING 13642
SWIDTH 960 0
DWIDTH 16 0
BBX 16 16 0 -2
BITMAP
0000
0180
79BF
57DB
599B
57DB
599B
59B3
57AE
5860
77FF
0060
00B0
039C
0E07
0000
ENDCHAR

STARTCHAR jisx0208_354B
ENCODING 13643
SWIDTH 960 0
DWIDTH 16 0
BBX 16 16 0 -2
BITMAP
0000
1830
1830
1BFF
7E30
1830
1830
3DFE
3600
5800
59FE
1986
1986
1986
19FE
0000
ENDCHAR

STARTCHAR jisx0208_354C
ENCODING 13644
SWIDTH 960 0
DWIDTH 16 0
BBX 16 16 0 -2
BITMAP
0000
19FE
186C
1838
7BFF
18B6
1BAC
3C70
3BFF
5ADB
5ADF
1BFB
1ACB
1AFB
1B07
0000
ENDCHAR

STARTCHAR jisx0208_354D
ENCODING 13645
SWIDTH 960 0
DWIDTH 16 0
BBX 16 16 0 -2
BITMAP
0000
0030
3E30
01FF
7F30
0030
3E30
00FE
3E00
0000
3EFE
36C6
36C6
36C6
3EFE
0000
ENDCHAR

STARTCHAR jisx0208_354E
ENCODING 13646
SWIDTH 960 0
DWIDTH 16 0
BBX 16 16 0 -2
BITMAP
0000
0030
7E30
1830
183F
1830
3030
3E30
76FE
36C6
36C6
36C6
36C6
3EC6
00FE
0000
ENDCHAR

STARTCHAR jisx0208_354F
ENCODING 13647
SWIDTH 960 0
DWIDTH 16 0
BBX 16 16 0 -2
BITMAP
0000
18C0
18C0
19FE
7DB0
1B30
1830
3830
3BFF
5630
5830
1830
1830
1830
1830
0000
ENDCHAR

STARTCHAR jisx0208_3550
ENCODING 13648
SWIDTH 960 0
DWIDTH 16 0
BBX 16 16 0 -2
BITMAP
0000
00FC
3F80
0180
7FFE
0560
1DB8
718E
02C0
0D70
799E
0DB0
0560
0DB8
3B8C
0000
ENDCHAR

STARTCHAR jisx0208_3551
ENCODING 13649
SWIDTH 960 0
DWIDTH 16 0
BBX 16 16 0 -2
BITMAP
0000
0C00
0C7E
3F66
0C66
0C66
0C66
7F66
0C66
0C66
1B66
1B66
375E
7D60
0060
0000
ENDCHAR

STARTCHAR jisx0208_3552
ENCODING 13650
SWIDTH 960 0
DWIDTH 16 0
BBX 16 16 0 -2
BITMAP
0000
0180
7FFE
6306
6306
07F0
0E30
3B60
01C0
0760
1C38
6FEE
0C30
0C30
0FF0
0000
ENDCHAR

STARTCHAR jisx0208_3553
ENCODING 13651
SWIDTH 960 0
DWIDTH 16 0
BBX 16 16 0 -2
BITMAP
0000
3D9F
2D9B
2BDB
2D9B
3D9B
2D9B
2FDB
2D9B
3D9B
2ADB
2ADB
2F57
6C18
5C18
0000
ENDCHAR

STARTCHAR jisx0208_3554
ENCODING 13652
SWIDTH 960 0
DWIDTH 16 0
BBX 16 16 0 -2
BITMAP
0000
0180
01FC
0180
3FFF
3183
31FB
2F80
31FC
3000
37FE
3600
37FE
6600
67FE
0000
ENDCHAR

STARTCHAR jisx0208_3555
ENCODING 13653
SWIDTH 960 0
DWIDTH 16 0
BBX 16 16 0 -2
BITMAP
0000
318C
18D8
07FF
0060
0366
7B66
1B66
1BFE
1860
1860
18C0
1B80
2C00
67FF
0000
ENDCHAR

STARTCHAR jisx0208_3556
ENCODING 13654
SWIDTH 960 0
DWIDTH 16 0
BBX 16 16 0 -2
BITMAP
0000
001C
00F0
0F80
0C00
0C00
0FFE
0C30
0C30
0C30
0C30
0C30
0C30
0C30
7FFF
0000
ENDCHAR

STARTCHAR jisx0208_3557
ENCODING 13655
SWIDTH 960 0
DWIDTH 16 0
BBX 16 16 0 -2
BITMAP
0000
0600
0600
0FF0
0C30
1860
3060
60C0
00C0
0160
0360
0630
0C18
180C
7007
0000
ENDCHAR

STARTCHAR jisx0208_3558
ENCODING 13656
SWIDTH 960 0
DWIDTH 16 0
BBX 16 16 0 -2
BITMAP
0000
0CC0
0CC0
0CC0
17F8
18D8
38D8
58D8
18D8
18D8
18D8
1998
199B
1B1B
161F
0000
ENDCHAR

STARTCHAR jisx0208_3559
ENCODING 13657
SWIDTH 960 0
DWIDTH 16 0
BBX 16 16 0 -2
BITMAP
0000
0C60
0C60
0C60
17FF
1860
38F0
58F0
1958
196C
1B66
1663
1860
1860
1860
0000
ENDCHAR

STARTCHAR jisx0208_355A
ENCODING 13658
SWIDTH 960 0
DWIDTH 16 0
BBX 16 16 0 -2
BITMAP
0000
0000
3FF0
0630
0660
0660
06FC
060C
0B18
0B18
19B0
18E0
30F0
639C
0E07
0000
ENDCHAR

STARTCHAR jisx0208_355B
ENCODING 13659
SWIDTH 960 0
DWIDTH 16 0
BBX 16 16 0 -2
BITMAP
0000
0000
03FC
7CCC
6CCC
6CD8
6CDE
6CC6
6CE6
6D6C
7DAC
0198
032C
0366
06C3
0000
ENDCHAR

STARTCHAR jisx0208_355C
ENCODING 13660
SWIDTH 960 0
DWIDTH 16 0
BBX 16 16 0 -2
BITMAP
0000
0180
7FFE
6006
6006
0FF0
0C30
0C30
0FF0
0180
0300
1FF8
1818
1818
1FF8
0000
ENDCHAR

STARTCHAR jisx0208_355D
ENCODING 13661
SWIDTH 960 0
DWIDTH 16 0
BBX 16 16 0 -2
BITMAP
0000
0000
3FFC
000C
000C
1FFC
1800
1800
3FFE
3006
0006
0006
0006
000C
00F8
0000
ENDCHAR

STARTCHAR jisx0208_355E
ENCODING 13662
SWIDTH 960 0
DWIDTH 16 0
BBX 16 16 0 -2
BITMAP
0000
0600
0FF0
1860
70C0
1FFC
000C
1FFC
000C
1FFC
0000
06C0
3666
361B
63F8
0000
ENDCHAR

STARTCHAR jisx0208_355F
ENCODING 13663
SWIDTH 960 0
DWIDTH 16 0
BBX 16 16 0 -2
BITMAP
0000
0C30
0B30
0DB0
7F7F
0C66
6AE6
2D66
0C66
1E2C
2B2C
6D98
0C2C
0C66
3DC3
0000
ENDCHAR

ENDFONT
